<svg xmlns="http://www.w3.org/2000/svg" xmlns:xlink="http://www.w3.org/1999/xlink" id="Layer_1" x="0" y="0" version="1.1" viewBox="0 0 1920 1080" xml:space="preserve"><style>.st1{fill:#136149}.st2{opacity:.42}.st3{opacity:.53;fill:#0ad05b;enable-background:new}.st4{fill:#13aa52}.st5{opacity:.45}.st6{fill:none;stroke:#0b3b35;stroke-width:5;stroke-linecap:round;stroke-linejoin:round}.st7{fill:#0b3b35}.st9{fill:#0ad05b}.st10{fill:#a49437}.st11{fill:#86681d}.st12{opacity:.4;fill:#ffdd49;enable-background:new}.st13{fill:#09804c}.st14,.st15,.st16{opacity:.4;fill:#136149;enable-background:new}.st15,.st16{opacity:.35;fill:#b5e6c9}.st16{opacity:.45;fill:#86681d}.st17{fill:none;stroke:#0ad05b;stroke-linecap:round;stroke-linejoin:round}.st19{fill:#e1f2f6}.st20{fill:#f4bdca}.st21{fill:#d5d4f9}.st22{fill:#f1f0fc}.st23{fill:#ffe1ea}.st24{fill:#f7a76f}.st26{fill:#ed5d75}.st27{fill:#fcebe2}.st28{fill:#ffeb99}.st29{opacity:.24;fill:#136149;enable-background:new}.st30{fill:#570b08}.st32{fill:#8f221b}.st34{fill:#ef8f9d}.st37{fill:none;stroke:#8f221b;stroke-linecap:round;stroke-linejoin:round}.st39{fill:#f9fbfa}.st42,.st45{enable-background:new}.st42{stroke:#f9fbfa;stroke-width:4;stroke-linecap:round;stroke-linejoin:round;opacity:.25;fill:none}.st45{opacity:.45;fill:#ffdd49}.st46,.st48{fill:#42210b}.st48{opacity:.45;enable-background:new}.st50{fill:#e7eeec}.st52{opacity:.36}.st53{fill:#b8c4c2}.st54{fill:#5d6c74}.st56{fill:none;stroke:#136149;stroke-linecap:round;stroke-linejoin:round}</style><defs><path id="SVGID_1_" d="M-41-35h1997.3v1153.8H-41z"/></defs><clipPath id="SVGID_2_"><use overflow="visible" xlink:href="#SVGID_1_"/></clipPath><g clip-path="url(#SVGID_2_)"><g id="BG"><path d="M-41-35h1981.7v712.3H-41z" class="st1"/><g class="st2"><path d="M1938.8 296.4h-878.7a29.4 29.4 0 000 58.8h302.7a29.4 29.4 0 0129.4 29.4v8a29.4 29.4 0 01-29.4 29.4H924.5a48 48 0 000 96h672.3a29.4 29.4 0 0129.4 29.4v1.2a29.4 29.4 0 01-29.4 29.4h-370.3a50.6 50.6 0 100 101.2h714.2M-459 781.6h749a22.9 22.9 0 100-45.8H54.1a23 23 0 01-22.9-22.9v-6.2a22.9 22.9 0 0122.9-22.9h341.6a37.4 37.4 0 000-74.8h-523.9a23 23 0 01-22.9-22.9v-1a23 23 0 0122.9-22.9h288.6a39.3 39.3 0 100-78.8h-620.9" class="st3"/></g><path d="M-29.7 677.3H1952v441.5H-29.7z" class="st4"/><path d="M-270.1 1250.8h1006a30.8 30.8 0 000-61.6H419.1c-17 0-30.8-13.8-30.8-30.8v-8.4c0-17 13.8-30.8 30.8-30.8h458.7a50.3 50.3 0 00-.1-100.5H174.3c-17 0-30.8-13.8-30.8-30.8v-1.3c0-17 13.7-30.8 30.7-30.8h387.5a53 53 0 000-105.8H-272M1954.4 676.9h-811.2a30.8 30.8 0 000 61.6H1460c17 0 30.8 13.8 30.8 30.8v8.4c0 17-13.8 30.8-30.8 30.8h-458.7a50.2 50.2 0 100 100.5h703.5c17 0 30.8 13.8 30.8 30.8v1.3c0 17-13.8 30.8-30.8 30.8h-387.5a53 53 0 000 105.8h639M-89.9 676.9h835.8a46.7 46.7 0 110 93.4H-89.9a46.7 46.7 0 110-93.4z" class="st3"/></g><g id="Behind_trees"><g class="st5"><path d="M1275.5 483.2l68.2 50.7 36.4-90.4M1350.4 740.1l-6.7-206.2M1459.6 550.7l-109.2 97.9M1405 506.4v93.3M942.9 473.4l45.8 72.3M1001.4 473.4l-40.7 205.5M970.8 624.5l127.3-78.8M1059.9 496.7l.9 72.1M581.4 677.3l-2.6-91.6M530.5 604.1l49.6 35.3M1581.6 677.2l5.1-176.6M1548.5 536.8l35.6 52.1M1823.4 500.6l20.4 176.7M1775 544.8l62.4 77M1833.6 562.8l86.4-62.2M1859.1 464.5l28.7 59.3M1585.5 540.5l41.9-39.9" class="st6"/></g><g class="st2"><path d="M1629.8 469.3a29.9 29.9 0 01-26 14.8 30 30 0 0126.2-44.7 29.9 29.9 0 01-.2 29.9zM986.1 468.4a29.9 29.9 0 01-26 14.8 29.9 29.9 0 0126.2-44.7 29.9 29.9 0 01-.2 29.9zM1793.3 504.8a30 30 0 01-12.9 27 30 30 0 01-4-51.7c9.6 4.6 16.1 14 16.9 24.7zM1909.2 561.9a30 30 0 0112.5 27.2 30 30 0 01-42.3-30 30 30 0 0129.8 2.8zM1776.8 600.7a30 30 0 01-29.5-5 29.9 29.9 0 0148.6-18 29.8 29.8 0 01-19.1 23zM1905.9 478.5a30 30 0 01-29.5-5 29.9 29.9 0 0148.6-18.1 30 30 0 01-19.1 23.1zM1535.4 504.2a30.2 30.2 0 017.1 29.5 30.3 30.3 0 01-36.2-38c10.5-2.6 21.6.7 29.1 8.5zM1526.8 568.6c10.5-2.8 21.6.2 29.3 7.8a30.2 30.2 0 01-50.7 13.5 30.3 30.3 0 0121.4-21.3zM1077.8 583c10.5-2.8 21.6.2 29.3 7.8a30.2 30.2 0 01-50.7 13.5 30.1 30.1 0 0121.4-21.3zM723.6 594.2a30.1 30.1 0 0128.1-11.2 30.3 30.3 0 01-32.4 41.3 30.5 30.5 0 014.3-30.1zM947.2 544.4a30.3 30.3 0 0115 26.3 30.3 30.3 0 01-45.3-26.5c9.4-5.3 21-5.2 30.3.2zM50.8 615.2a30.3 30.3 0 01-2.2 30.2 30.3 30.3 0 01-22.8-47.3c10.7.8 20.2 7.3 25 17.1zM1338.4 453.6c5.2 9.5 5 21-.7 30.3a30.3 30.3 0 01-25.2-46c10.8.2 20.7 6.2 25.9 15.7zM55.2 558.1a30.3 30.3 0 01-26 15.5 30.3 30.3 0 0125.6-45.9c5.6 9.4 5.7 21 .4 30.4zM1094.8 501c10.4-2.8 21.6.2 29.2 7.8a30.2 30.2 0 01-50.7 13.5 30.3 30.3 0 0121.5-21.3z" class="st7"/></g></g><g id="Trees"><defs><path id="SVGID_3_" d="M-41-35h1981.7v712.3H-41z"/></defs><clipPath id="SVGID_4_"><use overflow="visible" xlink:href="#SVGID_3_"/></clipPath><g clip-path="url(#SVGID_4_)"><path d="M1674 148s291.6 211.9 491.7 245.4c-.1.1-523.6 189.9-491.7-245.4z" class="st4"/><path d="M1680.1 48.3s-128.5 277.1-438.2 377.5c182.7 87.4 503.9.1 438.2-377.5z" class="st1"/><path d="M1643.1-41.5L1440 285.3s278.2 67.4 203.1-326.8zM1683.8-139.2s179.9 202.7 419.5 232.6c-210.6 127.1-349.1 29.1-402.3-76.8-37.7-75-17.2-155.8-17.2-155.8z" class="st9"/><path d="M1745.5 698.9h-99.9l-8.8-333.8-1.6-59.5 1.7-38.1 10.5-238.4-12.7-146.4 9.2-282 13.8-159.7-5.5-182.5 7.7-262.7h65.2l7.2 332.3 3 140.2-10.2 89.6v389.4l6.1 116.8-6.1 218.1v120.7l9.2 133.7 6.9 99.1z" class="st10"/><path d="M1688.9 698.9h-43.3l-10.4-393.3 12.2-276.5-12.7-146.4 9.2-282 13.8-159.7-5.5-182.5 7.7-262.7h8.6l7.1 332.3 3.1 140.2-10.2 89.6v389.4l6.1 116.8-6.1 218.1v120.7z" class="st11"/><path d="M1706.9-893.2l11.3 225-11.3 359.5-23 354.3 34.3 255.7-20 379.1" class="st12"/><path d="M1675.8-246.2s-111.2 179-356 262.3c.1 0 413.8 156.5 356-262.3z" class="st9"/><path d="M1859.5.9l-192.4-214.6S1611.5-3.2 1859.5.9z" class="st4"/><path d="M1684.1 10.8s236.8 283.4 313 292.6c-153 94.5-272.8-49.1-300.2-139.2s-12.8-153.4-12.8-153.4z" class="st1"/><path d="M1912.1 186.7L1683.8 10.8s-16.2 217.1 228.3 175.9zM1668.5-52.7s-159.5 149-426.7 246.5c0 0 335.1 186.3 426.7-246.5z" class="st13"/><path d="M1413.4 89l174.2-92.8 80.8-48.9c.1 0 2.3 190.5-255 141.7z" class="st4"/><path d="M1685.7-141.8c.6-22.4 4.3-45.4 13.7-65.1v99.5a257.7 257.7 0 0029.2 45.8c-.2-25.2 3.1-51.9 13.8-74.4v90.5a333.7 333.7 0 0043.1 39.2 165.6 165.6 0 011.5-63.9l14.8 75.8a492.8 492.8 0 0057.3 33.9c.2-9.8 1.5-19.6 3.8-29.1l6.7 34.3A744.6 744.6 0 001975 85.2l-291.6-348.8c-.1-.2-18.8 53.4 2.3 121.8zM1650.3 264.3c3.3-22.1 3.5-45.4-2.3-66.5l-17 98a253 253 0 01-36.6 40.1 172 172 0 00-.8-75.6l-15.5 89.1a345 345 0 01-49.1 31.2 167.5 167.5 0 009.5-63.2l-27.6 72.1c-20.2 9.3-41 17.1-62.3 23.6 1.5-9.7 1.9-19.5 1.3-29.3l-12.5 32.6a741.9 741.9 0 01-110.8 21.8l347-293.7c-.1 0 9.2 56-23.3 119.8z" class="st14"/><path d="M1637-80.1c2.8-28.2 9.9-56.8 24.1-80.8l-9.2 125.5a320.3 320.3 0 0034.3 60.6c2-31.9 8.9-65.2 25.1-92.5L1703 46.9a442.4 442.4 0 0053.3 53.6c-2.3-26.7-.8-54.7 7.9-80.5l12.6 97a641 641 0 0072.7 48.3c1.2-12.4 3.7-24.5 7.6-36.3l5.7 43.9a1004 1004 0 00135.7 61.3l-353.1-468.4c-.2 0-29.9 65.8-8.4 154.1z" class="st14"/><path d="M1613.7-9.9a290.7 290.7 0 009.2-90l-34.8 132a386.5 386.5 0 01-45 53.1c9.1-33.5 15.1-69.7 12.3-102.3l-31.6 120a413.2 413.2 0 01-56.5 40.7 304.7 304.7 0 0020.9-85.2l-41.2 96.7a488.7 488.7 0 01-68.8 30c3.2-13 5.4-26.3 6.5-39.6l-18.7 43.8a657.7 657.7 0 01-118.8 26.1l411.5-386.5s-.1 76-45 161.2zM1716.5 247.3a291.7 291.7 0 01-11-89.8l37.4 131.3a380.3 380.3 0 0046 52.2c-9.7-33.3-16.5-69.3-14.4-102l34 119.4c18 14.8 37.1 28 57.3 39.5a303.3 303.3 0 01-22.6-84.7l43.1 95.7a497.7 497.7 0 0069.3 28.6c-3.5-13-5.9-26.2-7.2-39.5l19.5 43.4c35.4 10.7 75 18.9 119.3 23.7L1668.2 87s1.7 76 48.3 160.3z" class="st15"/><path d="M1741.2 635.7c-13.1-7.5-22.5-28.1-22.5-52.3 0-19.7 6.3-37 15.7-46.9l6.8 99.2z" class="st12"/><path d="M1654.6 316.2c0 21.1-7.2 39.5-17.8 48.8l-1.6-59.5 1.7-38c10.5 9.4 17.7 27.7 17.7 48.7z" class="st10"/><path d="M1160 276.1s349.9 86.3 547.9 42c0 0-413.3 373.2-547.9-42z" class="st4"/><path d="M1257.2 65s-159.4 275.5-486.9 344.5c178.6 113.1 516.5 59.2 486.9-344.5z" class="st1"/><path d="M1188-41.5L984.9 285.3s278.2 67.4 203.1-326.8zM1226.4-101.7S1406.3 101 1645.9 131c-210.6 127.1-349.1 29.1-402.3-76.8-37.6-75.2-17.2-155.9-17.2-155.9z" class="st9"/><path d="M1290.4 698.9h-99.9l-5.8-220.3-1.6-61.3-3-111.7 12.2-276.5-12.8-146.4 9.3-282 13.8-159.7-5.5-182.5 7.7-262.7h65.2l7.2 332.3 3 140.2-10.2 89.6v389.4l6.2 116.8-6.2 218.1v120.7l10.5 152.5 4.6 66.6z" class="st10"/><path d="M1233.8 698.9h-43.3l-10.3-393.3 12.1-276.5-12.8-146.4 9.3-282 13.8-159.7-5.5-182.5 7.7-262.7h8.6l7.1 332.3 3.1 140.2-10.2 89.6v389.4l6.1 116.8-6.1 218.1v120.7z" class="st11"/><path d="M1251.8-893.2l11.3 225-11.3 359.5-23 354.3 34.3 255.7-20.1 379.1" class="st12"/><path d="M1220.7-246.2s-111.2 179-356 262.3c.1 0 413.8 156.5 356-262.3z" class="st9"/><path d="M1404.4.9L1212-213.7S1156.4-3.2 1404.4.9z" class="st4"/><path d="M1320-106.4l252.2 167.6c0-.1-272.8 77.6-252.2-167.6z" class="st13"/><path d="M1191.9 86.6s352.1 266 443.4 256.2c-152.6 151.3-330.8 16.5-387.1-81s-56.3-175.2-56.3-175.2z" class="st1"/><path d="M1213.4-52.7s-159.5 149-426.7 246.5c0 0 335.1 186.3 426.7-246.5z" class="st13"/><path d="M958.3 89l174.2-92.8 80.9-48.9s2.2 190.5-255.1 141.7z" class="st4"/><path d="M1270 3.2c.6-22.4 4.3-45.4 13.7-65.1v99.5a257.7 257.7 0 0029.2 45.8c-.2-25.2 3.1-51.9 13.8-74.4v90.5a333.7 333.7 0 0043.1 39.2 165.6 165.6 0 011.5-63.9l14.8 75.8a492.8 492.8 0 0057.3 33.9c.2-9.8 1.5-19.6 3.8-29.1l6.7 34.3a733 733 0 00105.4 40.4l-291.6-348.8c-.1-.1-18.9 53.5 2.3 121.9zM1195.2 264.3c3.3-22.1 3.5-45.4-2.3-66.5l-17 98a253 253 0 01-36.6 40.1 172 172 0 00-.8-75.6l-15.5 89.1a340.5 340.5 0 01-49.2 31.2 167.5 167.5 0 009.5-63.2l-27.6 72.1c-20.2 9.3-41 17.1-62.3 23.6 1.5-9.7 1.9-19.5 1.3-29.3l-12.5 32.6a741.9 741.9 0 01-110.8 21.8l347-293.7s9.3 56-23.2 119.8z" class="st14"/><path d="M1158.6-9.9a290.7 290.7 0 009.2-90l-34.8 132a386.5 386.5 0 01-45 53.1c9-33.5 15-69.7 12.3-102.3l-31.6 120a413.2 413.2 0 01-56.5 40.7 304.7 304.7 0 0020.9-85.2l-41.2 96.7a488.7 488.7 0 01-68.8 30c3.2-13 5.4-26.3 6.5-39.6L911 189.3a657.7 657.7 0 01-118.8 26.1l411.5-386.5c-.1 0-.3 76-45.1 161.2zM1261.4 247.3a291.7 291.7 0 01-11-89.8l37.4 131.3a380.3 380.3 0 0046 52.2c-9.7-33.3-16.5-69.3-14.4-102l34 119.4c18 14.8 37.2 28 57.4 39.5a303.3 303.3 0 01-22.6-84.7l43.2 95.7a497.7 497.7 0 0069.3 28.6c-3.5-13-5.9-26.2-7.2-39.5l19.5 43.4c35.4 10.7 75 18.9 119.3 23.7L1213.1 87s1.7 76 48.3 160.3z" class="st15"/><path d="M1285.1 622c-1.1.3-2.2.4-3.3.4-11.3 0-20.4-15-20.4-33.6 0-17.8 8.4-32.4 19.1-33.5l4.6 66.7zM1196 448.6c0 13.1-4.6 24.5-11.3 30l-1.6-61.2c7.5 4.9 12.9 17 12.9 31.2z" class="st12"/><path d="M1069 191.1L852.5.8S822.3 216.4 1069 191.1z" class="st13"/><path d="M818.7-139.2S998.6 63.5 1238.2 93.4c-210.6 127.1-349.1 29.1-402.3-76.8-37.7-75-17.2-155.8-17.2-155.8z" class="st9"/><path d="M886.2 67.6c-5.6-17.3-9-36-7-53.8l27.1 76.3a210.8 210.8 0 0035.3 27.1 137.5 137.5 0 01-9.5-60.9l24.6 69.4a281.2 281.2 0 0044.4 18.1c-8.2-15.2-14.5-32-16.2-49.4l32.2 54c17.8 4.6 35.8 8 54.1 10.1-2.5-7.6-4.2-15.4-5-23.4l14.6 24.5c27.7 2.8 58.7 3.6 93.5 1.8l-323-186.8c-.2.1-.3 46.4 34.9 93z" class="st14"/><path d="M808.8 148s291.6 211.9 491.6 245.4c.1.1-523.4 189.9-491.6-245.4z" class="st4"/><path d="M815 48.3S679.6 256.6 369.9 357C760.7 514.7 880.6 425.9 815 48.3z" class="st1"/><path d="M777.9-41.5l-203 326.8s278.2 67.4 203-326.8z" class="st9"/><path d="M880.4 698.9h-100l-10.3-393.3 12.1-276.5-12.7-146.4 9.2-282L792.5-559l-5.4-182.5 7.6-262.7H860l7.2 332.3 3 140.2-10.2 89.6v389.4l6.1 116.8-6.1 218.1v120.7l7.8 114.1 4.6 65.6z" class="st10"/><path d="M823.7 698.9h-43.3l-10.3-393.3 12.1-276.5-12.7-146.4 9.3-282L792.5-559l-5.4-182.5 7.6-262.7h8.6l7.2 332.3 3 140.2-10.2 89.6v389.4l6.2 116.8-6.2 218.1v120.7z" class="st11"/><path d="M841.8-893.2l11.3 225-11.3 359.5-23.1 354.3 34.4 255.7L833 680.4" class="st12"/><path d="M810.7-246.2s-111.2 179-356 262.3c0 0 413.8 156.5 356-262.3z" class="st9"/><path d="M994.3.9L801.9-213.7S746.4-3.2 994.3.9z" class="st4"/><path d="M818.9 10.8s236.8 283.4 313 292.6c-153 94.5-272.8-49.1-300.2-139.2S818.9 10.8 818.9 10.8z" class="st1"/><path d="M449.6 122L677.9-53.9S694.2 163.2 449.6 122z" class="st13"/><path d="M803.3-52.7s-159.5 149-426.7 246.5c0 0 335.2 186.3 426.7-246.5z" class="st13"/><path d="M548.3 89L722.5-3.8l80.9-48.9c-.1 0 2.1 190.5-255.1 141.7z" class="st4"/><path d="M820.6-141.8c.6-22.4 4.3-45.4 13.7-65.1v99.5a257.7 257.7 0 0029.2 45.8c-.2-25.2 3.1-51.9 13.8-74.4v90.5a333.7 333.7 0 0043.1 39.2 165.6 165.6 0 011.5-63.9l14.8 75.8A492.8 492.8 0 00994 39.5c.2-9.8 1.5-19.6 3.8-29.1l6.7 34.3a733 733 0 00105.4 40.4L818.2-263.8s-18.7 53.6 2.4 122zM784.8 195.4c.7-22.4-1.8-45.5-10-65.8l-5.5 99.3c-9 15.8-19.6 30.6-31.7 44.1 1.6-25.2-.2-52-9.6-75l-5 90.4a338.7 338.7 0 01-45.2 36.7c4.3-20.7 6-42.8 2.1-63.9l-19 74.8a486.7 486.7 0 01-59.1 30.7 144 144 0 00-2.1-29.3l-8.6 33.9a728.8 728.8 0 01-107.5 34.5L793.9 73.7s15.8 54.5-9.1 121.7z" class="st14"/><path d="M748.5-9.9a290.7 290.7 0 009.2-90l-34.8 132a386.5 386.5 0 01-45 53.1C687 51.8 693 15.6 690.3-17l-31.6 120a413.2 413.2 0 01-56.5 40.7 304.7 304.7 0 0020.9-85.2l-41.2 96.7a488.7 488.7 0 01-68.8 30c3.2-13 5.4-26.3 6.5-39.6L501 189.4a657.7 657.7 0 01-118.8 26.1L793.7-171c-.2-.1-.3 75.9-45.2 161.1zM876.5 247.3a291.7 291.7 0 01-11-89.8l37.4 131.3A381 381 0 00949 341c-9.7-33.3-16.5-69.3-14.4-102l34 119.4c17.9 14.8 37.1 28 57.3 39.6a303.3 303.3 0 01-22.6-84.7l43.1 95.7a497.7 497.7 0 0069.3 28.6c-3.5-13-5.9-26.2-7.2-39.5l19.5 43.4c35.4 10.7 75 18.9 119.3 23.7L828.2 87s1.7 76 48.3 160.3z" class="st15"/><path d="M872.4 582.6c-1.9 1-3.9 1.5-6 1.5-11.3 0-20.4-15-20.4-33.6s9.1-33.6 20.4-33.6l1.4.1 4.6 65.6z" class="st12"/><path d="M355.9 229.2L78.8 15.6S59.1 279.2 355.9 229.2z" class="st13"/><path d="M22.1 148s291.6 211.9 491.7 245.4c-.1.1-523.6 189.9-491.7-245.4z" class="st4"/><path d="M28.2 48.3S-100.3 325.4-410 425.8c182.7 87.4 503.9.1 438.2-377.5z" class="st4"/><path d="M-8.8-41.5l-203 326.8S66.4 352.7-8.8-41.5zM31.9-139.2S211.8 63.5 451.4 93.4c-210.5 127.2-349 29.2-402.2-76.8-37.7-75-17.3-155.8-17.3-155.8z" class="st9"/><path d="M93.7 698.9h-100l-10.3-393.3L-4.5 29.1l-12.7-146.4 9.2-282L5.8-559 .4-741.5 8-1004.2h65.3l7.1 332.3 3.1 140.2-10.2 89.6v389.4l6.1 116.8-6.1 218.1v120.7z" class="st10"/><path d="M37 698.9H-6.3l-3-113.9-2.7-103.3-4.6-176.1L-4.5 29.1l-12.7-146.4 9.2-282L5.8-559 .4-741.5 8-1004.2h8.6l7.2 332.3 3 140.2-10.2 89.6v389.4l6.1 116.8-6.1 218.1v120.7z" class="st11"/><path d="M55.1-893.2l11.2 225-11.2 359.5L32 45.6l34.3 255.7-20 379.1" class="st12"/><path d="M24-246.2S-87.2-67.2-332 16.1c0 0 413.8 156.5 356-262.3z" class="st9"/><path d="M207.6.9L15.2-213.7S-40.4-3.2 207.6.9z" class="st4"/><path d="M35.4-8.2s236.8 283.4 313 292.6c-153 94.5-272.8-49.1-300.2-139.2S35.4-8.2 35.4-8.2z" class="st1"/><path d="M16.6-52.7s-159.5 149-426.7 246.5c0 0 335.2 186.3 426.7-246.5z" class="st13"/><path d="M-238.4 89L-64.2-3.8l80.9-48.9c-.1 0 2.1 190.5-255.1 141.7z" class="st4"/><path d="M33.8-141.8c.6-22.4 4.3-45.4 13.7-65.1v99.5a257.7 257.7 0 0029.2 45.8c-.2-25.2 3.1-51.9 13.8-74.3v90.5a340.3 340.3 0 0043.1 39.1 165.6 165.6 0 011.5-63.9l14.8 75.8a492.8 492.8 0 0057.3 33.9c.2-9.8 1.5-19.6 3.8-29.1l6.7 34.3A764 764 0 00323 85L31.5-263.8s-18.8 53.6 2.3 122z" class="st14"/><path d="M74.3-79.7c-2.1-30.6-1-62.4 6.2-90.2l11.9 136c9.9 21 21.8 41.1 35.3 60-3.2-34.5-3-71.2 5.2-102.9l10.8 123.7a401.1 401.1 0 0048.8 49.6A302.4 302.4 0 01186.3 9l24.2 102.2a491 491 0 0062.7 41.2 257 257 0 01.4-40.2l11 46.3a658.8 658.8 0 00112.7 45.8l-340-450.6c0 .1-12.8 75 17 166.6zM-38.2-9.9a290.7 290.7 0 009.2-90l-34.8 132a386.5 386.5 0 01-45 53.1c9-33.5 15.1-69.7 12.3-102.3l-31.6 120a413.2 413.2 0 01-56.5 40.7 304.7 304.7 0 0020.9-85.2l-41.2 96.7a488.7 488.7 0 01-68.8 30c3.2-13 5.4-26.3 6.5-39.6l-18.6 43.8a657.7 657.7 0 01-118.8 26.1L6.8-171.1s-.1 76-45 161.2z" class="st15"/><path d="M78.2 79.6a291.7 291.7 0 01-11-89.8l37.4 131.3a381 381 0 0046.1 52.2c-9.7-33.2-16.5-69.3-14.4-102l34 119.4c17.9 14.8 37.1 28 57.3 39.5a303.3 303.3 0 01-22.6-84.7l43.1 95.8a497.7 497.7 0 0069.3 28.6c-3.5-13-5.9-26.2-7.2-39.5l19.5 43.4c35.4 10.7 75 18.9 119.3 23.7L29.9-80.7s1.6 76 48.3 160.3z" class="st15"/><path d="M10.9 534.2c0 22.7-8.3 42.2-20.2 50.8L-12 481.7c13.3 7.4 22.9 28.1 22.9 52.5z" class="st10"/><path d="M1237.6 649.8a36.6 36.6 0 00-44 37l-11.3 2.9a36.5 36.5 0 0155.3-39.9z" class="st4"/><path d="M1184.9 669.9a33.8 33.8 0 01-.7 19.4l-13.1 3.4a33.7 33.7 0 00-40.7-40 33.8 33.8 0 0154.5 17.2z" class="st13"/><path d="M227.5 663.4a36.6 36.6 0 00-44 37l-11.3 2.9a36.6 36.6 0 0155.3-39.9z" class="st4"/><path d="M174.9 683.6a33.4 33.4 0 01-.7 19.3l-13.1 3.4a33.7 33.7 0 00-40.7-40 33.8 33.8 0 0154.5 17.3z" class="st7"/><path d="M1808.9 650.7a36.7 36.7 0 00-44 37l-11.3 2.9a36.5 36.5 0 0155.3-39.9z" class="st4"/><path d="M1756.2 670.9a33.8 33.8 0 01-.7 19.4l-13.1 3.4a33.7 33.7 0 00-40.7-40 33.8 33.8 0 0154.5 17.2z" class="st7"/><path d="M255.4 678.6h-8.5a36 36 0 00-56.6-25 36 36 0 0165.1 25z" class="st9"/><path d="M308.8 657.8a30.8 30.8 0 00-43.6 20.8h-9.8a30.8 30.8 0 0153.4-20.8z" class="st13"/><path d="M262.8 660c0 6.8 2.4 13.4 6.8 18.5h-15.2a28.5 28.5 0 0123.8-44.2h.7a28.5 28.5 0 00-16.1 25.7z" class="st4"/><path d="M1394.9 634.2c-7-2.7-14.6-3.5-22.1-2.4-22.9 3.6-39 25.3-39.9 51.1l-15.3 2.4c-4.9-30.9 12.6-59.4 39.1-63.6a46 46 0 0138.2 12.5z" class="st7"/><path d="M1388.8 647.1a40.6 40.6 0 00-52.4 36.1l-12.8 2a40.6 40.6 0 0165.2-38.1z" class="st9"/><path d="M1328.5 663.7c1.2 7.2.2 14.6-2.9 21.3l-14.8 2.4a37.4 37.4 0 00-40.6-48.4 37.3 37.3 0 0158.3 24.7z" class="st1"/><path d="M648.6 681.5h-8.8a37.5 37.5 0 00-59-26.1 37.5 37.5 0 0167.8 26.1z" class="st9"/><path d="M704.3 659.8a32 32 0 00-45.4 21.7h-10.2a32.1 32.1 0 0155.6-21.7z" class="st13"/><path d="M656.3 662.2c0 7.1 2.5 13.9 7.1 19.3h-15.9a29.6 29.6 0 0124.8-46h.7a29.6 29.6 0 00-16.7 26.7z" class="st4"/><ellipse cx="31" cy="237.3" class="st12" rx="10.2" ry="16.8"/><ellipse cx="1239.5" cy="341.5" class="st16" rx="10.2" ry="16.8"/><ellipse cx="1711.1" cy="502.9" class="st16" rx="10.2" ry="16.8"/><ellipse cx="805.5" cy="267.6" class="st11" rx="17.5" ry="28.8"/></g><path d="M302.1 778.3a33.8 33.8 0 00-32.1 4.1 44 44 0 00-17.2 34.3h-12.5c-1.1-9.2.4-18.5 4.3-26.9a37 37 0 0127.2-21.5c11-1.7 21.9 2.2 30.3 10z" class="st13"/><path d="M297.2 788.5a32.2 32.2 0 00-41.7 28.1H245a32.2 32.2 0 0125.1-34.3l2.1-.4c8.8-1.3 17.9 1 25 6.6z" class="st9"/><path d="M247.7 816.7h-12.4c1.2-3.8 1.6-5.3.8-9.9-2.5-16-17.4-27-33.4-24.8a29.8 29.8 0 0141.5 7.4l.3.4a29.4 29.4 0 013.2 26.9z" class="st9"/><path d="M202.7 816.7H271" class="st17"/><path d="M317.5 732.1H309a36 36 0 00-56.6-25 36 36 0 0165.1 25z" class="st9"/><path d="M370.9 711.2a30.8 30.8 0 00-43.6 20.8h-9.8a30.8 30.8 0 0153.4-20.8z" class="st13"/><path d="M324.9 713.5c0 6.8 2.4 13.3 6.8 18.5h-15.2a28.5 28.5 0 0123.8-44.2h.7a28.5 28.5 0 00-16.1 25.7z" class="st4"/><path d="M289.9 731.5h68.4" class="st17"/><g><path d="M1743.5 812.2h-8.5a36 36 0 00-56.6-25 36 36 0 0165.1 25z" class="st9"/><path d="M1796.9 791.3a30.7 30.7 0 00-43.6 20.9h-9.8a30.8 30.8 0 0153.4-20.9z" class="st13"/><path d="M1750.9 793.6c0 6.8 2.4 13.4 6.8 18.5h-15.3a28.6 28.6 0 0123.8-44.2h.7a28.7 28.7 0 00-16 25.7z" class="st4"/></g><path d="M1715.9 811.6h68.3" class="st17"/><g><path d="M1485.6 1011.2h-8.5a36 36 0 00-56.6-25 36 36 0 0165.1 25z" class="st9"/><path d="M1539 990.3a30.7 30.7 0 00-43.6 20.9h-9.8a30.8 30.8 0 0153.4-20.9z" class="st13"/><path d="M1492.9 992.6c0 6.8 2.4 13.4 6.8 18.5h-15.3a28.6 28.6 0 0123.8-44.2h.7a29 29 0 00-16 25.7z" class="st4"/></g><path d="M1458 1010.6h68.3" class="st17"/></g><g id="Circles" opacity=".3"><path d="M718.7 832.5c6.4 0 6.5-10 0-10s-6.5 10 0 10zM646.1 899.3c6.4 0 6.4-10 0-10s-6.4 10 0 10zM401.7 803.8c6.4 0 6.4-10 0-10s-6.4 10 0 10zM466.6 738.9c6.4 0 6.4-10 0-10s-6.4 10 0 10zM216.6 723.7c6.4 0 6.4-10 0-10s-6.5 10 0 10zM63.8 855.4c6.4 0 6.4-10 0-10s-6.4 10 0 10zM14.2 696.9c6.4 0 6.5-10 0-10s-6.5 10 0 10zM107.7 815.3c6.4 0 6.4-10 0-10s-6.4 10 0 10zM161.2 884c6.4 0 6.4-10 0-10s-6.5 10 0 10zM564 1006.2c6.4 0 6.5-10 0-10s-6.4 10 0 10zM369.3 981.4c6.4 0 6.5-10 0-10s-6.5 10 0 10zM462.8 853.5c6.4 0 6.5-10 0-10s-6.4 10 0 10zM247.1 857.3c6.4 0 6.4-10 0-10s-6.4 10 0 10zM659.5 742.8c6.4 0 6.5-10 0-10s-6.5 10 0 10zM819.8 910.8c6.4 0 6.4-10 0-10s-6.4 10 0 10zM699.6 1036.8c6.4 0 6.5-10 0-10s-6.5 10 0 10zM928.7 1023.4c6.4 0 6.5-10 0-10s-6.5 10 0 10zM951.6 809.6c6.4 0 6.4-10 0-10s-6.5 10 0 10zM888.6 777.1c6.4 0 6.4-10 0-10s-6.5 10 0 10zM1047 716c6.4 0 6.4-10 0-10s-6.4 10 0 10zM1071.8 882.1c6.4 0 6.4-10 0-10s-6.4 10 0 10zM1175.6 1015.6c6.4 0 6.4-10 0-10s-6.5 10 0 10zM1384.9 981.4c6.4 0 6.4-10 0-10s-6.4 10 0 10zM1545.3 1002.4c6.4 0 6.4-10 0-10s-6.4 10 0 10zM1595 834.4c6.4 0 6.4-10 0-10s-6.4 10 0 10zM1239.8 939.4c6.4 0 6.4-10 0-10s-6.4 10 0 10zM1278 761.8c6.4 0 6.4-10 0-10s-6.4 10 0 10zM1159.7 717.9c6.4 0 6.4-10 0-10s-6.5 10 0 10zM1302.8 708.4c6.4 0 6.4-10 0-10s-6.4 10 0 10zM1455.6 733.2c6.4 0 6.4-10 0-10s-6.5 10 0 10zM1625.5 712.2c6.4 0 6.4-10 0-10s-6.4 10 0 10zM1696.1 805.8c6.4 0 6.4-10 0-10s-6.4 10 0 10zM1843.1 723.7c6.4 0 6.4-10 0-10s-6.4 10 0 10zM1904.2 807.7c6.4 0 6.4-10 0-10s-6.4 10 0 10zM1736.2 926c6.4 0 6.4-10 0-10s-6.4 10 0 10z" class="st7"/><path d="M165 795.7c2.5 0 4.5-2 4.5-4.5s-2-4.5-4.5-4.5-4.5 2-4.5 4.5 2 4.5 4.5 4.5zM39 811c2.5 0 4.5-2 4.5-4.5s-2-4.5-4.5-4.5-4.5 2-4.5 4.5 2 4.5 4.5 4.5zM48.5 704.1c2.5 0 4.5-2 4.5-4.5s-2-4.5-4.5-4.5-4.5 2-4.5 4.5a4.8 4.8 0 004.5 4.5zM102 799.5c2.5 0 4.5-2 4.5-4.5s-2-4.5-4.5-4.5-4.5 2-4.5 4.5 2 4.5 4.5 4.5zM21.8 910.3c2.5 0 4.5-2 4.5-4.5s-2-4.5-4.5-4.5-4.5 2-4.5 4.5c0 2.4 2 4.4 4.5 4.5zM151.6 860.6c2.5 0 4.5-2 4.5-4.5s-2-4.5-4.5-4.5-4.5 2-4.5 4.5a4.6 4.6 0 004.5 4.5zM260.5 748c2.5 0 4.5-2 4.5-4.5s-2-4.5-4.5-4.5-4.5 2-4.5 4.5 2 4.5 4.5 4.5zM319.6 812.9c2.5 0 4.5-2 4.5-4.5s-2-4.5-4.5-4.5-4.5 2-4.5 4.5a4.6 4.6 0 004.5 4.5zM602.2 902.6c2.5 0 4.5-2 4.5-4.5s-2-4.5-4.5-4.5-4.5 2-4.5 4.5 2 4.5 4.5 4.5zM460.9 772.8c2.5 0 4.5-2 4.5-4.5s-2-4.5-4.5-4.5-4.5 2-4.5 4.5 2 4.5 4.5 4.5zM378.8 746.1c2.5 0 4.5-2 4.5-4.5s-2-4.5-4.5-4.5-4.5 2-4.5 4.5a4.8 4.8 0 004.5 4.5zM634.7 692.6c2.5 0 4.5-2 4.5-4.5s-2-4.5-4.5-4.5-4.5 2-4.5 4.5 2 4.5 4.5 4.5zM575.5 740.3c2.5 0 4.5-2 4.5-4.5s-2-4.5-4.5-4.5-4.5 2-4.5 4.5 2 4.5 4.5 4.5zM508.6 916c2.5 0 4.5-2 4.5-4.5s-2-4.5-4.5-4.5-4.5 2-4.5 4.5a4.6 4.6 0 004.5 4.5zM642.3 990.4c2.5 0 4.5-2 4.5-4.5s-2-4.5-4.5-4.5-4.5 2-4.5 4.5 2 4.5 4.5 4.5zM575.5 1070.6c2.5 0 4.5-2 4.5-4.5s-2-4.5-4.5-4.5-4.5 2-4.5 4.5 2 4.5 4.5 4.5zM825.6 1063c2.5 0 4.5-2 4.5-4.5s-2-4.5-4.5-4.5-4.5 2-4.5 4.5 2 4.5 4.5 4.5zM861.8 902.6c2.5 0 4.5-2 4.5-4.5s-2-4.5-4.5-4.5-4.5 2-4.5 4.5a4.6 4.6 0 004.5 4.5zM743.5 931.3c2.5 0 4.5-2 4.5-4.5s-2-4.5-4.5-4.5-4.5 2-4.5 4.5c0 2.4 2 4.4 4.5 4.5zM772.1 811c2.5 0 4.5-2 4.5-4.5s-2-4.5-4.5-4.5-4.5 2-4.5 4.5 2 4.5 4.5 4.5zM961.1 841.5c2.5 0 4.5-2 4.5-4.5s-2-4.5-4.5-4.5-4.5 2-4.5 4.5c.1 2.5 2 4.5 4.5 4.5zM1071.8 797.6c2.5 0 4.5-2 4.5-4.5s-2-4.5-4.5-4.5-4.5 2-4.5 4.5a4.6 4.6 0 004.5 4.5zM1123.4 929.3c2.5 0 4.5-2 4.5-4.5s-2-4.5-4.5-4.5-4.5 2-4.5 4.5 2 4.5 4.5 4.5zM1111.9 1051.5c2.5 0 4.5-2 4.5-4.5s-2-4.5-4.5-4.5-4.5 2-4.5 4.5a4.6 4.6 0 004.5 4.5zM1335.3 893.1c2.5 0 4.5-2 4.5-4.5s-2-4.5-4.5-4.5-4.5 2-4.5 4.5 2 4.5 4.5 4.5zM1350.6 1030.5c2.5 0 4.5-2 4.5-4.5s-2-4.5-4.5-4.5-4.5 2-4.5 4.5 2 4.5 4.5 4.5zM1438.4 1059.2c2.5 0 4.5-2 4.5-4.5s-2-4.5-4.5-4.5-4.5 2-4.5 4.5c0 2.4 2 4.4 4.5 4.5zM1585.4 916c2.5 0 4.5-2 4.5-4.5s-2-4.5-4.5-4.5-4.5 2-4.5 4.5 2 4.5 4.5 4.5zM1640.8 835.8c2.5 0 4.5-2 4.5-4.5s-2-4.5-4.5-4.5-4.5 2-4.5 4.5 2 4.5 4.5 4.5zM1554.9 734.6c2.5 0 4.5-2 4.5-4.5s-2-4.5-4.5-4.5-4.5 2-4.5 4.5 2 4.5 4.5 4.5zM1405.9 728.9c2.5 0 4.5-2 4.5-4.5s-2-4.5-4.5-4.5-4.5 2-4.5 4.5a4.6 4.6 0 004.5 4.5zM1268.5 723.2c2.5 0 4.5-2 4.5-4.5s-2-4.5-4.5-4.5-4.5 2-4.5 4.5c0 2.4 2 4.4 4.5 4.5zM1530 763.3c2.5 0 4.5-2 4.5-4.5s-2-4.5-4.5-4.5-4.5 2-4.5 4.5c0 2.4 2 4.4 4.5 4.5zM1732.4 761.3c2.5 0 4.5-2 4.5-4.5s-2-4.5-4.5-4.5-4.5 2-4.5 4.5 2 4.5 4.5 4.5zM1808.8 734.6c2.5 0 4.5-2 4.5-4.5s-2-4.5-4.5-4.5-4.5 2-4.5 4.5 2 4.5 4.5 4.5zM1864.1 816.7c2.5 0 4.5-2 4.5-4.5s-2-4.5-4.5-4.5-4.5 2-4.5 4.5a4.6 4.6 0 004.5 4.5zM1738.1 851.1c2.5 0 4.5-2 4.5-4.5s-2-4.5-4.5-4.5-4.5 2-4.5 4.5a4.6 4.6 0 004.5 4.5z" class="st19"/></g><g id="Mushrooms"><ellipse cx="1681.5" cy="716.8" class="st14" rx="20.2" ry="5.5"/><path d="M1699 689.8l-.2 1.2c-1.2 4.2-9.1 4.2-18.6 4.2-9.2 0-16.8 0-18.5-3.8-.2-.5-.3-1.1-.3-1.7 0-5.5 8.4-16.2 18.8-16.2s18.8 10.8 18.8 16.3z" class="st20"/><path d="M1698.8 691c-1.2 4.2-9.1 4.2-18.6 4.2-9.2 0-16.8 0-18.5-3.8 1.6-2.7 9.4-4.8 18.7-4.8 8.8.1 16.3 2 18.4 4.4z" class="st20"/><path d="M1678.3 688.5h3.7c2.3 0 4.2 1.9 4.2 4.2v15.1c0 2.3-1.9 4.2-4.2 4.2h-3.7a4.2 4.2 0 01-4.2-4.2v-15.1c0-2.3 1.9-4.2 4.2-4.2z" class="st20"/><ellipse cx="715.9" cy="705.4" class="st14" rx="24.5" ry="6.7"/><ellipse cx="762" cy="684" class="st14" rx="24.5" ry="6.7"/><path d="M737.8 674.4l-.2 1.7c-1.7 5.9-12.6 5.9-25.9 5.9-12.8 0-23.5.1-25.7-5.2a6 6 0 01-.5-2.3c0-7.6 11.7-22.6 26.2-22.6s26.1 14.9 26.1 22.5z" class="st21"/><path d="M737.6 676.1c-1.7 5.9-12.6 5.9-25.9 5.9-12.8 0-23.5.1-25.7-5.2 2.3-3.7 13.1-6.6 26-6.6 12.3-.1 22.6 2.5 25.6 5.9z" class="st21"/><path d="M707.5 672.6h8.4c2.3 0 4.2 1.9 4.2 4.2v24.4c0 2.3-1.9 4.2-4.2 4.2h-8.4a4.2 4.2 0 01-4.2-4.2v-24.4c0-2.3 1.9-4.2 4.2-4.2z" class="st21"/><path d="M778 656.5l-.2 1.2c-1.2 4.3-9.3 4.3-19.1 4.3-9.4 0-17.2 0-18.9-3.8-.2-.5-.3-1.1-.3-1.7 0-5.6 8.6-16.6 19.2-16.6s19.3 11 19.3 16.6z" class="st22"/><path d="M777.8 657.8c-1.2 4.3-9.3 4.3-19.1 4.3-9.4 0-17.2 0-18.9-3.8 1.7-2.8 9.6-4.8 19.1-4.8 9.1-.2 16.7 1.7 18.9 4.3z" class="st22"/><path d="M756.8 655.1h3.9c2.3 0 4.2 1.9 4.2 4.2V675c0 2.3-1.9 4.2-4.2 4.2h-3.9a4.2 4.2 0 01-4.2-4.2v-15.7c0-2.3 1.8-4.2 4.2-4.2z" class="st22"/><ellipse cx="137.7" cy="736.7" class="st14" rx="24.5" ry="6.7"/><ellipse cx="76.3" cy="701.8" class="st14" rx="24.5" ry="6.7"/><ellipse cx="115.5" cy="683.7" class="st14" rx="24.5" ry="6.7"/><ellipse cx="172.4" cy="701.8" class="st14" rx="24.5" ry="6.7"/><path d="M40.9 738.8a33.4 33.4 0 01-.7 19.3H27c1.1-5 1-6.9-.3-12.2a33.8 33.8 0 00-40.4-24.4 34 34 0 0154.6 17.3z" class="st13"/><path d="M93.6 718.7c-5.5-1.1-11.2-1-16.6.4-16.9 4.4-28 22.8-27.4 39.6H38.3a36.5 36.5 0 0155.3-40z" class="st9"/><path d="M3 759.6h68.3" class="st17"/><path d="M140.2 646.3l-.2 1.7c-1.7 6-13 6-26.5 6-13.1 0-24 .1-26.3-5.3-.3-.7-.5-1.6-.4-2.4 0-7.8 12-23.1 26.7-23.1s26.7 15.3 26.7 23.1z" class="st22"/><path d="M140 648c-1.7 6-13 6-26.5 6-13.1 0-24 .1-26.3-5.3 2.3-3.8 13.4-6.8 26.6-6.8 12.6 0 23.2 2.6 26.2 6.1z" class="st22"/><path d="M109.1 644.4h8.8c2.3 0 4.2 1.9 4.2 4.2v25.1c0 2.3-1.9 4.2-4.2 4.2h-8.8a4.2 4.2 0 01-4.2-4.2v-25.1c0-2.4 1.9-4.2 4.2-4.2z" class="st22"/><path d="M187 673.7l-.2 1.2c-1.2 4.3-9.3 4.3-19.1 4.3-9.4 0-17.2 0-18.9-3.8-.2-.5-.3-1.1-.3-1.7 0-5.6 8.6-16.6 19.2-16.6S187 668 187 673.7z" class="st23"/><path d="M186.8 674.9c-1.2 4.3-9.3 4.3-19.1 4.3-9.4 0-17.2 0-18.9-3.8 1.7-2.8 9.6-4.9 19.1-4.9 9.1 0 16.7 1.9 18.9 4.4z" class="st23"/><path d="M165.8 672.3h3.9c2.3 0 4.2 1.9 4.2 4.2v15.7c0 2.3-1.9 4.2-4.2 4.2h-3.9a4.2 4.2 0 01-4.2-4.2v-15.7a4.1 4.1 0 014.2-4.2z" class="st23"/><path d="M121.7 716.7c.8.8 1.9 1.2 3 1.1 3.7-.3 8.8-5.4 14.7-11.4s11-10.9 11.4-14.7c.1-1.1-.3-2.3-1.1-3-3.8-3.8-17.4-4.9-25.2 2.8s-6.6 21.5-2.8 25.2z" class="st22"/><path d="M124.7 717.8c3.7-.3 8.8-5.4 14.7-11.4s11-10.9 11.4-14.7c-4.8-.4-11.6 2.8-17.4 8.7s-9.1 12.6-8.7 17.4z" class="st21"/><path d="M133.6 704.8a5.1 5.1 0 016.2-3.9c.6.1 1.1.3 1.6.6 8.1 4.7 15.2 14.5 13.4 30.5-.6 5.7-14.9 7-15.7 0s5.7-18-2-21.8c-3.2-1.6-3.8-3.6-3.5-5.4z" class="st20"/><path d="M96.1 669.6c0 1.2-.2 2.4-.7 3.5-2.3 4.8-10 4.7-19.1 4.7s-16.8.1-19.1-4.7a8.4 8.4 0 01-.7-3.5c0-8.3 8.9-24.5 19.8-24.5s19.8 16.2 19.8 24.5z" class="st24"/><path fill="#fef2c8" d="M95.4 673c-2.3 4.8-10 4.7-19.1 4.7s-16.8.1-19.1-4.7c4.6-2.5 11.4-4.1 19.1-4.1s14.5 1.7 19.1 4.1z"/><path d="M76.5 702.3h-.3a7.7 7.7 0 01-7.7-7.6l.1-.9 1.4-16.1a6.5 6.5 0 016.4-5.9c3.3 0 6.1 2.6 6.4 5.9l1.4 16.1c.5 4.2-2.5 8-6.7 8.5h-1z" class="st21"/><path d="M1815.6 756h68.3" class="st17"/><path d="M1899.7 716.8a34.1 34.1 0 00-17.6-1.9c-18.2 2.9-31.1 20.2-31.8 40.8h-12.9c-3.9-24.7 10.8-45.4 31.9-48.8 11.1-1.8 22 2.2 30.4 9.9z" class="st13"/><path d="M1894.8 726.8a32.4 32.4 0 00-41.8 28.8l-12.2-.5c-2.8-17.7 11.2-32.1 28.9-34.9 8.9-1.3 18 1 25.1 6.6z" class="st9"/><path d="M1846.8 738.7a30 30 0 01-2.3 17l-11.8-.1c1.4-3.7 1.8-7.8 1-11.8-2.5-16-17.4-27-33.4-24.8a29.8 29.8 0 0146.5 19.7z" class="st9"/><path d="M1597.4 696.4h68.3" class="st17"/><path d="M1681.5 657.3a34.1 34.1 0 00-17.6-1.9c-18.2 2.9-31.1 20.2-31.8 40.8h-12.9c-3.9-24.7 10.8-45.4 31.9-48.8 11.1-1.8 22 2.2 30.4 9.9z" class="st13"/><path d="M1676.5 667.3a32.2 32.2 0 00-41.8 28.8l-12.2-.5c-2.8-17.6 11.2-32.1 28.9-34.9 8.9-1.4 18.1 1 25.1 6.6z" class="st9"/><path d="M1628.5 679.2a30 30 0 01-2.3 17l-11.8-.1c1.4-3.7 1.8-7.8 1-11.8a29.8 29.8 0 00-33.4-24.9 29.8 29.8 0 0146.5 19.8z" class="st9"/><ellipse cx="1766.8" cy="697.5" class="st14" rx="24.5" ry="6.7"/><ellipse cx="1840.8" cy="682.7" class="st14" rx="24.5" ry="6.7"/><ellipse cx="1881.5" cy="698.2" class="st14" rx="24.5" ry="6.7"/><path d="M1862.8 655.8l-.2 1.2c-1.2 4.3-9.3 4.3-19.1 4.3-9.4 0-17.2 0-18.9-3.8-.2-.5-.3-1.1-.3-1.7 0-5.6 8.6-16.6 19.2-16.6s19.3 11 19.3 16.6z" class="st22"/><path d="M1862.6 657c-1.2 4.3-9.3 4.3-19.1 4.3-9.4 0-17.2 0-18.9-3.8 1.7-2.8 9.6-4.9 19.1-4.9 9.1 0 16.7 1.9 18.9 4.4z" class="st22"/><path d="M1841.6 654.4h4c2.3 0 4.2 1.9 4.2 4.2v15.7c0 2.3-1.9 4.2-4.2 4.2h-4a4.2 4.2 0 01-4.2-4.2v-15.7c0-2.3 1.9-4.2 4.2-4.2zM1900.7 673.1l-.2 1.2c-1.2 4.3-9.3 4.3-19.1 4.3-9.4 0-17.2 0-18.9-3.8-.2-.5-.3-1.1-.3-1.7 0-5.6 8.6-16.6 19.2-16.6s19.3 11 19.3 16.6z" class="st22"/><path d="M1900.5 674.3c-1.2 4.3-9.3 4.3-19.1 4.3-9.4 0-17.2 0-18.9-3.8 1.7-2.8 9.6-4.8 19.1-4.8 9.1-.1 16.7 1.8 18.9 4.3z" class="st22"/><path d="M1879.5 671.7h4c2.3 0 4.2 1.9 4.2 4.2v15.7c0 2.3-1.9 4.2-4.2 4.2h-4a4.2 4.2 0 01-4.2-4.2v-15.7a4.1 4.1 0 014.2-4.2z" class="st22"/><path d="M1797 678.9c0 1.4-.4 2.8-1.3 3.8l-.4.4-.7.6-1.5.9-.6.2-.4.2-.5.2-2.4.7-1 .2-.7.1a42 42 0 01-3.7.4l-1 .1-1 .1-1.6.1-1.6.1h-23.5l-2.1-.1-2.9-.2-2.3-.3a13 13 0 01-2.1-.4l-1-.2-.6-.2-1.4-.4-.6-.2-.6-.2-1-.6-.4-.3-.4-.3-.4-.3-.4-.4a5.3 5.3 0 01-1.3-3.8c.1-2.4.8-4.6 2-6.7 3.6-6.5 9-11.7 15.6-14.9 3.7-1.9 7.8-2.9 12-2.9h.4c5.2.2 10.3 1.8 14.7 4.6 3.5 2.2 6.6 5 9.3 8.2a19 19 0 015.4 11.5z" class="st26"/><path d="M1795.7 682.7c-3.8 4.4-15 4.4-28.4 4.4s-24.6.1-28.4-4.4c4.7-5.2 15.6-8.8 28.4-8.8s23.8 3.6 28.4 8.8z" class="st23"/><path d="M1766.2 679.7h1.2c2.3 0 4.2 1.9 4.2 4.2v9.4c0 2.3-1.9 4.2-4.2 4.2h-1.2a4.2 4.2 0 01-4.2-4.2v-9.4c0-2.4 1.9-4.2 4.2-4.2z" class="st20"/><path d="M1791.7 667.2a6.8 6.8 0 01-9.3-8.1c3.6 2.1 6.7 4.9 9.3 8.1zM1784.9 676.4a6.7 6.7 0 10-13-3.6l-.2 1.2 13.2 2.4zM1768.8 658a6.8 6.8 0 01-13.6 0v-.7c3.7-1.9 7.8-2.9 12-2.9h.4c.8 1 1.2 2.3 1.2 3.6zM1750.9 667.1c0 3.7-3 6.8-6.8 6.8-1.6 0-3.2-.6-4.4-1.7 2.2-4 5.1-7.5 8.7-10.4a7 7 0 012.5 5.3z" class="st27"/><ellipse cx="480.2" cy="686.5" class="st14" rx="24.5" ry="6.7"/><ellipse cx="429.6" cy="706.4" class="st14" rx="24.5" ry="6.7"/><ellipse cx="521.6" cy="712" class="st14" rx="24.5" ry="6.7"/><ellipse cx="352.5" cy="683.7" class="st14" rx="24.5" ry="6.7"/><path d="M379 662.8c0 1.3-.4 2.5-1.2 3.5-3.3 4.1-13.2 4-24.9 4s-21.6.1-24.9-4c-.8-1-1.2-2.2-1.2-3.5 0-7.6 11.7-22.5 26.1-22.5s26.1 14.9 26.1 22.5z" class="st24"/><path d="M377.9 666.3c-3.3 4.1-13.2 4-24.9 4s-21.6.1-24.9-4c4.1-4.8 13.7-8.1 24.9-8.1s20.8 3.4 24.9 8.1z" class="st23"/><path d="M352.5 663.5c2.3 0 4.2 1.9 4.2 4.2v8c0 2.3-1.9 4.2-4.2 4.2a4.2 4.2 0 01-4.2-4.2v-8c0-2.3 1.9-4.2 4.2-4.2z" class="st24"/><path d="M509.9 665.2c0 1.4-.4 2.8-1.3 3.8l-.4.4-.7.6-1.5.9-.5.2-.4.2-.5.2-2.4.7-1 .2-.8.1-3.7.5-1 .1-1 .1-1.6.1-1.6.1h-21.8l-1.6-.1-2.1-.1-2.9-.2-2.3-.3a13 13 0 01-2.1-.4l-1-.2-.6-.2-1.4-.4-.6-.2-.6-.2-1.1-.6-.4-.3-.4-.3-.4-.3-.4-.4a5.3 5.3 0 01-1.3-3.8c.1-2.4.8-4.6 2-6.7 3.6-6.5 9-11.7 15.6-14.9 3.7-1.9 7.9-2.9 12-2.9h.4c5.2.2 10.3 1.8 14.7 4.6 3.5 2.2 6.7 5 9.3 8.2 3.4 4 5.4 8.3 5.4 11.5z" class="st26"/><path d="M508.5 669c-3.8 4.4-15 4.3-28.4 4.3s-24.6.1-28.4-4.4c4.7-5.2 15.6-8.8 28.4-8.8s23.8 3.7 28.4 8.9z" class="st23"/><path d="M479.1 666h1.2c2.3 0 4.2 1.9 4.2 4.2v9.4c0 2.3-1.9 4.2-4.2 4.2h-1.2a4.2 4.2 0 01-4.2-4.2v-9.4c0-2.3 1.8-4.2 4.2-4.2z" class="st20"/><path d="M504.5 653.5a6.9 6.9 0 01-9-3.4 6.6 6.6 0 01-.3-4.8c3.6 2.2 6.7 5 9.3 8.2zM497.7 662.8a6.8 6.8 0 00-6.4-8.7 6.8 6.8 0 00-6.8 6.3l13.2 2.4zM481.6 644.3a6.8 6.8 0 01-6.5 7 6.8 6.8 0 01-7-6.5v-.5-.7c3.7-1.9 7.9-2.9 12-2.9h.4a6 6 0 011.1 3.6zM463.7 653.4a6.8 6.8 0 01-11.2 5.2c2.2-4 5.1-7.5 8.7-10.4a6.5 6.5 0 012.5 5.2z" class="st27"/><path d="M450.5 692.7c0 1-.3 2-.9 2.8-2.6 3.2-10.6 3.2-20 3.2s-17.3 0-20-3.2c-.6-.8-1-1.8-.9-2.8 0-6.1 9.4-18 20.9-18s20.9 11.9 20.9 18z" class="st26"/><path d="M449.6 695.5c-2.6 3.2-10.6 3.2-20 3.2s-17.3 0-20-3.2c3.3-3.8 11-6.5 20-6.5s16.7 2.7 20 6.5z" class="st23"/><path d="M429.2 693.3c1.9 0 3.4 1.5 3.4 3.4v6.4c0 1.9-1.5 3.4-3.4 3.4a3.4 3.4 0 01-3.4-3.4v-6.4a3.5 3.5 0 013.4-3.4z" class="st24"/><path d="M546.3 702.2c0 1-.3 2-.9 2.8-2.7 3.3-10.6 3.2-20 3.2s-17.3 0-20-3.2c-.6-.8-1-1.8-.9-2.8 0-6.1 9.4-18 20.9-18s20.9 12 20.9 18z" class="st26"/><path d="M545.3 705c-2.7 3.3-10.6 3.2-20 3.2s-17.3 0-20-3.2c3.3-3.8 11-6.5 20-6.5s16.7 2.7 20 6.5z" class="st23"/><path d="M525 702.8c1.9 0 3.4 1.5 3.4 3.4v6.4c0 1.9-1.5 3.4-3.4 3.4a3.4 3.4 0 01-3.4-3.4v-6.4c0-1.9 1.5-3.4 3.4-3.4z" class="st24"/><path d="M1050.6 773h-8.8a37.2 37.2 0 00-58.9-25.9 37.4 37.4 0 0167.7 25.9z" class="st9"/><path d="M1106.2 751.3a32 32 0 00-45.4 21.7h-10.2a32.1 32.1 0 0155.6-21.7z" class="st13"/><path d="M1058.2 753.7c0 7.1 2.5 13.9 7.1 19.3h-15.9a29.7 29.7 0 0124.8-46h.7a29.6 29.6 0 00-16.7 26.7z" class="st4"/><path d="M1017.1 773h68.3" class="st17"/><ellipse cx="810.6" cy="741.9" class="st14" rx="24.5" ry="6.7"/><ellipse cx="862.1" cy="707.6" class="st14" rx="24.5" ry="6.7"/><ellipse cx="925.4" cy="727.8" class="st14" rx="24.5" ry="6.7"/><ellipse cx="973.1" cy="751.6" class="st14" rx="24.5" ry="6.7"/><ellipse cx="1018.5" cy="704.8" class="st14" rx="24.5" ry="6.7"/><ellipse cx="1101.7" cy="731.3" class="st14" rx="24.5" ry="6.7"/><path d="M888.7 687.7c0 1.3-.4 2.5-1.2 3.5-3.3 4.1-13.2 4-24.9 4s-21.6.1-24.9-4c-.8-1-1.2-2.2-1.2-3.5 0-7.6 11.7-22.5 26.1-22.5s26.1 14.9 26.1 22.5z" class="st26"/><path d="M887.5 691.2c-3.3 4.1-13.2 4-24.9 4s-21.6.1-24.9-4c4.1-4.8 13.7-8.1 24.9-8.1s20.8 3.3 24.9 8.1z" class="st23"/><path d="M862.1 688.4c2.3 0 4.2 1.9 4.2 4.2v8c0 2.3-1.9 4.2-4.2 4.2a4.2 4.2 0 01-4.2-4.2v-8c0-2.3 1.9-4.2 4.2-4.2z" class="st24"/><path d="M948.9 696c0 1.2-.2 2.4-.7 3.5-2.3 4.8-10 4.7-19.1 4.7s-16.8.1-19.1-4.7a8.4 8.4 0 01-.7-3.5c0-8.3 8.9-24.5 19.8-24.5s19.8 16.2 19.8 24.5z" class="st28"/><path d="M948.2 699.5c-2.3 4.8-10 4.7-19.1 4.7s-16.8.1-19.1-4.7c4.6-2.5 11.4-4.1 19.1-4.1s14.5 1.6 19.1 4.1z" class="st10"/><path d="M929.3 728.8h-.3a7.7 7.7 0 01-7.7-7.7l.1-.9 1.4-16.1a6.5 6.5 0 016.4-5.9c3.3 0 6.1 2.6 6.4 5.9l1.4 16.1c.5 4.2-2.5 8-6.7 8.5l-1 .1z" class="st11"/><path d="M986.8 727.2c0 .8-.2 1.7-.5 2.4-1.6 3.3-6.9 3.3-13.3 3.3s-11.7 0-13.3-3.3c-.3-.8-.5-1.6-.5-2.4 0-5.8 6.2-17.1 13.8-17.1s13.8 11.3 13.8 17.1z" class="st28"/><path d="M986.3 729.6c-1.6 3.3-6.9 3.3-13.3 3.3s-11.7 0-13.3-3.3c3.2-1.7 8-2.8 13.3-2.8s10.1 1.1 13.3 2.8z" class="st10"/><path d="M973.2 750h-.2a5.3 5.3 0 01-5.3-5.3v-.7l1-11.2a4.5 4.5 0 014.5-4.1c2.3 0 4.3 1.8 4.5 4.1l1 11.2a5.4 5.4 0 01-4.6 6h-.9z" class="st11"/><path d="M1057.9 679.3c.1 1.8-.6 3.6-1.8 5.1l-.5.6-.9.8c-.6.5-1.3.9-2 1.2l-.7.3-.5.2-.7.2c-1 .4-2.1.6-3.2.9l-1.4.3-1 .2-4.9.6-1.3.1-1.3.1-2.1.1-2.2.1-2.4.1h-26.4l-2.2-.1-2.8-.1-3.9-.3-3-.4-2.8-.5-1.3-.3-.8-.2-1.8-.6-.8-.3-.7-.3-1.4-.8-.5-.4-.5-.4-.5-.4-.5-.6a7.7 7.7 0 01-1.8-5c.2-3.1 1.1-6.2 2.6-8.9 4.7-8.6 12-15.5 20.7-19.8 5-2.5 10.4-3.8 16-3.8h.5c6.9.2 13.7 2.3 19.5 6.1 4.7 2.9 8.8 6.6 12.3 10.9 4.4 5.3 7 11.1 7 15.3z" class="st26"/><path d="M1056.1 684.4c-5 5.8-19.9 5.8-37.6 5.8s-32.6.1-37.6-5.8c6.2-6.9 20.7-11.7 37.6-11.7 16.9 0 31.4 4.8 37.6 11.7z" class="st23"/><path d="M1015.7 680.4h4.3c2.3 0 4.2 1.9 4.2 4.2v15.2c0 2.3-1.9 4.2-4.2 4.2h-4.3a4.2 4.2 0 01-4.2-4.2v-15.2c0-2.3 1.9-4.2 4.2-4.2z" class="st20"/><path d="M1050.8 663.8a9 9 0 01-11.9-4.5c-.9-2-1-4.2-.4-6.3 4.7 2.9 8.9 6.5 12.3 10.8zM1041.8 676.1c.2-.8.4-1.6.3-2.5a9 9 0 00-9.4-8.6 9 9 0 00-8.6 7.9l17.7 3.2zM1020.5 651.7c0 5-4 9-9 9s-9-4-9-9l.1-1c5-2.5 10.4-3.8 16-3.8h.5c.9 1.4 1.4 3 1.4 4.8zM996.7 663.7a9 9 0 01-14.8 6.8c2.9-5.3 6.8-10 11.5-13.8 2 1.7 3.3 4.2 3.3 7z" class="st27"/><path d="M837.7 723.4c0 1.3-.4 2.5-1.2 3.5-3.3 4.1-13.3 4-25.2 4s-21.8.1-25.2-4c-.8-1-1.2-2.3-1.2-3.5 0-7.7 11.8-22.7 26.3-22.7s26.5 15.1 26.5 22.7z" class="st26"/><path d="M836.5 727c-3.3 4.1-13.3 4-25.2 4s-21.8.1-25.2-4c4.1-4.8 13.8-8.2 25.2-8.2s21.1 3.3 25.2 8.2z" class="st23"/><path d="M810.8 724.1c2.4 0 4.3 1.9 4.3 4.2v8.1c0 2.3-1.9 4.2-4.2 4.2h-.1a4.2 4.2 0 01-4.2-4.2v-8.1c0-2.3 1.9-4.2 4.2-4.2z" class="st24"/><path d="M1114.8 711.2c-.8.8-1.9 1.2-3 1.1-3.7-.3-8.8-5.4-14.7-11.4s-11-10.9-11.3-14.7c-.1-1.1.3-2.2 1.1-3 3.8-3.8 17.4-4.9 25.2 2.8s6.4 21.5 2.7 25.2z" class="st22"/><path d="M1111.8 712.3c-3.7-.3-8.8-5.4-14.7-11.4s-11-10.9-11.3-14.7c4.8-.4 11.6 2.8 17.4 8.7s8.9 12.6 8.6 17.4z" class="st21"/><path d="M1102.9 699.3a5 5 0 00-6.1-3.9c-.6.1-1.1.3-1.6.6-8.1 4.7-15.2 14.5-13.4 30.4.6 5.7 14.8 7 15.7 0s-5.7-18 2-21.8c3.1-1.6 3.7-3.5 3.4-5.3z" class="st20"/><path d="M564.6 781a29.8 29.8 0 01-.6 17h-11.5c1-4.4.9-6.1-.3-10.7a29.6 29.6 0 00-35.5-21.4 29.8 29.8 0 0147.9 15.1z" class="st13"/><path d="M611 763.2c-4.8-1-9.8-.9-14.6.4-14.9 3.9-24.6 20.1-24.1 34.8h-9.9a32.3 32.3 0 0148.6-35.2z" class="st9"/><path d="M531.2 799.2h60.2" class="st17"/></g><g id="Squirrel_pain"><ellipse cx="1363.3" cy="952.6" class="st29" rx="197" ry="47.6"/><path d="M1236.1 721.5a24.7 24.7 0 00-19.7 6.6v.1a25 25 0 00-4.8 6.3 104 104 0 00-18.6 46.4c-10.6-19-25.3-30.7-37.3-33.6s-27.7 3.7-26.9 12.2 11.3-7.7 24.9 5.2 9.1 43.2 36 46.2 67-41 68.4-61.9a24.8 24.8 0 00-21.9-27.4l-.1-.1zM1382.3 776.7a65.2 65.2 0 00-111.3 46.1v42.6c0 26.7-12.9 55.5-39.6 55.5h-20.2c-13.2 0-22.7 3.6-22.7 16.8l96.3.1 16.5-.2c7.4-.2 9-3.5 9.9-10.9l1-8.3c28.4-21 89.2-31.9 89.2-95.7 0-17.2-6.8-33.8-19.1-46zM1247.1 600.3s3.2-31.3-25-55.7l-19.1 56.8 44.1-1.1z" class="st30"/><linearGradient id="SVGID_5_" x1="1359.8" x2="1574.1" y1="189.9" y2="561.2" gradientTransform="matrix(1 0 0 -1 0 1080)" gradientUnits="userSpaceOnUse"><stop offset="0" stop-color="#8f221b"/><stop offset=".1" stop-color="#972a22"/><stop offset=".3" stop-color="#ac3e36"/><stop offset=".5" stop-color="#cf6057"/><stop offset=".7" stop-color="#f08076"/><stop offset=".7" stop-color="#ef7f74"/><stop offset=".8" stop-color="#e16851"/><stop offset=".9" stop-color="#d75737"/><stop offset=".9" stop-color="#d14d27"/><stop offset="1" stop-color="#cf4a22"/></linearGradient><path fill="url(#SVGID_5_)" d="M1370.3 895.9c11.3-14.5 63.4-8.9 79.5-28.2 28.3-35.2 98.1-85.8-57.5-215.1-103-85.6-18.8-201.2 66.9-190.1 74.8 9.7 91.1 76.7 61 95 .6-46.7-69.6-47.2-69.3-.1.3 9.5 5.8 17.6 17.7 29.3 74 60.1 158.6 113.5 144.7 226-12.2 98.1-158.7 138-243 83.2z"/><path d="M1613.2 812.7c-9 73.2-92.8 113.9-169.8 107.2-7.4-3.1-14.4-6.9-21.2-11.3 11.3-14.5 63.4-8.9 79.5-28.2 28.3-35.2 98.1-85.8-57.5-215.1-97.5-81-27.3-189 53.2-190.8 27.8 15.3 39.3 41.1 36.6 60.7a30 30 0 01-13.8 22.3c.2-5.6-1-11.2-3.3-16.4-13.8-29.6-66.3-24.5-66.1 16.2.3 9.5 5.8 17.6 17.7 29.3 74.1 60.2 158.6 113.6 144.7 226.1z" class="st32"/><linearGradient id="SVGID_6_" x1="1156.1" x2="1463.7" y1="340.2" y2="340.2" gradientTransform="matrix(1 0 0 -1 0 1080)" gradientUnits="userSpaceOnUse"><stop offset="0" stop-color="#cf4a22"/><stop offset=".1" stop-color="#c44321"/><stop offset=".3" stop-color="#ad351e"/><stop offset=".5" stop-color="#9c2a1c"/><stop offset=".7" stop-color="#92241b"/><stop offset="1" stop-color="#8f221b"/></linearGradient><path fill="url(#SVGID_6_)" d="M1463.1 839.5c-10.1 70.4-71.6 107.5-142.1 97.8a62 62 0 01-4.2-.8c-52.1-13.8-38.9-132-97-210.1a149 149 0 00-12.6-14.8c-28.8-29.5-47.5-14.3-50.7-30.4-.6-3.6-.6-7.3-.3-10.9 5.2-69.8 54.7-81 77.9-81.2l38.4-48.4.4.8a86 86 0 017.8 65.8l-.5 1.6s7.5 5.4 14 18.5c10.8 21.8 8.3 35.7 16.3 36.7 122.9 15.8 158.7 133 152.6 175.4z"/><path d="M1381.4 855c-5.5 42.6-28.3 64.8-64.6 81.6-52.1-13.8-38.9-132-97-210.1A120.5 120.5 0 011381.4 855z" class="st34"/><path d="M1430.1 800.8a69.2 69.2 0 00-118 48.8v45.2c0 28.3-13.7 58.9-42 58.9h-21.5c-14 0-24.1 3.8-24.1 17.8l102.2.2c5.5 0 11.9-.1 17.5-.3 7.9-.2 9.5-3.7 10.5-11.5l1-8.8c30.2-22.2 94.6-33.8 94.6-101.5 0-18.3-7.3-35.9-20.2-48.8zM1327 712.6c-6.4-3.5-13.9-4-20.7-1.4h-.1c-2.5 1-4.8 2.3-6.8 4a104 104 0 00-34.9 35.9c-2.6-21.6-11.7-38-21.8-45.3s-27-7.2-29.5 1 13.3-2.8 21.1 14.3-8 43.4 15.7 56.4 77.6-12.5 86.8-31.2a24.8 24.8 0 00-9.8-33.7z" class="st32"/><path d="M1280.9 607.2a46.5 46.5 0 01-18.2-34.5c0-12.2 4-21.9 10.4-31.3a86 86 0 017.8 65.8z" class="st34"/><circle cx="1156.8" cy="677.7" r="4.2" fill="#061621"/><circle cx="1234.2" cy="672.1" r="19.5" fill="#ef8f9d" opacity=".8"/><path d="M1203.5 673.7s27.3-14.8 61.9 3.4M1205.8 678.9s29.4-6.8 61.5 20.2" class="st37"/><path fill="none" stroke="#061621" stroke-linecap="round" stroke-linejoin="round" stroke-width="5" d="M1208.7 639.4l-12.1 14.8 21.9-1.6"/></g><g id="Stars"><path id="Star" d="M1193.9 549.2l1.7 8.5c.8 4.2 3.3 7.5 6.4 8.6l6.3 2.2c.4.2.5.7.3 1.1l-.3.3-6.3 2.2c-3.1 1.1-5.5 4.4-6.4 8.6l-1.7 8.5c-.2.7-.9.7-1.1 0l-1.7-8.5c-.8-4.2-3.2-7.5-6.3-8.6l-6.3-2.2c-.4-.2-.5-.7-.3-1.1l.3-.3 6.3-2.2c3.1-1.1 5.5-4.4 6.4-8.6l1.7-8.5c.1-.7.9-.7 1 0z" class="st39"/><path id="Star-2" d="M1254.2 591.6l1.3 6.6c.6 3.3 2.5 5.8 5 6.7l4.9 1.7c.3.2.4.6.2.9l-.2.2-4.9 1.8c-2.4.8-4.3 3.4-5 6.7l-1.3 6.6c-.1.6-.7.6-.8 0l-1.3-6.6c-.6-3.3-2.5-5.8-5-6.7l-4.9-1.8a.7.7 0 01-.2-.9l.2-.2 4.9-1.8c2.4-.9 4.3-3.4 5-6.7l1.3-6.7c0-.4.7-.4.8.2z" class="st39"/><ellipse cx="1221.9" cy="588.1" fill="none" stroke="#f9fbfa" stroke-miterlimit="10" rx="57" ry="27.1" transform="rotate(-24.3 1221.8 588.1)"/></g><g id="Acorn"><ellipse cx="1042.4" cy="1008.2" class="st29" rx="51.8" ry="12.5"/><path fill="#cf4a22" d="M1064.2 985.7l-1 7.1c-.7 4.9-3.9 9-8.4 10.8l-6.6 2.8a28.3 28.3 0 01-27.9-3.7l-11.5-8.9a27.2 27.2 0 1133.4-43l11.5 8.9a28 28 0 0110.5 26z"/><path d="M990 955.6s10.1-.3 19 4.2l-16.8-17.2-2.2 13z" class="st32"/><path d="M1046.1 954.5a99.7 99.7 0 00-32.6 42v.1a7 7 0 01-9.2 3.8c-.6-.2-1.1-.6-1.6-.9l-3.8-3c-9.8-7.6-3.5-32 4.1-41.8 7.6-9.8 29.7-21.9 39.5-14.3l3.8 2.9a7 7 0 011.3 9.9l-1.5 1.3z" class="st24"/><path d="M1203 601.3v-11.6a83.8 83.8 0 10-167.6 0v337M1016.9 930.1c0-12.1-15-42.1-37.4-36.5M1048.9 934.1c0-20 11-33.2 26.1-26.6M1020.5 890.4V790" class="st42"/></g><g id="Rocks"><path d="M485.2 1081.9V882.4H256.6v199.5a15 15 0 00-.2 2.1c0 22.9 51.2 41.4 114.4 41.4s114.5-18.5 114.5-41.4l-.1-2.1z" class="st11"/><g opacity=".4"><defs><path id="SVGID_7_" d="M485.2 1081.9V882.4H256.6v199.5a15 15 0 00-.2 2.1c0 22.9 51.2 41.4 114.4 41.4s114.5-18.5 114.5-41.4l-.1-2.1z"/></defs><clipPath id="SVGID_8_"><use overflow="visible" xlink:href="#SVGID_7_"/></clipPath><g clip-path="url(#SVGID_8_)"><path d="M418.1 802.3l-86.9 83.2s-8.3 48.6-5.3 59.6-4.6 97.9-4.6 97.9l4.6 22s-4.6 68.7-4.6 78.3v41.9l177.1-40 32.5-80.6c-.1 0 29.1-230.9-112.8-262.3zM219.5 1177.8l86.9-83.2s8.3-48.6 5.3-59.6 4.6-97.9 4.6-97.9l-4.6-22s4.6-68.7 4.6-78.3V795l-177.1 40-32.5 80.6c.1-.1-29 230.8 112.8 262.2z" class="st10"/><path d="M355.5 1166.3l20.8-80.7-28.5-106.9L376.3 834M410.9 1218.3c15.3-65.5 17.2-60.5 0-123.5s-36.3-60.5-11.5-110.9 26.9-44.9 26.5-100.8M457.1 1088.5c15.3-65.5 17.2-60.5 0-123.5s-36.3-60.5-11.5-110.9 26.9-44.9 26.5-100.8" class="st45"/><ellipse cx="487.2" cy="963.5" class="st46" rx="16" ry="41.9"/><ellipse cx="457.9" cy="1105.1" class="st46" rx="19.4" ry="51"/><ellipse cx="289.9" cy="909.7" class="st46" rx="19.4" ry="51"/></g></g><ellipse cx="371" cy="882.4" class="st10" rx="114.5" ry="41.4"/><ellipse cx="371" cy="881.1" class="st12" rx="94.1" ry="29"/><ellipse cx="371" cy="881.1" fill="#ffdd49" rx="52.3" ry="17.7"/><path d="M415.1 844.2L371 881.1l71.7-30.9zM356.7 841l3.4 22.8 3.5-22.7z" class="st48"/><path fill="#42210b" d="M270.7 902.4l82.3-17.6-63.1 26.8z" opacity=".3"/><path d="M1610.5 1052.8a44.4 44.4 0 00-42.1 5.4 57.6 57.6 0 00-22.6 45h-16.4c-1.4-12 .5-24.2 5.6-35.2a48.7 48.7 0 0135.7-28.2 47.9 47.9 0 0139.8 13z" class="st13"/><path d="M1604 1066.2a42.3 42.3 0 00-54.7 37h-13.8a42.3 42.3 0 0132.8-45l2.7-.5a42.4 42.4 0 0133 8.5z" class="st9"/><path d="M1539.2 1103.2h-16.3c1.6-5 2-7 1.1-12.9a39 39 0 00-43.8-32.6 39.1 39.1 0 0154.4 9.7l.4.6a39.2 39.2 0 014.2 35.2z" class="st9"/><path d="M-20.2 970.7L56.6 898l140.3 7.8 55.5 50.2 56.4 73.9v72.5H-13.7zM1980.6 898l-115.3-72.4-65 36.2-95.5 47-114.7 50.4-35.1 66.8v126h425.6z" class="st50"/><defs><path id="SVGID_9_" d="M1980.6 898l-115.3-72.4-65 36.2-95.5 47-114.7 50.4-35.1 66.8v126h425.6z"/></defs><clipPath id="SVGID_10_"><use overflow="visible" xlink:href="#SVGID_9_"/></clipPath><g clip-path="url(#SVGID_10_)"><path d="M1606.5 1188.3l5.2-137.8 27.4-39.7 53.2-22 26.7 44.9-56.2 68.7zM1847.1 1000.2l-22.8-67.7-24 33.8-18.1 33.9 41.5 22zM1726.7 1102.4l69-61.1 77.7 9.2 1.8 38.1z" class="st39"/><path d="M1555 926.8c9.4 1.9 223.4 0 223.4 0l-31.1 42-122.6 9.5-100.3 72.1 30.6-123.6z" class="st39"/><circle cx="1847.2" cy="948.9" r="34.2" class="st39"/><circle cx="1721.6" cy="1060.6" r="11.6" class="st39"/><g class="st52"><circle cx="1840.8" cy="1059.1" r="60.9" class="st53"/><circle cx="1736.2" cy="923.8" r="60.9" class="st53"/><circle cx="1823.7" cy="846.6" r="34.2" class="st53"/><circle cx="1619.9" cy="1060.6" r="34.2" class="st53"/><circle cx="1638.6" cy="944.6" r="23.3" class="st53"/><circle cx="1906" cy="908" r="11.6" class="st53"/><circle cx="1770.2" cy="1003.3" r="11.6" class="st53"/></g><circle cx="1747.3" cy="980.2" r="23.3" class="st39"/><circle cx="1782.2" cy="869.5" r="23.3" class="st39"/><circle cx="1578.1" cy="1077.5" r="23.3" class="st39"/><g class="st5"><circle cx="1605.5" cy="1003.3" r="11.6" class="st54"/><circle cx="1879.2" cy="870.6" r="11.6" class="st54"/><circle cx="1800.3" cy="912.9" r="11.6" class="st54"/><circle cx="1704.3" cy="950.4" r="5.8" class="st54"/><circle cx="1704.3" cy="991.6" r="5.8" class="st54"/><circle cx="1849.8" cy="1018.4" r="5.8" class="st54"/><circle cx="1872.5" cy="926.8" r="5.8" class="st54"/><circle cx="1651.1" cy="1034" r="5.8" class="st54"/><circle cx="1732.4" cy="1054.7" r="11.6" class="st54"/><circle cx="1894.8" cy="978.3" r="11.6" class="st54"/></g></g><path d="M1865.3 825.6l5.1 80.2L1906 942l74.6-44zM1590.1 959.2l120.1 32.4L1555 1026l35.1-66.8M1726.8 898l57.4 44-79.4-33.2zM1744 1084.5l41.2-74 61.4 18.7 35.8-21 58.3 2.1v80.8z" class="st53"/><defs><path id="SVGID_11_" d="M-20.2 970.7L56.6 898l140.3 7.8 55.5 50.2 56.4 73.9v72.5H-13.7z"/></defs><clipPath id="SVGID_12_"><use overflow="visible" xlink:href="#SVGID_11_"/></clipPath><g clip-path="url(#SVGID_12_)"><path d="M-52.9 980.8l108-56.1 42.4 3.7 40 31.2-22.7 40.1-77.3-13.2zM116.1 1116.6l-118.4-28.1-29.7-30.6-9.8-49.7 43.4-15.5 49.8 60.5zM196.3 1083.3l41.9-47-36.4-3.7-33.9.9 1.3 41.4zM65.4 1035.5l76.9 26.3 26.9 63.6-28.4 18z" class="st39"/><path d="M125.3 827.3c2.6 8 97.3 171.3 97.3 171.3l-45.7-5.5-60.8-89.9L17 857.7l108.3-30.4z" class="st39"/><circle cx="235.6" cy="1061" r="30.2" class="st39"/><circle cx="95.2" cy="1013.4" r="10.3" class="st39"/><g class="st52"><circle cx="148.4" cy="1104.1" r="53.8" class="st53"/><circle cx="206.5" cy="965" r="53.8" class="st53"/><circle cx="303.9" cy="998.4" r="30.2" class="st53"/><circle cx="3" cy="1025.7" r="30.2" class="st53" transform="matrix(1 -.00955 .00955 1 -9.8 0)"/><circle cx="50.9" cy="935.4" r="30.2" class="st53" transform="rotate(-1.1 51 935.4)"/><circle cx="148" cy="899.2" r="20.5" class="st53"/><circle cx="292.7" cy="1088.3" r="10.3" class="st53"/><circle cx="160.4" cy="1025.7" r="10.3" class="st53"/><circle cx="59.7" cy="1058.5" r="10.3" class="st53"/></g><circle cx="168.1" cy="998.1" r="20.5" class="st39"/><circle cx="51.8" cy="976.4" r="20.5" class="st39" transform="rotate(-1.7 51.9 976.4) scale(1.00003)"/><circle cx="268.2" cy="976.5" r="20.5" class="st39" transform="scale(1.00002) rotate(-85.9 268.2 976.5)"/><circle cx="19.7" cy="910.8" r="20.5" class="st39" transform="rotate(-.8 19.8 910.7) scale(.99999)"/><g class="st5"><circle cx="88.6" cy="899.3" r="10.3" class="st54"/><circle cx="309.6" cy="1051.5" r="10.3" class="st54"/><circle cx="242.8" cy="1009.3" r="10.3" class="st54"/><circle cx="172.2" cy="952.1" r="5.1" class="st54"/><circle cx="140.6" cy="970.1" r="5.1" class="st54"/><circle cx="263.6" cy="1070.8" r="5.1" class="st54"/><circle cx="84.9" cy="947.8" r="5.1" class="st54"/><circle cx="104.5" cy="1019.1" r="10.3" class="st54"/></g></g><path d="M196.9 905.8l-20.2 43.8 33.2-10.8 42.5 17.2zM3 1025.7l62.3-14.9 27.7 31.9 44.7 4.3-2.9 43.3H-28.3zM308.8 1029.9l-31.9-3.9-29-7.7-29.5 40.2 58.5-3.8 31.9 16.5zM56.6 898l13.1 68.3-89.9 4.4z" class="st53"/><path d="M560.1 1040.1a44.4 44.4 0 00-42.1 5.4 57.6 57.6 0 00-22.6 45H479c-1.4-12 .5-24.2 5.6-35.2a48.7 48.7 0 0135.7-28.2 47.5 47.5 0 0139.8 13z" class="st13"/><path d="M553.7 1053.5a42.4 42.4 0 00-54.7 36.9h-13.8a42.3 42.3 0 0132.8-45l2.7-.5a42.8 42.8 0 0133 8.6z" class="st9"/><path d="M488.8 1090.4h-16.3c1.6-5 2-7 1.1-12.9a39 39 0 00-43.8-32.5 39 39 0 0154.3 9.6l.5.7a39.2 39.2 0 014.2 35.1z" class="st9"/><path d="M378.9 846.2l-18.7 48.1c-.6 2-2.5 3.4-4.6 3.4H349" class="st56"/><path d="M409.1 886l-.7-1.3-8.9-13.6-16.7-25.4a4.4 4.4 0 00-5.7-2.5 4.4 4.4 0 00-2.5 5.7l11.5 27.2 6.2 14.7.4 1.4A8.7 8.7 0 00404 897a8.6 8.6 0 005.1-11z" class="st13"/><ellipse cx="406.8" cy="901.6" fill="#86681d" opacity=".4" rx="46.1" ry="8.5"/><path d="M476.6 859.3l-9.3 13.9.8-24.6M435.4 890.3l15.7 5.1 1.2 7.1h7.4" class="st56"/><linearGradient id="SVGID_13_" x1="360" x2="454.7" y1="192" y2="192" gradientTransform="matrix(1 0 0 -1 0 1080)" gradientUnits="userSpaceOnUse"><stop offset="0" stop-color="#fef2c8"/><stop offset=".1" stop-color="#f9f1c6"/><stop offset=".2" stop-color="#e9efbf"/><stop offset=".4" stop-color="#cfecb3"/><stop offset=".5" stop-color="#ace7a3"/><stop offset=".7" stop-color="#7de08f"/><stop offset=".8" stop-color="#46d876"/><stop offset="1" stop-color="#0ad05b"/></linearGradient><path fill="url(#SVGID_13_)" d="M454.7 873.2a25.8 25.8 0 01-15.1 19.3l-13.9 6.1a80 80 0 01-53.1-.9c-1.6-.5-12.6-8-12.6-8-.3-3 94.7-16.5 94.7-16.5z"/><linearGradient id="SVGID_14_" x1="359.2" x2="434.3" y1="192.7" y2="192.7" gradientTransform="matrix(1 0 0 -1 0 1080)" gradientUnits="userSpaceOnUse"><stop offset="0" stop-color="#fef2c8"/><stop offset=".1" stop-color="#f9f0c5"/><stop offset=".2" stop-color="#eaecbe"/><stop offset=".4" stop-color="#d1e4b1"/><stop offset=".5" stop-color="#aed9a0"/><stop offset=".7" stop-color="#81cc89"/><stop offset=".8" stop-color="#4bbb6e"/><stop offset="1" stop-color="#13aa52"/></linearGradient><path fill="url(#SVGID_14_)" d="M363.4 885.4a4.8 4.8 0 00-4.2 5.3 4.7 4.7 0 004.5 4.2l14.9 1.8c15.8 1 16.1.9 31.2-3.6l23.6-7c4.9-1.5-11.7-8.7-11.7-8.7l-58.3 8z"/><path d="M454.7 873.2l-.3 8.8c-.1 3.4-1.9 6.5-4.7 8.4l-1.9-16.3 6.9-.9z" class="st4"/><path d="M449.7 890.4c-1.4.9-3 1.5-4.6 1.7l-2.1.2h-.2l-2-17.3 7-.9 1.9 16.3z" class="st13"/><path d="M442.8 892.3a11 11 0 01-7.4-2.1l-1.6-14.4 7-.9 2 17.4z" class="st4"/><path d="M435.4 890.3a9 9 0 01-2.6-2.9l-1.6-2.7a4.4 4.4 0 00-4.2-2.1l-.9.1a4 4 0 01-4.4-3.5v-1.8l12.1-1.5 1.6 14.4z" class="st13"/><path d="M465.1 868.9a7.9 7.9 0 00-11.9 5.6l-.1.6c-.1.9.4 8.4.4 10.9s7.4 6.2 7.8 5.8c1.1-.9 3.2-5.5 4.2-7.4a36 36 0 002.9-6.3 8 8 0 00-3.3-9.2z" class="st9"/><circle cx="462.4" cy="875.1" r="2.9" class="st7"/><path d="M387.6 850.9L369 899c-.6 2-2.5 3.4-4.6 3.4h-6.6" class="st56"/><path d="M409.8 893.1L396.7 882l-1.3-1.1-.4-.3-11.5-27.2c-.9-2.3.3-4.8 2.5-5.7 2.3-.9 4.8.3 5.7 2.5l16.7 25.4.3 3.5.1.9 1 13.1z" class="st9"/><path d="M412.9 901.9a8.6 8.6 0 01-11.6-6.4l-6.3-14.8.4.3 1.3 1.1 13.1 11.1-1-13-.1-.9-.3-3.5 8.9 13.6a8.6 8.6 0 01-2.9 11.9l-1.5.6z" class="st4"/></g></g></svg>