<svg width="40" height="39" viewBox="0 0 40 39" fill="none" xmlns="http://www.w3.org/2000/svg">
<g clip-path="url(#clip0_609_35579)">
<path d="M34.217 5.23394C34.217 5.77694 33.767 6.22295 33.213 6.22295C32.659 6.22295 32.209 5.77694 32.209 5.23394C32.209 4.68694 32.658 4.24194 33.213 4.24194C33.768 4.24194 34.217 4.68694 34.217 5.23394Z" fill="#E3FCF7"/>
<path d="M7.642 -0.238045C7.189 0.0779546 6.564 -0.0310439 6.244 -0.477044C5.924 -0.923044 6.033 -1.53904 6.486 -1.85604C6.939 -2.17304 7.564 -2.06605 7.885 -1.61705C7.96091 -1.51101 8.0149 -1.39089 8.0438 -1.26373C8.0727 -1.13656 8.07593 -1.00491 8.0533 -0.876477C8.03067 -0.748048 7.98263 -0.625425 7.91201 -0.515797C7.84138 -0.40617 7.74958 -0.311743 7.642 -0.238045Z" fill="#E3FCF7"/>
<path d="M18.3651 30.5739H21.6437C22.0878 30.5739 22.4484 30.9345 22.4484 31.3786V33.4417C22.4484 34.557 21.5429 35.4624 20.4276 35.4624H19.5806C18.4653 35.4624 17.5598 34.557 17.5598 33.4417V31.3786C17.5598 30.9345 17.9205 30.5739 18.3645 30.5739H18.3651Z" fill="#4C2100"/>
<path d="M31.7824 30.7518L26.372 23.8779H13.6499L8.1655 30.753C7.73071 31.4116 8.20338 32.2893 8.99253 32.2893H30.9559C31.7456 32.2893 32.2183 31.4104 31.7824 30.7518Z" fill="#00A35C"/>
<path d="M28.5727 22.8836L24.1671 16.6852H15.7598L11.3274 22.8853C10.8926 23.5439 11.3652 24.4216 12.1544 24.4216H27.7463C28.536 24.4216 29.0087 23.5427 28.5727 22.8841V22.8836Z" fill="#00A35C"/>
<path d="M25.975 15.6903L20.3699 7.22352C20.1724 6.92511 19.7347 6.92569 19.5371 7.2241L13.9507 15.6915C13.5159 16.3501 13.9885 17.2278 14.7777 17.2278H25.148C25.9377 17.2278 26.4104 16.3489 25.9744 15.6903H25.975Z" fill="#00A35C"/>
<path d="M23.4804 11.9972L23.5887 12.0057C23.5918 11.9655 23.5725 11.9269 23.5385 11.9054C23.5045 11.8839 23.4613 11.8829 23.4264 11.9029L23.4804 11.9972ZM28.3147 24.0557L28.2488 24.142C28.2933 24.176 28.3564 24.1706 28.3944 24.1295C28.4325 24.0883 28.433 24.025 28.3956 23.9833L28.3147 24.0557ZM18.0486 25.4679L17.9414 25.4508C17.935 25.4904 17.951 25.5303 17.983 25.5545C18.015 25.5787 18.0577 25.5834 18.0941 25.5666L18.0486 25.4679ZM15.3328 17.2117L15.3253 17.1033C15.2684 17.1072 15.2242 17.1544 15.2241 17.2114C15.224 17.2685 15.268 17.3159 15.3249 17.32L15.3328 17.2117ZM18.5915 15.9624L18.5173 15.883L18.5173 15.883L18.5915 15.9624ZM20.2757 14.3005L20.203 14.2198L20.203 14.2198L20.2757 14.3005ZM27.0282 22.4805L27.1155 22.4158L27.1155 22.4158L27.0282 22.4805ZM17.7146 19.656L17.611 19.6886L17.7146 19.656ZM21.4861 19.6606C21.5111 19.0766 21.4994 18.471 21.5084 17.8612C21.5174 17.2481 21.5472 16.6222 21.6543 15.9802L21.44 15.9445C21.3302 16.6022 21.3002 17.2406 21.2911 17.8581C21.282 18.4789 21.2939 19.0703 21.269 19.6513L21.4861 19.6606ZM23.9855 16.5927C24.319 17.644 24.7433 18.7093 25.2123 19.7024L25.4088 19.6096C24.9436 18.6247 24.5229 17.5684 24.1926 16.527L23.9855 16.5927ZM18.6657 16.0417C18.907 15.816 19.1479 15.5622 19.4164 15.2863C19.6857 15.0096 19.9853 14.7078 20.3483 14.3813L20.203 14.2198C19.8347 14.5511 19.5312 14.8568 19.2606 15.1348C18.9893 15.4137 18.7537 15.6619 18.5173 15.883L18.6657 16.0417ZM21.6543 15.9802C21.7728 15.2694 21.9863 14.5384 22.3719 13.7848L22.1784 13.6859C21.7813 14.4621 21.5616 15.215 21.44 15.9445L21.6543 15.9802ZM22.3719 13.7848C22.6389 13.263 23.0987 12.6183 23.5634 12.0672L23.3974 11.9272C22.9268 12.4851 22.4558 13.1439 22.1784 13.6859L22.3719 13.7848ZM23.3721 11.9887C23.3215 12.6365 23.2696 13.5048 23.4136 14.3194L23.6276 14.2816C23.4888 13.4969 23.5381 12.6533 23.5887 12.0057L23.3721 11.9887ZM23.4136 14.3194C23.5423 15.047 23.7392 15.8165 23.9855 16.5927L24.1926 16.527C23.9486 15.758 23.7543 14.998 23.6276 14.2816L23.4136 14.3194ZM20.3483 14.3813C20.6594 14.1014 21.0174 13.8031 21.4424 13.487L21.3128 13.3127C20.8819 13.633 20.5188 13.9357 20.203 14.2198L20.3483 14.3813ZM21.4424 13.487C21.9837 13.0846 22.7392 12.547 23.5344 12.0915L23.4264 11.9029C22.6201 12.3649 21.8565 12.9084 21.3128 13.3127L21.4424 13.487ZM22.3838 13.7333C22.3812 13.598 22.3242 13.4075 22.15 13.2925C21.9734 13.1757 21.7091 13.1579 21.3391 13.2983L21.4161 13.5014C21.7538 13.3734 21.9361 13.4115 22.0302 13.4737C22.1269 13.5376 22.1648 13.6491 22.1665 13.7374L22.3838 13.7333ZM15.3402 17.3201C16.3256 17.2526 17.0073 17.0881 17.5522 16.8285L17.4588 16.6324C16.9466 16.8763 16.2942 17.0369 15.3253 17.1033L15.3402 17.3201ZM17.5522 16.8285C17.9866 16.6216 18.3288 16.3568 18.6657 16.0417L18.5173 15.883C18.1904 16.1888 17.8664 16.4382 17.4588 16.6324L17.5522 16.8285ZM18.1242 25.546C18.3831 25.2956 18.7224 24.8389 19.0637 24.3435C19.4067 23.8458 19.758 23.2997 20.0408 22.8657L19.8587 22.7471C19.5749 23.1827 19.2257 23.7255 18.8848 24.2203C18.5423 24.7173 18.2143 25.1566 17.9731 25.3899L18.1242 25.546ZM20.0408 22.8657C20.4731 22.2021 20.8243 21.6194 21.0721 21.0955C21.3198 20.5719 21.4673 20.1006 21.4861 19.6606L21.269 19.6513C21.2519 20.0508 21.1171 20.4921 20.8757 21.0026C20.6344 21.5128 20.2897 22.0856 19.8587 22.7471L20.0408 22.8657ZM25.2123 19.7024C25.709 20.7542 26.3284 21.7188 26.9409 22.5452L27.1155 22.4158C26.509 21.5976 25.8979 20.6454 25.4088 19.6096L25.2123 19.7024ZM26.9409 22.5452C27.3922 23.154 27.8402 23.6884 28.2337 24.1281L28.3956 23.9833C28.0058 23.5475 27.5621 23.0183 27.1155 22.4158L26.9409 22.5452ZM18.1559 25.4851C18.3712 24.1393 18.4287 21.5625 17.8182 19.6233L17.611 19.6886C18.2081 21.5851 18.1534 24.1255 17.9414 25.4508L18.1559 25.4851ZM17.8182 19.6233C17.3954 18.2802 16.6353 17.1975 15.3406 17.1033L15.3249 17.32C16.4793 17.404 17.195 18.3673 17.611 19.6886L17.8182 19.6233ZM21.4693 19.5978C21.3298 19.3777 21.2313 19.1131 21.1501 18.8322C21.068 18.5485 21.0077 18.2641 20.9367 17.9892C20.8675 17.7209 20.7888 17.4653 20.6721 17.2686C20.5534 17.0684 20.3882 16.9179 20.1459 16.8841L20.1158 17.0992C20.2719 17.1211 20.3878 17.2151 20.4853 17.3794C20.5848 17.5472 20.6573 17.776 20.7264 18.0435C20.7937 18.3043 20.8587 18.6068 20.9414 18.8926C21.0248 19.1812 21.1301 19.4685 21.2858 19.7141L21.4693 19.5978ZM20.2384 16.9759C20.1709 16.5149 19.9663 16.2203 19.6616 16.0498C19.3649 15.8836 18.9875 15.8435 18.5887 15.8538L18.5943 16.071C18.982 16.061 19.3109 16.1024 19.5555 16.2394C19.7922 16.3719 19.9641 16.6021 20.0234 17.0074L20.2384 16.9759ZM20.232 17.0314C20.5231 16.2899 20.615 15.9155 21.0766 15.0921L20.887 14.9859C20.4159 15.8264 20.3158 16.2234 20.0298 16.952L20.232 17.0314ZM21.0766 15.0921C21.5709 14.2102 22.4525 12.8927 23.545 12.0845L23.4158 11.9099C22.2857 12.7458 21.3859 14.0959 20.887 14.9859L21.0766 15.0921ZM21.6551 15.9744C21.6768 15.7799 21.6789 15.5011 21.5936 15.2795C21.5503 15.167 21.4812 15.0608 21.3723 14.9924C21.2616 14.9228 21.1237 14.9011 20.9613 14.9323L21.0023 15.1457C21.1225 15.1225 21.2019 15.1419 21.2567 15.1764C21.3134 15.212 21.3582 15.2728 21.3908 15.3576C21.4574 15.5305 21.4595 15.7678 21.4391 15.9503L21.6551 15.9744ZM21.0898 15.027C21.0611 14.7695 20.9828 14.553 20.8432 14.4032C20.7001 14.2497 20.504 14.1782 20.2693 14.1921L20.2821 14.409C20.4616 14.3984 20.5914 14.4517 20.6842 14.5513C20.7805 14.6546 20.8481 14.8196 20.8738 15.051L21.0898 15.027ZM17.7422 19.761C18.3106 19.6118 18.7396 19.3606 19.0811 19.0299L18.9299 18.8738C18.6165 19.1774 18.221 19.4107 17.687 19.5509L17.7422 19.761ZM19.0811 19.0299C19.6143 18.5134 19.9265 17.8096 20.232 17.0314L20.0298 16.952C19.7236 17.7319 19.4255 18.3939 18.9299 18.8738L19.0811 19.0299ZM17.4937 16.8384C18.3553 16.9327 19.1248 17.7437 18.8988 18.9316L19.1122 18.9722C19.3624 17.6573 18.5024 16.7302 17.5173 16.6224L17.4937 16.8384ZM18.9406 19.039C19.3686 19.3581 19.461 19.8707 19.5072 20.5491C19.5526 21.2151 19.5528 22.023 19.8475 22.8431L20.052 22.7696C19.7703 21.9859 19.7706 21.2186 19.724 20.5343C19.6782 19.8624 19.5867 19.2497 19.0704 18.8648L18.9406 19.039ZM28.3806 23.9693C27.2376 23.0971 25.4444 23.059 23.4584 23.4696L23.5024 23.6823C25.4786 23.2738 27.1864 23.3313 28.2488 24.142L28.3806 23.9693ZM23.4584 23.4696C21.7199 23.829 19.8089 24.5374 18.0032 25.3693L18.0941 25.5666C19.8913 24.7387 21.7859 24.0372 23.5024 23.6823L23.4584 23.4696ZM23.0679 13.8033C23.1774 13.1073 23.3432 12.5064 23.5772 12.0465L23.3836 11.9479C23.1351 12.4363 22.9646 13.0621 22.8532 13.7695L23.0679 13.8033ZM22.3169 13.8356C22.3375 13.8271 22.3603 13.816 22.3816 13.8056C22.4038 13.7948 22.4264 13.7838 22.4504 13.7731C22.4985 13.7517 22.5477 13.7337 22.5966 13.7257C22.6447 13.7178 22.69 13.7198 22.733 13.736C22.7755 13.752 22.8238 13.7848 22.8735 13.8514L23.0476 13.7215C22.977 13.6267 22.8966 13.5654 22.8094 13.5326C22.7227 13.5 22.6374 13.4988 22.5613 13.5113C22.4861 13.5237 22.4176 13.5499 22.362 13.5746C22.3341 13.5871 22.3083 13.5997 22.2865 13.6102C22.2638 13.6213 22.247 13.6294 22.2334 13.6351L22.3169 13.8356ZM23.0113 13.8825C23.0672 13.853 23.0959 13.8574 23.1122 13.8635C23.1343 13.8719 23.1624 13.8946 23.1977 13.9456C23.2326 13.9959 23.2652 14.0597 23.3034 14.1346C23.3401 14.2067 23.3814 14.2881 23.4304 14.3611L23.6108 14.24C23.5704 14.1798 23.5348 14.1104 23.497 14.0361C23.4607 13.9647 23.4212 13.8867 23.3763 13.8218C23.3318 13.7576 23.2723 13.6918 23.1889 13.6603C23.0998 13.6266 23.0052 13.64 22.9099 13.6903L23.0113 13.8825ZM22.9051 15.6688C22.9265 15.0048 22.9781 14.3738 23.0679 13.8033L22.8532 13.7695C22.7617 14.3512 22.7095 14.9915 22.6879 15.6617L22.9051 15.6688ZM21.614 16.048C21.682 15.9948 21.7651 15.907 21.843 15.8318C21.9262 15.7515 22.0138 15.6745 22.1072 15.6206C22.1996 15.5673 22.2914 15.5403 22.3854 15.551C22.4789 15.5616 22.5904 15.6113 22.7192 15.7416L22.8737 15.5889C22.7199 15.4332 22.5649 15.3528 22.4099 15.3351C22.2555 15.3176 22.1169 15.3642 21.9986 15.4324C21.8813 15.5001 21.7781 15.5925 21.6922 15.6755C21.6009 15.7635 21.5364 15.8329 21.4802 15.8768L21.614 16.048ZM22.8636 15.7507C22.9759 15.6625 23.0728 15.6389 23.1584 15.6487C23.2473 15.659 23.3408 15.7075 23.4393 15.7957C23.6386 15.9742 23.8238 16.2834 23.9925 16.6098L24.1855 16.51C24.0172 16.1845 23.8166 15.8419 23.5842 15.6338C23.4668 15.5287 23.3329 15.4502 23.1833 15.4329C23.0303 15.4152 22.8776 15.4635 22.7294 15.5798L22.8636 15.7507ZM22.9947 18.9273C22.9122 17.835 22.8714 16.7126 22.9051 15.6688L22.6879 15.6617C22.6539 16.7156 22.6951 17.8462 22.778 18.9436L22.9947 18.9273ZM21.4496 19.7373C21.5365 19.6603 21.6263 19.5404 21.7143 19.4279C21.8063 19.3105 21.903 19.192 22.0124 19.0969C22.1213 19.0024 22.2369 18.9364 22.3654 18.9167C22.4921 18.8972 22.6445 18.9208 22.8318 19.0294L22.9408 18.8415C22.719 18.7129 22.517 18.6736 22.3325 18.7019C22.1497 18.7299 21.9973 18.8223 21.8699 18.9329C21.7432 19.043 21.6353 19.1765 21.5433 19.2939C21.4473 19.4165 21.3734 19.5145 21.3055 19.5747L21.4496 19.7373ZM22.9359 19.0321C23.4831 18.7515 23.8462 18.7569 24.1689 18.9016C24.3357 18.9764 24.4973 19.091 24.6718 19.236C24.8478 19.3824 25.0271 19.551 25.2387 19.7375L25.3823 19.5745C25.1785 19.3948 24.9893 19.2175 24.8106 19.069C24.6304 18.9191 24.4511 18.79 24.2578 18.7034C23.8604 18.5251 23.4268 18.5362 22.8368 18.8388L22.9359 19.0321ZM23.5872 23.5561C23.4717 22.9339 23.3458 22.1435 23.2334 21.2629L23.0178 21.2905C23.1308 22.1748 23.2572 22.9693 23.3736 23.5958L23.5872 23.5561ZM23.2334 21.2629C23.1399 20.5314 23.0559 19.7379 22.9947 18.9273L22.778 18.9436C22.8395 19.7585 22.924 20.5557 23.0178 21.2905L23.2334 21.2629ZM20.0268 22.883C20.3372 22.5707 20.7711 22.0425 21.307 21.6624C21.8384 21.2855 22.4392 21.0775 23.0798 21.3752L23.1714 21.1782C22.4286 20.8329 21.7418 21.0876 21.1813 21.4852C20.6252 21.8797 20.1629 22.4379 19.8727 22.7298L20.0268 22.883ZM23.2053 21.3505C23.613 20.9106 24.2463 20.85 24.9443 21.0884C25.6408 21.3264 26.3759 21.8561 26.9442 22.5494L27.1122 22.4116C26.5227 21.6926 25.7555 21.136 25.0146 20.8828C24.2753 20.6303 23.5362 20.6739 23.0459 21.2029L23.2053 21.3505ZM22.7783 18.9465L23.0175 21.2877L23.2337 21.2657L22.9944 18.9244L22.7783 18.9465Z" fill="white"/>
<path fill-rule="evenodd" clip-rule="evenodd" d="M20.4785 22.0204C20.5611 21.9836 20.6283 21.9131 20.658 21.8202C20.7134 21.6473 20.6181 21.4621 20.4451 21.4067C20.2721 21.3513 20.087 21.4466 20.0316 21.6196C20.0019 21.7125 20.0156 21.8089 20.0614 21.8869C20 21.9097 19.9391 21.9474 19.8817 21.9974L19.757 21.8096C19.7372 21.7798 19.7004 21.7662 19.6659 21.776L19.3809 21.8574C19.3372 21.8699 19.3119 21.9154 19.3244 21.959C19.3368 22.0027 19.3823 22.028 19.426 22.0155L19.6533 21.9507L19.7664 22.121C19.7398 22.1555 19.7146 22.193 19.6913 22.233L19.5507 22.1197C19.5228 22.0973 19.4836 22.0954 19.4537 22.1152L19.2065 22.2789C19.1687 22.3039 19.1583 22.3549 19.1834 22.3928C19.2084 22.4307 19.2594 22.441 19.2973 22.416L19.4944 22.2855L19.6174 22.3846C19.6063 22.4123 19.596 22.4408 19.5866 22.47C19.5743 22.5085 19.564 22.547 19.5557 22.5851L19.3727 22.5032C19.3401 22.4886 19.3017 22.4968 19.2778 22.5235L19.0804 22.7446C19.0501 22.7785 19.0531 22.8305 19.0869 22.8607C19.1208 22.891 19.1728 22.888 19.203 22.8542L19.3604 22.6779L19.5317 22.7545C19.5266 22.8341 19.5305 22.9102 19.5428 22.9802L19.379 22.9756C19.3432 22.9747 19.3109 22.9969 19.2991 23.0307L19.2014 23.3107C19.1865 23.3535 19.2091 23.4004 19.252 23.4154C19.2949 23.4303 19.3418 23.4077 19.3567 23.3648L19.4346 23.1417L19.5929 23.1461C19.6421 23.2539 19.7187 23.3325 19.8182 23.3643C19.9162 23.3957 20.0225 23.3773 20.1239 23.3201L20.244 23.4009L20.1777 23.6278C20.165 23.6714 20.19 23.717 20.2336 23.7298C20.2772 23.7425 20.3229 23.7175 20.3356 23.6739L20.4187 23.3893C20.4288 23.355 20.4154 23.318 20.3857 23.2981L20.2621 23.2149C20.3145 23.164 20.3634 23.1027 20.4066 23.0327L20.5738 23.0665L20.5995 23.3014C20.6045 23.3465 20.645 23.3791 20.6902 23.3742C20.7353 23.3692 20.7679 23.3286 20.763 23.2835L20.7307 22.9888C20.7268 22.9532 20.7004 22.9242 20.6653 22.9172L20.4853 22.8808C20.5004 22.8455 20.5141 22.8088 20.5263 22.7709C20.5363 22.7397 20.5449 22.7085 20.5522 22.6775L20.6927 22.6693L20.7773 22.89C20.7936 22.9324 20.8411 22.9536 20.8835 22.9373C20.9259 22.921 20.9471 22.8735 20.9309 22.8311L20.8247 22.5543C20.8119 22.5209 20.7789 22.4996 20.7432 22.5016L20.5792 22.5112C20.5834 22.4633 20.5844 22.4166 20.5822 22.3716L20.7579 22.3044L20.9052 22.4893C20.9335 22.5248 20.9853 22.5306 21.0208 22.5023C21.0563 22.474 21.0621 22.4223 21.0338 22.3868L20.8491 22.1549C20.8268 22.1269 20.7889 22.1166 20.7554 22.1294L20.5581 22.2047C20.5404 22.1347 20.5136 22.0723 20.4785 22.0204Z" fill="black"/>
<path fill-rule="evenodd" clip-rule="evenodd" d="M23.1468 13.9122C23.1978 13.9211 23.2521 13.9091 23.2959 13.8746C23.3775 13.8102 23.3914 13.692 23.3271 13.6105C23.2627 13.5289 23.1445 13.515 23.0629 13.5793C23.0192 13.6139 22.9949 13.664 22.9917 13.7156C22.9553 13.7068 22.9144 13.7052 22.8712 13.7106L22.872 13.5817C22.8722 13.5612 22.859 13.543 22.8396 13.5367L22.6784 13.4842C22.6537 13.4762 22.6272 13.4897 22.6191 13.5144C22.6111 13.539 22.6246 13.5656 22.6493 13.5736L22.7778 13.6154L22.777 13.7324C22.7533 13.7402 22.7295 13.75 22.7056 13.7615L22.6751 13.6629C22.6691 13.6433 22.6511 13.6299 22.6306 13.6297L22.4611 13.6284C22.4351 13.6282 22.4139 13.649 22.4137 13.675C22.4135 13.701 22.4344 13.7222 22.4603 13.7224L22.5954 13.7235L22.6221 13.8098C22.608 13.8193 22.594 13.8296 22.5803 13.8404C22.5621 13.8548 22.5449 13.8697 22.5288 13.8852L22.4682 13.7879C22.4574 13.7705 22.4366 13.7621 22.4167 13.7672L22.2524 13.809C22.2273 13.8154 22.2121 13.8409 22.2185 13.8661C22.2249 13.8913 22.2505 13.9065 22.2756 13.9001L22.4066 13.8668L22.4633 13.9579C22.4355 13.9939 22.413 14.0313 22.3965 14.0684L22.3203 14.0139C22.3036 14.002 22.2812 14.0023 22.2648 14.0145L22.129 14.1161C22.1082 14.1316 22.104 14.1611 22.1196 14.1819C22.1351 14.2027 22.1646 14.2069 22.1854 14.1913L22.2936 14.1104L22.3673 14.163C22.3561 14.2299 22.3674 14.2916 22.4044 14.3385C22.4408 14.3847 22.4971 14.41 22.5635 14.4152L22.5946 14.4919L22.4907 14.5783C22.4708 14.5949 22.468 14.6246 22.4846 14.6445C22.5012 14.6645 22.5309 14.6672 22.5509 14.6506L22.6812 14.5422C22.6969 14.5291 22.7024 14.5074 22.6947 14.4884L22.6626 14.4095C22.7037 14.4021 22.7465 14.3886 22.7893 14.3693L22.8578 14.4387L22.795 14.5583C22.7829 14.5813 22.7918 14.6097 22.8147 14.6218C22.8377 14.6339 22.8662 14.625 22.8782 14.602L22.9571 14.452C22.9666 14.4338 22.9633 14.4116 22.9489 14.3971L22.8751 14.3223C22.8936 14.3104 22.9118 14.2974 22.9297 14.2833C22.9444 14.2717 22.9585 14.2597 22.9719 14.2473L23.0411 14.2883L23.0108 14.42C23.0049 14.4453 23.0207 14.4705 23.046 14.4764C23.0713 14.4822 23.0965 14.4664 23.1024 14.4411L23.1405 14.2759C23.1451 14.256 23.1362 14.2354 23.1186 14.2249L23.0378 14.1771C23.0551 14.1557 23.0705 14.1338 23.0838 14.1118L23.1886 14.1361L23.1994 14.2708C23.2015 14.2967 23.2242 14.316 23.25 14.3139C23.2759 14.3118 23.2952 14.2892 23.2931 14.2633L23.2796 14.0943C23.278 14.0739 23.2633 14.0569 23.2434 14.0523L23.1257 14.025C23.1397 13.9861 23.1469 13.948 23.1468 13.9122Z" fill="black"/>
<path fill-rule="evenodd" clip-rule="evenodd" d="M23.3317 19.9143C23.3845 19.9032 23.4325 19.8705 23.4614 19.82C23.5153 19.726 23.4829 19.6062 23.3889 19.5523C23.2949 19.4984 23.1751 19.5308 23.1212 19.6248C23.0922 19.6752 23.0882 19.7332 23.1052 19.7843C23.0665 19.79 23.0263 19.8043 22.9866 19.8264L22.9373 19.7013C22.9295 19.6814 22.9097 19.6689 22.8884 19.6703L22.712 19.6822C22.685 19.684 22.6646 19.7074 22.6664 19.7344C22.6682 19.7614 22.6916 19.7819 22.7186 19.78L22.8592 19.7706L22.9039 19.884C22.884 19.9008 22.8647 19.9195 22.8461 19.94L22.7783 19.8564C22.7648 19.8398 22.7422 19.8338 22.7223 19.8416L22.5577 19.9062C22.5325 19.9161 22.5201 19.9445 22.53 19.9697C22.5398 19.9949 22.5683 20.0074 22.5935 19.9975L22.7247 19.946L22.7841 20.0191C22.7741 20.0339 22.7646 20.0492 22.7555 20.0651C22.7434 20.086 22.7326 20.1072 22.7231 20.1284L22.6266 20.0578C22.6094 20.0452 22.586 20.0452 22.5687 20.0578L22.426 20.162C22.4041 20.178 22.3993 20.2087 22.4153 20.2306C22.4313 20.2524 22.4619 20.2572 22.4838 20.2412L22.5976 20.1581L22.6879 20.2242C22.675 20.2699 22.6678 20.3148 22.6662 20.3571L22.5712 20.334C22.5505 20.329 22.5289 20.338 22.5178 20.3562L22.4259 20.5072C22.4118 20.5304 22.4191 20.5605 22.4423 20.5746C22.4654 20.5887 22.4956 20.5813 22.5096 20.5582L22.5829 20.4378L22.6747 20.4601C22.6899 20.5292 22.7248 20.5845 22.7788 20.6156C22.8321 20.6461 22.8963 20.6486 22.9626 20.6279L23.0226 20.6901L22.9556 20.8141C22.9427 20.8379 22.9516 20.8677 22.9754 20.8805C22.9993 20.8934 23.029 20.8845 23.0419 20.8607L23.1259 20.7051C23.136 20.6864 23.1329 20.6632 23.118 20.6478L23.0564 20.5839C23.0932 20.5607 23.1294 20.531 23.1634 20.4957L23.2566 20.5362L23.2423 20.6764C23.2395 20.7034 23.2591 20.7274 23.2861 20.7302C23.313 20.733 23.3371 20.7133 23.3399 20.6864L23.3579 20.5105C23.36 20.4893 23.3482 20.4691 23.3286 20.4606L23.2282 20.4169C23.2414 20.3982 23.254 20.3785 23.2658 20.3579C23.2756 20.341 23.2845 20.3238 23.2926 20.3067L23.3756 20.3195L23.3974 20.4587C23.4016 20.4855 23.4267 20.5038 23.4534 20.4996C23.4802 20.4954 23.4985 20.4703 23.4943 20.4436L23.467 20.2689C23.4636 20.2478 23.4471 20.2312 23.426 20.228L23.3291 20.2131C23.3376 20.1857 23.344 20.1586 23.3483 20.132L23.4592 20.1148L23.522 20.241C23.5341 20.2653 23.5635 20.2751 23.5878 20.2631C23.612 20.251 23.6219 20.2215 23.6098 20.1973L23.531 20.039C23.5215 20.0199 23.5007 20.0092 23.4796 20.0124L23.3551 20.0317C23.3535 19.9887 23.3457 19.9489 23.3317 19.9143Z" fill="black"/>
<path fill-rule="evenodd" clip-rule="evenodd" d="M19.8517 16.5548C19.7967 16.5398 19.7482 16.5023 19.7208 16.4473C19.6698 16.3448 19.7116 16.2205 19.814 16.1695C19.9164 16.1186 20.0408 16.1603 20.0917 16.2627C20.1191 16.3177 20.1197 16.379 20.0986 16.4319C20.1391 16.4403 20.1805 16.4579 20.2211 16.4836L20.2808 16.3548C20.2903 16.3344 20.3119 16.3224 20.3343 16.3253L20.5195 16.3488C20.5479 16.3524 20.568 16.3783 20.5644 16.4067C20.5608 16.435 20.5349 16.4551 20.5065 16.4515L20.3588 16.4328L20.3046 16.5496C20.3245 16.5686 20.3437 16.5895 20.362 16.6122L20.4388 16.5283C20.454 16.5116 20.4783 16.5068 20.4987 16.5162L20.6682 16.5946C20.6942 16.6066 20.7055 16.6373 20.6935 16.6633C20.6815 16.6893 20.6507 16.7006 20.6248 16.6886L20.4897 16.6261L20.4225 16.6995C20.4321 16.7157 20.4412 16.7324 20.4498 16.7497C20.4612 16.7726 20.4712 16.7955 20.48 16.8185L20.5861 16.7501C20.6051 16.7379 20.6297 16.7393 20.6471 16.7537L20.7911 16.8725C20.8132 16.8907 20.8163 16.9234 20.7981 16.9454C20.7799 16.9675 20.7473 16.9706 20.7252 16.9524L20.6104 16.8576L20.5111 16.9217C20.5218 16.9707 20.5267 17.0185 20.5257 17.0632L20.6272 17.0448C20.6494 17.0408 20.6717 17.0516 20.6822 17.0715L20.7697 17.2365C20.7831 17.2617 20.7735 17.2931 20.7482 17.3065C20.7229 17.3199 20.6916 17.3103 20.6782 17.285L20.6085 17.1535L20.5103 17.1713C20.4899 17.2431 20.4497 17.2993 20.3908 17.3286C20.3327 17.3575 20.2648 17.3562 20.1963 17.3302L20.1292 17.392L20.192 17.5269C20.2041 17.5528 20.1929 17.5836 20.167 17.5957C20.141 17.6078 20.1102 17.5966 20.0981 17.5706L20.0193 17.4014C20.0098 17.381 20.0146 17.3567 20.0312 17.3414L20.1002 17.2779C20.0627 17.2512 20.0264 17.2176 19.9929 17.1782L19.892 17.2151L19.8984 17.3639C19.8996 17.3924 19.8774 17.4166 19.8488 17.4178C19.8203 17.419 19.7961 17.3969 19.7949 17.3683L19.7869 17.1817C19.7859 17.1592 19.7997 17.1387 19.8208 17.1309L19.9294 17.0912C19.9167 17.0706 19.9046 17.0491 19.8934 17.0266C19.8842 17.0081 19.8759 16.9895 19.8684 16.9709L19.7801 16.9792L19.7484 17.1246C19.7423 17.1526 19.7148 17.1703 19.6868 17.1642C19.6589 17.1582 19.6411 17.1306 19.6472 17.1026L19.6869 16.9202C19.6917 16.8981 19.7102 16.8817 19.7327 16.8796L19.8357 16.8699C19.8286 16.8405 19.8235 16.8115 19.8206 16.7833L19.7047 16.7582L19.6306 16.8873C19.6164 16.9122 19.5848 16.9207 19.56 16.9065C19.5351 16.8922 19.5266 16.8606 19.5408 16.8358L19.6338 16.6738C19.645 16.6543 19.6676 16.6442 19.6896 16.649L19.8197 16.6771C19.824 16.6319 19.8348 16.5904 19.8517 16.5548Z" fill="black"/>
<path d="M13.4467 35.0637C13.2271 33.573 13.0327 30.5876 13.9006 29.829M14.1896 35.603C13.8914 35.4852 13.6474 35.3148 13.5108 35.1022C13.3972 34.3495 13.2875 33.1867 13.325 32.1301C13.3438 31.5988 13.3998 31.0968 13.51 30.6881C13.619 30.2841 13.7782 29.982 13.9962 29.8268C14.0046 29.8258 14.0165 29.8245 14.0319 29.8229C14.0642 29.8195 14.1113 29.8152 14.17 29.8112C14.2876 29.8032 14.4515 29.7969 14.6367 29.8032C14.9991 29.8157 15.4345 29.8765 15.7649 30.0624C15.7922 31.1518 15.7922 32.5368 15.7852 33.654C15.7817 34.2181 15.7764 34.7137 15.772 35.0683C15.7698 35.2456 15.7678 35.3877 15.7664 35.4854L15.7647 35.5976L15.7646 35.6028L15.7547 35.6081C15.5565 35.7161 15.4283 35.7855 15.1818 35.7855C14.8438 35.7855 14.4917 35.7223 14.1896 35.603ZM15.9006 33.6547C15.9076 32.5363 15.9077 31.1482 15.8802 30.0564C16.0129 29.9585 16.1989 29.8922 16.4103 29.8496C16.6328 29.8047 16.8778 29.7872 17.1067 29.784C17.3353 29.7808 17.5463 29.7919 17.7002 29.8039C17.7771 29.8099 17.8396 29.8161 17.8828 29.8207C17.9045 29.8231 17.9212 29.825 17.9326 29.8264L17.9404 29.8274C18.0193 29.8675 18.09 29.9468 18.1512 30.067C18.2142 30.1908 18.2645 30.3528 18.3029 30.5459C18.3797 30.932 18.4075 31.432 18.403 31.9745C18.3939 33.054 18.2569 34.2903 18.1325 35.1035C17.9114 35.4865 17.3294 35.7855 16.6297 35.7855L16.6296 35.7855C16.3584 35.786 16.073 35.7144 15.88 35.6048L15.8801 35.5994L15.8818 35.4871C15.8832 35.3893 15.8852 35.2471 15.8874 35.0698C15.8918 34.715 15.8971 34.2191 15.9006 33.6547ZM18.2541 30.0146C18.2178 29.9432 18.1761 29.8804 18.1284 29.829H18.2993C18.9496 29.829 19.4576 30.2612 19.4576 30.7708V33.3333C19.4576 34.0733 18.9405 34.8074 18.2588 35.0407C18.3803 34.2244 18.5095 33.0272 18.5184 31.9754C18.523 31.43 18.4952 30.9208 18.4161 30.5234C18.3766 30.3247 18.3237 30.1514 18.2541 30.0146ZM13.8162 29.829C13.626 30.0196 13.492 30.3117 13.3986 30.658C13.2851 31.0787 13.2286 31.5904 13.2096 32.126C13.1729 33.1621 13.2764 34.2969 13.3871 35.0552C12.9833 34.9893 12.6901 34.7661 12.4939 34.465C12.2849 34.1442 12.1859 33.7341 12.1859 33.3333V30.7708C12.1859 30.2612 12.6948 29.829 13.3451 29.829H13.8162Z" fill="#FF7A00"/>
<path d="M13.4467 35.0637C13.2271 33.573 13.0327 30.5876 13.9006 29.829M14.1896 35.603C13.8914 35.4852 13.6474 35.3148 13.5108 35.1022C13.3972 34.3495 13.2875 33.1867 13.325 32.1301C13.3438 31.5988 13.3998 31.0968 13.51 30.6881C13.619 30.2841 13.7782 29.982 13.9962 29.8268C14.0046 29.8258 14.0165 29.8245 14.0319 29.8229C14.0642 29.8195 14.1113 29.8152 14.17 29.8112C14.2876 29.8032 14.4515 29.7969 14.6367 29.8032C14.9991 29.8157 15.4345 29.8765 15.7649 30.0624C15.7922 31.1518 15.7922 32.5368 15.7852 33.654C15.7817 34.2181 15.7764 34.7137 15.772 35.0683C15.7698 35.2456 15.7678 35.3877 15.7664 35.4854L15.7647 35.5976L15.7646 35.6028L15.7547 35.6081C15.5565 35.7161 15.4283 35.7855 15.1818 35.7855C14.8438 35.7855 14.4917 35.7223 14.1896 35.603ZM15.9006 33.6547C15.9076 32.5363 15.9077 31.1482 15.8802 30.0564C16.0129 29.9585 16.1989 29.8922 16.4103 29.8496C16.6328 29.8047 16.8778 29.7872 17.1067 29.784C17.3353 29.7808 17.5463 29.7919 17.7002 29.8039C17.7771 29.8099 17.8396 29.8161 17.8828 29.8207C17.9045 29.8231 17.9212 29.825 17.9326 29.8264L17.9404 29.8274C18.0193 29.8675 18.09 29.9468 18.1512 30.067C18.2142 30.1908 18.2645 30.3528 18.3029 30.5459C18.3797 30.932 18.4075 31.432 18.403 31.9745C18.3939 33.054 18.2569 34.2903 18.1325 35.1035C17.9114 35.4865 17.3294 35.7855 16.6297 35.7855L16.6296 35.7855C16.3584 35.786 16.073 35.7144 15.88 35.6048L15.8801 35.5994L15.8818 35.4871C15.8832 35.3893 15.8852 35.2471 15.8874 35.0698C15.8918 34.715 15.8971 34.2191 15.9006 33.6547ZM18.2541 30.0146C18.2178 29.9432 18.1761 29.8804 18.1284 29.829H18.2993C18.9496 29.829 19.4576 30.2612 19.4576 30.7708V33.3333C19.4576 34.0733 18.9405 34.8074 18.2588 35.0407C18.3803 34.2244 18.5095 33.0272 18.5184 31.9754C18.523 31.43 18.4952 30.9208 18.4161 30.5234C18.3766 30.3247 18.3237 30.1514 18.2541 30.0146ZM13.8162 29.829C13.626 30.0196 13.492 30.3117 13.3986 30.658C13.2851 31.0787 13.2286 31.5904 13.2096 32.126C13.1729 33.1621 13.2764 34.2969 13.3871 35.0552C12.9833 34.9893 12.6901 34.7661 12.4939 34.465C12.2849 34.1442 12.1859 33.7341 12.1859 33.3333V30.7708C12.1859 30.2612 12.6948 29.829 13.3451 29.829H13.8162Z" stroke="#FF7A00" stroke-width="0.115425"/>
<path d="M13.4467 35.0637C13.2271 33.573 13.0327 30.5876 13.9006 29.829M14.1896 35.603C13.8914 35.4852 13.6474 35.3148 13.5108 35.1022C13.3972 34.3495 13.2875 33.1867 13.325 32.1301C13.3438 31.5988 13.3998 31.0968 13.51 30.6881C13.619 30.2841 13.7782 29.982 13.9962 29.8268C14.0046 29.8258 14.0165 29.8245 14.0319 29.8229C14.0642 29.8195 14.1113 29.8152 14.17 29.8112C14.2876 29.8032 14.4515 29.7969 14.6367 29.8032C14.9991 29.8157 15.4345 29.8765 15.7649 30.0624C15.7922 31.1518 15.7922 32.5368 15.7852 33.654C15.7817 34.2181 15.7764 34.7137 15.772 35.0683C15.7698 35.2456 15.7678 35.3877 15.7664 35.4854L15.7647 35.5976L15.7646 35.6028L15.7547 35.6081C15.5565 35.7161 15.4283 35.7855 15.1818 35.7855C14.8438 35.7855 14.4917 35.7223 14.1896 35.603ZM15.9006 33.6547C15.9076 32.5363 15.9077 31.1482 15.8802 30.0564C16.0129 29.9585 16.1989 29.8922 16.4103 29.8496C16.6328 29.8047 16.8778 29.7872 17.1067 29.784C17.3353 29.7808 17.5463 29.7919 17.7002 29.8039C17.7771 29.8099 17.8396 29.8161 17.8828 29.8207C17.9045 29.8231 17.9212 29.825 17.9326 29.8264L17.9404 29.8274C18.0193 29.8675 18.09 29.9468 18.1512 30.067C18.2142 30.1908 18.2645 30.3528 18.3029 30.5459C18.3797 30.932 18.4075 31.432 18.403 31.9745C18.3939 33.054 18.2569 34.2903 18.1325 35.1035C17.9114 35.4865 17.3294 35.7855 16.6297 35.7855L16.6296 35.7855C16.3584 35.786 16.073 35.7144 15.88 35.6048L15.8801 35.5994L15.8818 35.4871C15.8832 35.3893 15.8852 35.2471 15.8874 35.0698C15.8918 34.715 15.8971 34.2191 15.9006 33.6547ZM18.2541 30.0146C18.2178 29.9432 18.1761 29.8804 18.1284 29.829H18.2993C18.9496 29.829 19.4576 30.2612 19.4576 30.7708V33.3333C19.4576 34.0733 18.9405 34.8074 18.2588 35.0407C18.3803 34.2244 18.5095 33.0272 18.5184 31.9754C18.523 31.43 18.4952 30.9208 18.4161 30.5234C18.3766 30.3247 18.3237 30.1514 18.2541 30.0146ZM13.8162 29.829C13.626 30.0196 13.492 30.3117 13.3986 30.658C13.2851 31.0787 13.2286 31.5904 13.2096 32.126C13.1729 33.1621 13.2764 34.2969 13.3871 35.0552C12.9833 34.9893 12.6901 34.7661 12.4939 34.465C12.2849 34.1442 12.1859 33.7341 12.1859 33.3333V30.7708C12.1859 30.2612 12.6948 29.829 13.3451 29.829H13.8162Z" stroke="black" stroke-opacity="0.2" stroke-width="0.115425"/>
<path d="M16.1459 32.4383L16.7068 31.564L17.2676 32.4383H16.1459Z" fill="#FFE600" stroke="#CC6200" stroke-width="0.115425"/>
<path d="M14.1835 32.4383L14.7444 31.564L15.3052 32.4383H14.1835Z" fill="#FFE600" stroke="#CC6200" stroke-width="0.115425"/>
<path d="M17.102 33.363L17.0612 33.3677V33.4089V33.7824H16.3973V33.4614V33.4127L16.3487 33.4152C15.9367 33.4368 15.7067 33.4372 15.2948 33.4152L15.2462 33.4127V33.4614V33.7824H14.5823V33.4089V33.3677L14.5414 33.363L13.634 33.2581L13.5576 33.2493L13.5857 33.3208L13.6287 33.304L13.5857 33.3209L13.5857 33.321L13.5858 33.3212L13.5862 33.322L13.5873 33.3249L13.5917 33.3352C13.5956 33.3442 13.6014 33.3571 13.6092 33.3734C13.6247 33.4061 13.6484 33.4524 13.6811 33.5078C13.7463 33.6185 13.8478 33.7659 13.9928 33.9134C14.2833 34.209 14.7483 34.5044 15.4436 34.5044H15.4898V34.4582V34.0846H16.1537V34.4582V34.5044H16.1998C16.7459 34.5044 17.2104 34.2071 17.5352 33.9154C17.6982 33.7691 17.8274 33.6229 17.916 33.5133C17.9603 33.4585 17.9945 33.4127 18.0177 33.3805C18.0293 33.3645 18.0381 33.3518 18.0441 33.343L18.051 33.333L18.0527 33.3303L18.0532 33.3296L18.0534 33.3294L18.0534 33.3293L18.0148 33.304L18.0534 33.3293L18.1075 33.2468L18.0095 33.2581L17.102 33.363Z" fill="#FFE600" stroke="#CC6200" stroke-width="0.0923398"/>
<path d="M16.9761 27.4172C15.7295 26.7709 15.3024 29.3795 14.3213 29.7834C14.706 29.745 15.3601 29.7834 15.7641 30.072C15.9565 29.8989 16.5721 29.668 17.38 29.7257C16.2421 29.3938 16.0629 28.3622 16.4566 28.1098C16.5422 28.055 16.6298 28.2252 16.8029 28.1675L16.9761 27.4172Z" fill="#5E3301" stroke="#5E3301" stroke-width="0.115425" stroke-linejoin="round"/>
</g>
<defs>
<clipPath id="clip0_609_35579">
<rect width="40" height="39" fill="white"/>
</clipPath>
</defs>
</svg>
