<svg xmlns="http://www.w3.org/2000/svg" viewBox="0 0 359 445"><path fill="#00A35C" d="m287.92 312.638-49.804-63.275H121.008l-50.485 63.286c-4.002 6.062.35 14.142 7.613 14.142h202.176c7.27 0 11.621-8.09 7.608-14.153Z"/><path fill="#00A35C" d="m258.374 240.21-40.554-57.056h-77.39l-40.801 57.073c-4.003 6.062.348 14.142 7.613 14.142h143.525c7.269 0 11.621-8.091 7.607-14.153v-.006Z"/><path fill="#00A35C" d="m234.463 173.995-51.596-77.938c-1.819-2.746-5.848-2.741-7.666.006l-51.424 77.943c-4.003 6.062.348 14.142 7.613 14.142h95.46c7.269 0 11.62-8.09 7.607-14.153h.006ZM164.413 311h30.179a7.412 7.412 0 0 1 7.408 7.408v18.991c0 10.266-8.335 18.601-18.601 18.601h-7.798C165.335 356 157 347.665 157 337.399v-18.991a7.412 7.412 0 0 1 7.408-7.408h.005Z"/><path fill="#DB3030" stroke="#DB3030" stroke-width=".23" d="M68.5 154.899c5.057-18.158 45.74-4.137 0 33.098-45.74-37.235-5.057-51.256 0-33.098Z"><animate fill="freeze" attributeName="d" begin="0s" calcMode="linear" dur="2s" keyTimes="0;0.5;1" repeatCount="indefinite" values="M68.5 154.899C73.5567 136.741 114.24 150.762 68.5 187.997C22.7599 150.762 63.4433 136.741 68.5 154.899Z;M64.1907 155.659C62.7319 136.866 105.757 136.127 75.511 186.761C19.794 167.415 53.2285 140.325 64.1907 155.659Z;M68.5 154.899C73.5567 136.741 114.24 150.762 68.5 187.997C22.7599 150.762 63.4433 136.741 68.5 154.899Z"/></path><path fill="#FFCDC7" stroke="#FFCDC7" stroke-width=".23" d="M288.5 101.899c5.057-18.158 45.74-4.137 0 33.098-45.74-37.235-5.057-51.256 0-33.098Z"><animate fill="freeze" attributeName="d" begin="0s" calcMode="linear" dur="2s" keyTimes="0;0.5;1" repeatCount="indefinite" values="M288.5 101.899C293.557 83.7409 334.24 97.7617 288.5 134.997C242.76 97.7617 283.443 83.7409 288.5 101.899Z;M292.809 102.659C303.772 87.3253 337.206 114.415 281.489 133.761C251.243 83.1271 294.268 83.8663 292.809 102.659Z;M288.5 101.899C293.557 83.7409 334.24 97.7617 288.5 134.997C242.76 97.7617 283.443 83.7409 288.5 101.899Z"/></path><path fill="#FF6960" stroke="#FF6960" stroke-width=".23" d="M178.5 261.899c5.057-18.158 45.74-4.137 0 33.098-45.74-37.235-5.057-51.256 0-33.098Z"><animate fill="freeze" attributeName="d" begin="0s" calcMode="linear" dur="2s" keyTimes="0;0.5;1" repeatCount="indefinite" values="M178.5 261.899C183.557 243.741 224.24 257.762 178.5 294.997C132.76 257.762 173.443 243.741 178.5 261.899Z;M184.8 263.587C198.258 250.39 226.48 282.874 168.251 292.251C147.256 237.134 189.5 245.333 184.8 263.587Z;M178.5 261.899C183.557 243.741 224.24 257.762 178.5 294.997C132.76 257.762 173.443 243.741 178.5 261.899Z"/></path></svg>
