<svg xmlns="http://www.w3.org/2000/svg" xmlns:xlink="http://www.w3.org/1999/xlink" id="e1jpemtt30051" shape-rendering="geometricPrecision" text-rendering="geometricPrecision" viewBox="0 0 1920 1080"><style>@keyframes e1jpemtt300531_to__to{0%{transform:translate(643.050034px,385.300003px)}50%{transform:translate(643.050034px,400.693066px)}to{transform:translate(643.050034px,380.092154px)}}@keyframes e1jpemtt300532_to__to{0%{transform:translate(488.800003px,385.300003px)}50%{transform:translate(488.800003px,400.693066px)}to{transform:translate(488.800003px,380.092154px)}}@keyframes e1jpemtt300533_to__to{0%{transform:translate(364.949997px,423.800003px)}50%{transform:translate(364.949997px,439.193066px)}to{transform:translate(364.949997px,418.592154px)}}@keyframes e1jpemtt300534_to__to{0%{transform:translate(356.550034px,480px)}50%{transform:translate(356.550034px,495.393063px)}to{transform:translate(356.550034px,474.792151px)}}@keyframes e1jpemtt300535_to__to{0%{transform:translate(490.699776px,568.699768px)}50%{transform:translate(490.699776px,584.092831px)}to{transform:translate(490.699776px,563.491919px)}}@keyframes e1jpemtt3005106_to__to{0%{transform:translate(476.049988px,435.949997px)}50%{transform:translate(476.049988px,451.34306px)}to{transform:translate(476.049988px,430.742148px)}}</style><defs><linearGradient id="e1jpemtt30054-fill" x1="780.4" x2="1971.7" y1="191.2" y2="191.2" gradientUnits="userSpaceOnUse" spreadMethod="pad"><stop id="e1jpemtt30054-fill-0" offset="0%" stop-color="#FCEBE2"/><stop id="e1jpemtt30054-fill-1" offset="20%" stop-color="#FBF1EB"/><stop id="e1jpemtt30054-fill-2" offset="60%" stop-color="#F9F8F6"/><stop id="e1jpemtt30054-fill-3" offset="100%" stop-color="#F9FBFA"/></linearGradient><linearGradient id="e1jpemtt30055-fill" x1="990.2" x2="-201" y1="296.9" y2="296.9" gradientUnits="userSpaceOnUse" spreadMethod="pad"><stop id="e1jpemtt30055-fill-0" offset="0%" stop-color="#FCEBE2"/><stop id="e1jpemtt30055-fill-1" offset="20%" stop-color="#FBF1EB"/><stop id="e1jpemtt30055-fill-2" offset="60%" stop-color="#F9F8F6"/><stop id="e1jpemtt30055-fill-3" offset="100%" stop-color="#F9FBFA"/></linearGradient><linearGradient id="e1jpemtt30056-fill" x1="1366.9" x2="1366.9" y1="560.6" y2="268.7" gradientUnits="userSpaceOnUse" spreadMethod="pad"><stop id="e1jpemtt30056-fill-0" offset="0%" stop-color="#7DC5DB"/><stop id="e1jpemtt30056-fill-1" offset="20%" stop-color="#9FD4E4"/><stop id="e1jpemtt30056-fill-2" offset="40%" stop-color="#BCE1EC"/><stop id="e1jpemtt30056-fill-3" offset="60%" stop-color="#D0EBF2"/><stop id="e1jpemtt30056-fill-4" offset="80%" stop-color="#DDF0F5"/><stop id="e1jpemtt30056-fill-5" offset="100%" stop-color="#E1F2F6"/></linearGradient><linearGradient id="e1jpemtt30058-fill" x1="1315.9" x2="1372.2" y1="1004.6" y2="468.7" gradientUnits="userSpaceOnUse" spreadMethod="pad"><stop id="e1jpemtt30058-fill-0" offset="0%" stop-color="rgba(225,242,246,0)"/><stop id="e1jpemtt30058-fill-1" offset="60%" stop-color="rgba(225,242,246,0)"/><stop id="e1jpemtt30058-fill-2" offset="60%" stop-color="rgba(228,240,245,0.1)"/><stop id="e1jpemtt30058-fill-3" offset="60%" stop-color="rgba(235,236,242,0.2)"/><stop id="e1jpemtt30058-fill-4" offset="70%" stop-color="rgba(246,230,237,0.4)"/><stop id="e1jpemtt30058-fill-5" offset="70%" stop-color="rgba(255,225,234,0.6)"/><stop id="e1jpemtt30058-fill-6" offset="80%" stop-color="rgba(248,223,233,0.6)"/><stop id="e1jpemtt30058-fill-7" offset="80%" stop-color="rgba(225,215,229,0.6)"/><stop id="e1jpemtt30058-fill-8" offset="90%" stop-color="rgba(186,203,222,0.7)"/><stop id="e1jpemtt30058-fill-9" offset="90%" stop-color="rgba(132,186,212,0.8)"/><stop id="e1jpemtt30058-fill-10" offset="100%" stop-color="#3EA4C8"/><stop id="e1jpemtt30058-fill-11" offset="100%" stop-color="#2F9FC5"/></linearGradient><linearGradient id="e1jpemtt300510-fill" x1="141.1" x2="374.7" y1="704.4" y2="299.7" gradientUnits="userSpaceOnUse" spreadMethod="pad"><stop id="e1jpemtt300510-fill-0" offset="0%" stop-color="#2F9FC5"/><stop id="e1jpemtt300510-fill-1" offset="0%" stop-color="#33A1C6"/><stop id="e1jpemtt300510-fill-2" offset="10%" stop-color="#53B1CF"/><stop id="e1jpemtt300510-fill-3" offset="20%" stop-color="#6ABCD6"/><stop id="e1jpemtt300510-fill-4" offset="20%" stop-color="#78C3DA"/><stop id="e1jpemtt300510-fill-5" offset="30%" stop-color="#7DC5DB"/><stop id="e1jpemtt300510-fill-6" offset="40%" stop-color="#99CBDE"/><stop id="e1jpemtt300510-fill-7" offset="50%" stop-color="#BED3E2"/><stop id="e1jpemtt300510-fill-8" offset="60%" stop-color="#DAD9E6"/><stop id="e1jpemtt300510-fill-9" offset="80%" stop-color="#EFDDE8"/><stop id="e1jpemtt300510-fill-10" offset="90%" stop-color="#FBE0EA"/><stop id="e1jpemtt300510-fill-11" offset="100%" stop-color="#FFE1EA"/></linearGradient><linearGradient id="e1jpemtt300514-fill" x1="572.6" x2="572.6" y1="197.2" y2="-11.2" gradientUnits="userSpaceOnUse" spreadMethod="pad"><stop id="e1jpemtt300514-fill-0" offset="0%" stop-color="rgba(197,228,242,0)"/><stop id="e1jpemtt300514-fill-1" offset="20%" stop-color="rgba(197,228,242,0.3)"/><stop id="e1jpemtt300514-fill-2" offset="50%" stop-color="rgba(197,228,242,0.6)"/><stop id="e1jpemtt300514-fill-3" offset="70%" stop-color="rgba(197,228,242,0.8)"/><stop id="e1jpemtt300514-fill-4" offset="90%" stop-color="rgba(197,228,242,0.9)"/><stop id="e1jpemtt300514-fill-5" offset="100%" stop-color="#C5E4F2"/></linearGradient><linearGradient id="e1jpemtt300515-fill" x1="111.8" x2="111.8" y1="266.3" y2="120.1" gradientUnits="userSpaceOnUse" spreadMethod="pad"><stop id="e1jpemtt300515-fill-0" offset="0%" stop-color="rgba(197,228,242,0)"/><stop id="e1jpemtt300515-fill-1" offset="20%" stop-color="rgba(197,228,242,0.3)"/><stop id="e1jpemtt300515-fill-2" offset="50%" stop-color="rgba(197,228,242,0.6)"/><stop id="e1jpemtt300515-fill-3" offset="70%" stop-color="rgba(197,228,242,0.8)"/><stop id="e1jpemtt300515-fill-4" offset="90%" stop-color="rgba(197,228,242,0.9)"/><stop id="e1jpemtt300515-fill-5" offset="100%" stop-color="#C5E4F2"/></linearGradient><linearGradient id="e1jpemtt300516-fill" x1="1662.8" x2="1662.8" y1="201.9" y2="38.2" gradientUnits="userSpaceOnUse" spreadMethod="pad"><stop id="e1jpemtt300516-fill-0" offset="0%" stop-color="rgba(197,228,242,0)"/><stop id="e1jpemtt300516-fill-1" offset="20%" stop-color="rgba(197,228,242,0.3)"/><stop id="e1jpemtt300516-fill-2" offset="50%" stop-color="rgba(197,228,242,0.6)"/><stop id="e1jpemtt300516-fill-3" offset="70%" stop-color="rgba(197,228,242,0.8)"/><stop id="e1jpemtt300516-fill-4" offset="90%" stop-color="rgba(197,228,242,0.9)"/><stop id="e1jpemtt300516-fill-5" offset="100%" stop-color="#C5E4F2"/></linearGradient><linearGradient id="e1jpemtt300517-fill" x1="1202.6" x2="1202.6" y1="264.7" y2="131.6" gradientUnits="userSpaceOnUse" spreadMethod="pad"><stop id="e1jpemtt300517-fill-0" offset="0%" stop-color="rgba(197,228,242,0)"/><stop id="e1jpemtt300517-fill-1" offset="20%" stop-color="rgba(197,228,242,0.3)"/><stop id="e1jpemtt300517-fill-2" offset="50%" stop-color="rgba(197,228,242,0.6)"/><stop id="e1jpemtt300517-fill-3" offset="70%" stop-color="rgba(197,228,242,0.8)"/><stop id="e1jpemtt300517-fill-4" offset="90%" stop-color="rgba(197,228,242,0.9)"/><stop id="e1jpemtt300517-fill-5" offset="100%" stop-color="#C5E4F2"/></linearGradient><linearGradient id="e1jpemtt300518-fill" x1="204.5" x2="355.2" y1="605.9" y2="345" gradientUnits="userSpaceOnUse" spreadMethod="pad"><stop id="e1jpemtt300518-fill-0" offset="0%" stop-color="#2F9FC5"/><stop id="e1jpemtt300518-fill-1" offset="0%" stop-color="#33A1C6"/><stop id="e1jpemtt300518-fill-2" offset="10%" stop-color="#53B1CF"/><stop id="e1jpemtt300518-fill-3" offset="20%" stop-color="#6ABCD6"/><stop id="e1jpemtt300518-fill-4" offset="20%" stop-color="#78C3DA"/><stop id="e1jpemtt300518-fill-5" offset="30%" stop-color="#7DC5DB"/><stop id="e1jpemtt300518-fill-6" offset="40%" stop-color="#98CBDE"/><stop id="e1jpemtt300518-fill-7" offset="60%" stop-color="#C4D4E3"/><stop id="e1jpemtt300518-fill-8" offset="80%" stop-color="#E4DBE7"/><stop id="e1jpemtt300518-fill-9" offset="90%" stop-color="#F8DFE9"/><stop id="e1jpemtt300518-fill-10" offset="100%" stop-color="#FFE1EA"/></linearGradient><linearGradient id="e1jpemtt300519-fill" x1="1410.4" x2="1410.4" y1="530.7" y2="333.5" gradientUnits="userSpaceOnUse" spreadMethod="pad"><stop id="e1jpemtt300519-fill-0" offset="0%" stop-color="#E1F2F6"/><stop id="e1jpemtt300519-fill-1" offset="20%" stop-color="#DDF0F5"/><stop id="e1jpemtt300519-fill-2" offset="40%" stop-color="#D0EBF2"/><stop id="e1jpemtt300519-fill-3" offset="60%" stop-color="#BCE1EC"/><stop id="e1jpemtt300519-fill-4" offset="80%" stop-color="#9FD4E4"/><stop id="e1jpemtt300519-fill-5" offset="100%" stop-color="#7DC5DB"/></linearGradient><linearGradient id="e1jpemtt300531-fill" x1="611.9" x2="707" y1="450.8" y2="315" gradientUnits="userSpaceOnUse" spreadMethod="pad"><stop id="e1jpemtt300531-fill-0" offset="0%" stop-color="#FEF7E3"/><stop id="e1jpemtt300531-fill-1" offset="50%" stop-color="#FEF7E1"/><stop id="e1jpemtt300531-fill-2" offset="80%" stop-color="#FEF5D9"/><stop id="e1jpemtt300531-fill-3" offset="100%" stop-color="#FEF3CC"/><stop id="e1jpemtt300531-fill-4" offset="100%" stop-color="#FEF2C8"/></linearGradient><linearGradient id="e1jpemtt300538-fill" x1="871.7" x2="952.1" y1="814.4" y2="820.2" gradientUnits="userSpaceOnUse" spreadMethod="pad"><stop id="e1jpemtt300538-fill-0" offset="0%" stop-color="#B8C4C2"/><stop id="e1jpemtt300538-fill-1" offset="10%" stop-color="#BFCAC8"/><stop id="e1jpemtt300538-fill-2" offset="30%" stop-color="#DCE4E2"/><stop id="e1jpemtt300538-fill-3" offset="50%" stop-color="#E7EEEC"/><stop id="e1jpemtt300538-fill-4" offset="60%" stop-color="#E4EBE9"/><stop id="e1jpemtt300538-fill-5" offset="80%" stop-color="#D9E2E0"/><stop id="e1jpemtt300538-fill-6" offset="90%" stop-color="#C8D2D0"/><stop id="e1jpemtt300538-fill-7" offset="100%" stop-color="#B8C4C2"/></linearGradient><linearGradient id="e1jpemtt300542-fill" x1="-20.6" x2="20.9" y1="-11.5" y2="-8.6" gradientUnits="userSpaceOnUse" spreadMethod="pad"><stop id="e1jpemtt300542-fill-0" offset="0%" stop-color="#FEF7E3"/><stop id="e1jpemtt300542-fill-1" offset="50%" stop-color="#FEF5E4"/><stop id="e1jpemtt300542-fill-2" offset="80%" stop-color="#FEEDE6"/><stop id="e1jpemtt300542-fill-3" offset="100%" stop-color="#FFE1EA"/></linearGradient><linearGradient id="e1jpemtt300546-fill" x1="1005.7" x2="1101.1" y1="690.7" y2="697.5" gradientUnits="userSpaceOnUse" spreadMethod="pad"><stop id="e1jpemtt300546-fill-0" offset="0%" stop-color="#B8C4C2"/><stop id="e1jpemtt300546-fill-1" offset="10%" stop-color="#BFCAC8"/><stop id="e1jpemtt300546-fill-2" offset="30%" stop-color="#DCE4E2"/><stop id="e1jpemtt300546-fill-3" offset="50%" stop-color="#E7EEEC"/><stop id="e1jpemtt300546-fill-4" offset="60%" stop-color="#E4EBE9"/><stop id="e1jpemtt300546-fill-5" offset="80%" stop-color="#D9E2E0"/><stop id="e1jpemtt300546-fill-6" offset="90%" stop-color="#C8D2D0"/><stop id="e1jpemtt300546-fill-7" offset="100%" stop-color="#B8C4C2"/></linearGradient><linearGradient id="e1jpemtt300549-fill" x1=".1" x2="41.6" y1="-10.1" y2="-7.1" gradientUnits="userSpaceOnUse" spreadMethod="pad"><stop id="e1jpemtt300549-fill-0" offset="0%" stop-color="#FEF7E3"/><stop id="e1jpemtt300549-fill-1" offset="50%" stop-color="#FEF5E4"/><stop id="e1jpemtt300549-fill-2" offset="80%" stop-color="#FEEDE6"/><stop id="e1jpemtt300549-fill-3" offset="100%" stop-color="#FFE1EA"/></linearGradient><linearGradient id="e1jpemtt300589-fill" x1="1322.8" x2="1510.6" y1="894.2" y2="1002.6" gradientUnits="userSpaceOnUse" spreadMethod="pad"><stop id="e1jpemtt300589-fill-0" offset="0%" stop-color="#FEF7E3"/><stop id="e1jpemtt300589-fill-1" offset="50%" stop-color="#FEF5E4"/><stop id="e1jpemtt300589-fill-2" offset="80%" stop-color="#FEEDE6"/><stop id="e1jpemtt300589-fill-3" offset="100%" stop-color="#FFE1EA"/></linearGradient><linearGradient id="e1jpemtt300597-fill" x1="1257.7" x2="1090.4" y1="767.7" y2="864.3" gradientUnits="userSpaceOnUse" spreadMethod="pad"><stop id="e1jpemtt300597-fill-0" offset="0%" stop-color="#FEF7E3"/><stop id="e1jpemtt300597-fill-1" offset="50%" stop-color="#FEF5E4"/><stop id="e1jpemtt300597-fill-2" offset="80%" stop-color="#FEEDE6"/><stop id="e1jpemtt300597-fill-3" offset="100%" stop-color="#FFE1EA"/></linearGradient><path id="e1jpemtt30052" d="M-11.5-7.7h1943.9v1106.1H-11.5z"/></defs><g id="e1jpemtt30053" clip-path="url(#e1jpemtt3005107)"><path id="e1jpemtt30054" fill="url(#e1jpemtt30054-fill)" stroke="none" stroke-width="1" d="M1969.8-7.7H971.2a30.5 30.5 0 100 61h314.5a30.5 30.5 0 0130.5 30.5v8.3a30.5 30.5 0 01-30.5 30.5H830.3a50 50 0 000 99.8h698.4a30.5 30.5 0 0130.5 30.5v1.3a30.5 30.5 0 01-30.5 30.5H1144a52.6 52.6 0 000 105.1h827.7" opacity=".5"/><path id="e1jpemtt30055" fill="url(#e1jpemtt30055-fill)" stroke="none" stroke-width="1" d="M-199.1 495.8h998.6a30.5 30.5 0 100-61H485a30.5 30.5 0 01-30.5-30.5V396a30.5 30.5 0 0130.5-30.5h455.3a49.9 49.9 0 100-99.8H242a30.5 30.5 0 01-30.6-30.5v-1.3a30.6 30.6 0 0130.5-30.6h384.7a52.6 52.6 0 100-105.2H-201" opacity=".5"/><path id="e1jpemtt30056" fill="url(#e1jpemtt30056-fill)" stroke="none" stroke-width="1" d="M1967.8 559.6l-800 .7-341.8.3h-63.5c16.6-58.4 36.7-92.3 59.9-111.2 36.5-29.8 81-22.3 132.5-13.8 71.1 11.7 155.8 25.1 251.8-55.3 185.4-155.4 313.4 29 486.5-66.4 162.1-89.4 231.2-31.8 259.6 50 2.1 6 3.9 12.1 5.6 18.3 21.8 81.5 9.4 177.4 9.4 177.4z"/><path id="e1jpemtt30057" fill="#E1F2F6" stroke="none" stroke-width="1" d="M-29.7 529.6H1952v578.5H-29.7V529.6z"/><path id="e1jpemtt30058" fill="url(#e1jpemtt30058-fill)" stroke="none" stroke-width="1" d="M1952 529.6v541.8L695.3 789.9l243.3-238.3 22.5-22H1952z"/><path id="e1jpemtt30059" fill="#C5E4F2" stroke="none" stroke-width="1" d="M1231.6 1094.1a86.3 86.3 0 01-85.3 87.3H-42.3V529.6h971.5a54.8 54.8 0 0154.8 54.8c0 42.5-34.5 77-77 77.1h-23.4a173.7 173.7 0 000 347.3h260.6a87.1 87.1 0 0187.4 85.3z"/><path id="e1jpemtt300510" fill="url(#e1jpemtt300510-fill)" stroke="none" stroke-width="1" d="M671.2 529.5c-76.8-171.6-253.1-173.4-385.6-114.8-142.2 62.9-217.9-274.3-404.1.1-91.4 134.8-29.8 114.7-29.8 114.7h819.5z"/><path id="e1jpemtt300511" fill="#7DC5DB" stroke="none" stroke-width="1" d="M41.1 555.6h617.1a70.8 70.8 0 010 141.6H41.1a70.9 70.9 0 010-141.6zM241 1035.3h617.1a70.8 70.8 0 010 141.6H241a70.8 70.8 0 010-141.6z" opacity=".5" transform="translate(0 1)"/><path id="e1jpemtt300512" fill="none" stroke="#FFF" stroke-linecap="round" stroke-linejoin="round" stroke-width="1" d="M1967.2 561.6s-940.5-42.9-928.7 85.5c15.6 168.6 1080.5-210.4 658.6 134.5"/><path id="e1jpemtt300513" fill="none" stroke="#FFF" stroke-linecap="round" stroke-linejoin="round" stroke-width="1" d="M983.5 712c-161.8-7.4-255.6 222.5-53.3 253s345.6-264.3 502.5-236.6c156.9 27.7-154.2 371.4 76.9 210.2 305-212.7 453.3-97.2 478.4 70.7"/><path id="e1jpemtt300514" fill="url(#e1jpemtt300514-fill)" stroke="none" stroke-width="1" d="M243.4 197.1h658.5A86.8 86.8 0 00800 112.6a120.8 120.8 0 00-152.9-70 167.9 167.9 0 00-282.7 61.5 96.2 96.2 0 00-121 92.8v.2z"/><path id="e1jpemtt300515" fill="url(#e1jpemtt300515-fill)" stroke="none" stroke-width="1" d="M302.4 263.6a61 61 0 00-91-53A107.2 107.2 0 00.7 204.7a63.4 63.4 0 00-79.5 61.5"/><path id="e1jpemtt300516" fill="url(#e1jpemtt300516-fill)" stroke="none" stroke-width="1" d="M1404 201.8h517.6a68.2 68.2 0 00-80-66.5 95.2 95.2 0 00-120.4-54.9 132 132 0 00-222.2 48.3 75.8 75.8 0 00-95 73.1z"/><path id="e1jpemtt300517" fill="url(#e1jpemtt300517-fill)" stroke="none" stroke-width="1" d="M1376 262.2a55.4 55.4 0 00-82.8-48.2 97.6 97.6 0 00-191.8-5.3 57.6 57.6 0 00-72.3 56"/><path id="e1jpemtt300518" fill="url(#e1jpemtt300518-fill)" stroke="none" stroke-width="1" d="M645.5 550.4c-102.6-86.1-249.5-75-366.9-23.1C138 589.5 53.4 314.7-102.2 428.9 64.7 223.3 139.8 525 275 465.2c124.5-55 287.5-56.8 370.5 85.2z" opacity=".7"/><path id="e1jpemtt300519" fill="url(#e1jpemtt300519-fill)" stroke="none" stroke-width="1" d="M1967.2 380.3c-2.9.5-5.9 1.1-8.8 1.8-35.2 7.7-76 23.6-123.3 49.6-212.4 117.1-369.4-109.2-596.9 81.5-24.1 20.2-38 17.4-70.4 17.4l-312.5-1.4s-6.7-4.7 6.1-15.1c36.5-29.8 81-22.3 132.5-13.8 71.1 11.6 155.8 25.1 251.8-55.4 185.4-155.4 313.4 29 486.5-66.4 112.5-62 180.2-53.3 220.6-14.8 5.2 5.2 10.1 10.7 14.4 16.6z" opacity=".7"/><g id="e1jpemtt300520" fill="#FFF" stroke="none" stroke-width="1"><path id="e1jpemtt300521" d="M1848.8 656.9c6.4 0 6.4-10 0-10s-6.5 10 0 10zm-143.2-74.5c6.4 0 6.4-10 0-10s-6.4 10 0 10zm-57.3 93.6c6.4 0 6.4-10 0-10s-6.4 10 0 10zm-358.9-49.7c6.4 0 6.4-10 0-10s-6.4 10 0 10zm-103.1-64.9c6.4 0 6.4-10 0-10s-6.4 10 0 10zm-182.4 223.4c6.4 0 6.4-10 0-10s-6.4 10 0 10zm-170.8 85.9c6.4 0 6.4-10 0-10s-6.4 10 0 10zm-84-32.4c6.4 0 6.5-10 0-10s-6.4 10 0 10zm21-61.1c6.4 0 6.5-10 0-10s-6.4 10 0 10zM960 872.6c6.4 0 6.4-10 0-10s-6.5 10 0 10zm-153.2 66.1c6.4 0 6.4-10 0-10s-6.5 10 0 10zm215.2-12.6c6.4 0 6.4-10 0-10s-6.5 10 0 10zm171.9 76.3c6.4 0 6.4-10 0-10s-6.4 10 0 10zm114.6 3.9c6.4 0 6.4-10 0-10s-6.4 10 0 10zm28.6-36.3c6.4 0 6.4-10 0-10s-6.4 10 0 10zm-157.5-49.7c6.4 0 6.4-10 0-10s-6.5 10 0 10zm107.9-78.2c6.4 0 6.4-10 0-10s-6.4 10 0 10zm236.7 95.4c6.4 0 6.4-10 0-10s-6.4 10 0 10zm80.2 103.1c6.4 0 6.4-10 0-10s-6.4 10 0 10zm263.5-68.7c6.4 0 6.4-10 0-10s-6.5 10 0 10zm17.2-175.6c6.4 0 6.4-10 0-10s-6.5 10 0 10zm-42-76.4c6.4 0 6.4-10 0-10s-6.5 10 0 10zm-30.6 63c6.4 0 6.4-10 0-10s-6.4 10 0 10zM1612 624.4c6.4 0 6.4-10 0-10s-6.4 10 0 10zm-274.9-30.5c6.4 0 6.4-10 0-10s-6.4 10 0 10zm525 5.7c6.4 0 6.4-10 0-10s-6.4 10 0 10zM1743.8 676c6.4 0 6.4-10 0-10s-6.5 10 0 10zm-515.5 261.5c6.4 0 6.4-10 0-10s-6.4 10 0 10zM967.7 742.8c6.4 0 6.5-10 0-10s-6.5 10 0 10zm264.4-133.6c6.4 0 6.4-10 0-10s-6.4 10 0 10zM781.6 818.4c6.4 0 6.4-10 0-10s-6.5 10 0 10zm337.9 134.4c6.4 0 6.4-10 0-10s-6.5 10 0 10zm284.5-19.1c6.4 0 6.4-10 0-10s-6.4 10 0 10z"/><path id="e1jpemtt300522" d="M1890.8 802c6.4 0 6.4-10 0-10s-6.5 10 0 10zm-105-202.4c6.4 0 6.4-10 0-10s-6.5 10 0 10zm84 305.5c6.4 0 6.4-10 0-10s-6.5 10 0 10zm-57.3 114.5c6.4 0 6.4-10 0-10s-6.4 10 0 10zm-290.2-22.9c6.4 0 6.4-10 0-10s-6.4 10 0 10zm-271.1 47.7c6.4 0 6.4-10 0-10s-6.4 10 0 10zm-321.1-51.6c6.4 0 6.4-10 0-10s-6.4 10 0 10zm-40.3-20.9c6.4 0 6.5-10 0-10s-6.5 10 0 10zM1042.1 760c6.4 0 6.4-10 0-10s-6.4 10 0 10zm186.2-204.3c6.4 0 6.4-10 0-10s-6.4 10 0 10z"/></g><path id="e1jpemtt300523" fill="#E1F2F6" stroke="none" stroke-width="1" d="M142.1 70.7c6.4 0 6.4-10 0-10s-6.5 10 0 10zm-30.5 206.2c6.4 0 6.4-10 0-10s-6.5 10 0 10zM226.1 84.1c6.4 0 6.4-10 0-10s-6.4 10 0 10zm3.8 221.5c6.4 0 6.4-10 0-10s-6.4 10 0 10zm219.6-80.2c6.4 0 6.4-10 0-10s-6.5 10 0 10zM648 339.9c6.4 0 6.4-10 0-10s-6.5 10 0 10zm74.5-63c6.4 0 6.5-10 0-10s-6.5 10 0 10zM1022.2 170c6.4 0 6.4-10 0-10s-6.4 10 0 10zM852.3 45.9c6.4 0 6.5-10 0-10s-6.5 10 0 10zm-124.1 55.4c6.4 0 6.5-10 0-10s-6.4 10 0 10zm-215.7 34.3c6.4 0 6.4-10 0-10s-6.5 10 0 10zm-36.3-72.5c6.4 0 6.5-10 0-10s-6.4 10 0 10zM317.7 40.2c6.4 0 6.4-10 0-10s-6.4 10 0 10zM71.5 189.1c6.4 0 6.4-10 0-10s-6.5 10 0 10zm1237.1 95.5c6.4 0 6.4-10 0-10s-6.5 10 0 10zm-187.1 70.6c6.4 0 6.4-10 0-10s-6.5 10 0 10zm-68.7 47.7c6.4 0 6.4-10 0-10s-6.5 10 0 10zm-135.6-53.4c6.4 0 6.4-10 0-10s-6.4 10 0 10zm-116.4 80.2c6.4 0 6.4-10 0-10s-6.5 10 0 10zm276.8-288.3c6.4 0 6.4-10 0-10s-6.5 10 0 10zm76.3-89.7c6.4 0 6.4-10 0-10s-6.4 10 0 10zm232.9 3.8c6.4 0 6.4-10 0-10s-6.4 10 0 10zm-51.5 59.2c6.4 0 6.4-10 0-10s-6.4 10 0 10zm47.7 43.9c6.4 0 6.4-10 0-10s-6.4 10 0 10zm89.8 91.6c6.4 0 6.4-10 0-10s-6.5 10 0 10zm148.9-139.4c6.4 0 6.4-10 0-10s-6.5 10 0 10zm-15.3 189c6.4 0 6.4-10 0-10s-6.4 10 0 10zm95.5-145.1c6.4 0 6.4-10 0-10s-6.5 10 0 10zm152.7-57.2c6.4 0 6.4-10 0-10s-6.4 10 0 10zm-13.4-51.6c6.4 0 6.4-10 0-10s-6.4 10 0 10zm-112.6 3.8c6.4 0 6.4-10 0-10s-6.5 10 0 10zm-105 9.6c6.4 0 6.4-10 0-10s-6.5 10 0 10zM1894.7 212c6.4 0 6.4-10 0-10s-6.5 10 0 10zm5.7 74.5c6.4 0 6.4-10 0-10s-6.4 10 0 10zm-36.3 24.8c6.4 0 6.4-10 0-10s-6.4 10 0 10zM1509 116.6c6.4 0 6.4-10 0-10s-6.4 10 0 10zm-9.5-64.9c6.4 0 6.4-10 0-10s-6.4 10 0 10zM61.9 55.5c6.4 0 6.5-10 0-10s-6.4 10 0 10zm3.8 106.9c6.4 0 6.4-10 0-10s-6.4 10 0 10zm252-17.2c6.4 0 6.4-10 0-10s-6.4 10 0 10zm236.8-78.3c6.4 0 6.4-10 0-10s-6.5 10 0 10zM201.3 376.2c6.4 0 6.4-10 0-10s-6.5 10 0 10z"/><path id="e1jpemtt300524" fill="none" stroke="#FFF" stroke-linecap="round" stroke-linejoin="round" stroke-width="1" d="M-58.7 602h172.5m-60.6 24.5h116.9m512.3-31.9h87.7m-30.6 23h59.2M525.9 956.7H659m-28.4 16.5h91.8"/><path id="e1jpemtt300525" fill="#FEF7E3" stroke="none" stroke-width="1" d="M318.5 997h31.7c5.7 0 10.4 4.7 10.4 10.4v3.6c0 5.7-4.7 10.4-10.4 10.4h-31.7c-5.7 0-10.4-4.7-10.4-10.4v-3.6c0-5.7 4.7-10.4 10.4-10.4zm508.9 39.9h31.7c5.7 0 10.4 4.7 10.4 10.4v3.6c0 5.7-4.7 10.4-10.4 10.4h-31.7c-5.7 0-10.4-4.7-10.4-10.4v-3.6c0-5.8 4.7-10.4 10.4-10.4zm-119.6-14.7H771c5.7 0 10.4 4.7 10.4 10.4v3.6c0 5.7-4.7 10.4-10.4 10.4h-63.2c-5.7 0-10.4-4.7-10.4-10.4v-3.6c0-5.7 4.7-10.4 10.4-10.4zm-446.6-61.1L213.4 890l-74.2-40.4-57.1-55.2-42.8 55.2-40-12.4-45.7-82.8h-40l-37.1 54.2-53.8 28.5-36.4 99.2-72.4 4.7-90.3 112.5-53.9 13.3-102.2 55.6 862.8-.7-69.1-160.6z"/><path id="e1jpemtt300526" fill="#E1F2F6" stroke="none" stroke-width="1" d="M82.1 794.4l22.3 94.8-22.3-12.7-25.9 7.6-16.9-34.5 42.8-55.2zm203.8 328.2l-35.1-80.5-45.1-28.8-38.1-59.1-63.2 7.6-40.7-38.2-24.4 14.9H10.1l-34.2-40.1-110.7 21.3-54.7 61.1-73.9-11.5-45.2 153.2h594.5z"/><path id="e1jpemtt300527" fill="#FEF7E3" stroke="none" stroke-width="1" d="M104.4 1080l-59.2-90.2H-.6l-50.2 9.5-50.1-26.1-40.7 54.5-23.6 52.2h269.6z"/><path id="e1jpemtt300528" fill="#E1F2F6" stroke="none" stroke-width="1" d="M243.1 956.7l-50.9-52.2-61.6 8.9 79.2 42 33.3 1.3zM79 1080l-51.4-61.3 25.7 63.8L79 1080zm64.1-211.2l-38.7 31.3 54.5-15.7-15.8-15.6zm-138-13.3l34.2 43-24 14.9-10.2-57.9z"/><path id="e1jpemtt300529" fill="#FEF7E3" stroke="none" stroke-width="1" d="M365.6 1098.4l14-52.8 23.7-5.9 16.8-27.2 21.8-25h26.5l22.5-14.7 19 24.7 50.3 5.6 6.8 24.1 40.6 16.1 23 55-265 .1z"/><path id="e1jpemtt300530" fill="#E1F2F6" stroke="none" stroke-width="1" d="M405.9 1098.4l29.6-49.6 34.7-33.4 28 27.6 44.8 5.8 32.6 49.6H405.9zM510 997.6l-5.5 30.8 55.7-25.2-50.2-5.6zm81 100.8l-7.6-37.3 30.7 37.3H591z"/><g transform="translate(643 385.3)" style="animation:e1jpemtt300531_to__to 3000ms linear infinite normal forwards"><path id="e1jpemtt300531" fill="url(#e1jpemtt300531-fill)" stroke="none" stroke-width="1" d="M876.8 566.4h-94.2l-76.8-158.7h-23.3L652 360l-19 15-28-36.8-65.5-18.7-44.8 17.9-12.5-17.9-53.3 3.1-19.6-76.1 64.8-42.3 54.7 71.3 145 16.2 19.6 69.5 117.2 46.6 66.2 158.6z" transform="translate(-643 -385.3)"/></g><g transform="translate(488.8 385.3)" style="animation:e1jpemtt300532_to__to 3000ms linear infinite normal forwards"><path id="e1jpemtt300532" fill="#E1F2F6" stroke="none" stroke-width="1" d="M782.6 566.4H112.2l40.3-152.2 68.5-17 48.6-78.4 63-72.2h76.6l19.6 76.1 53.3-3.1 12.5 17.9 44.8-17.9 65.5 18.7 28 36.8 19-15 30.6 47.7h23.3l76.8 158.6zM673.7 291.7L652 322.6l41.3 38.6-19.6-69.5zm-172.6-11l27.6-5.2-54.7-71.3 27.1 76.5zm317.5 283.7L798.7 495l66.7 71.3-46.8-1.9z" transform="translate(-488.8 -385.3)"/></g><g transform="translate(365 423.8)" style="animation:e1jpemtt300533_to__to 3000ms linear infinite normal forwards"><path id="e1jpemtt300533" fill="#FEF7E3" stroke="none" stroke-width="1" d="M322.5 326.5l34-46.4 52.6 101.4 92.1 26.3 72 159.7H156.7L221 397.1l32.4-46.3 69.1-24.3z" transform="translate(-365 -423.8)"/></g><g transform="translate(356.6 480)" style="animation:e1jpemtt300534_to__to 3000ms linear infinite normal forwards"><path id="e1jpemtt300534" fill="#E1F2F6" stroke="none" stroke-width="1" d="M491.6 566.4l-44.2-108.2-70.2-26.7-22.9-38-54.5 46.8-61.2 32-17.1 94.2 270.1-.1z" transform="translate(-356.6 -480)"/></g><g transform="translate(490.7 568.7)" style="animation:e1jpemtt300535_to__to 3000ms linear infinite normal forwards"><path id="e1jpemtt300535" fill="#FEF7E3" stroke="none" stroke-width="1" d="M79.7 553.8H263c5.7 0 10.4 4.7 10.4 10.4v6.4c0 5.7-4.7 10.4-10.4 10.4H79.7c-5.7 0-10.4-4.7-10.4-10.4v-6.4a10.3 10.3 0 0110.4-10.4zm749.3 0h72.7c5.7 0 10.4 4.7 10.4 10.4v6.4c0 5.7-4.7 10.4-10.4 10.4H829c-5.7 0-10.4-4.7-10.4-10.4v-6.4c0-5.8 4.6-10.4 10.4-10.4zm-504.2 0h41c6.3 0 11.4 5.1 11.4 11.4v7c0 6.3-5.1 11.4-11.4 11.4h-41c-6.3 0-11.4-5.1-11.4-11.4v-7c0-6.3 5.1-11.4 11.4-11.4z" transform="translate(-490.7 -568.7)"/></g><path id="e1jpemtt300536" fill="#383944" stroke="none" stroke-width="1" d="M911.7 884.2h29.7a10 10 0 0110.1 10.1h-39.8v-10.1z"/><path id="e1jpemtt300537" fill="#B8C4C2" stroke="none" stroke-width="1" d="M908 807.8s18.3-24.5 25.6-25.9l39.1-7.7s-25.2 36.7-64.7 33.6z"/><path id="e1jpemtt300538" fill="url(#e1jpemtt300538-fill)" stroke="none" stroke-width="1" d="M950.5 847.7c-.3-24.6-18-39.7-17.1-79.7l-51.7-11.4c.1 12.2 1.2 27.4-5.3 53-13.2 52.2-7.9 84.8 27.4 85.8 35.7.9 47-24.6 46.7-47.7z"/><path id="e1jpemtt300539" fill="#B8C4C2" stroke="none" stroke-width="1" d="M881.4 787.3s-26.2 24.1-30.4 36c-4.2 11.9-4.2 30.8-4.2 30.8s25-20.7 31.2-41.7c4.2-14.3 3.4-25.1 3.4-25.1z"/><path id="e1jpemtt300540" fill="none" stroke="#9FA1A2" stroke-linecap="round" stroke-linejoin="round" stroke-width="1" d="M893.1 787.3c-1 7-2.3 14-4.1 20.9-13.2 52.2-7.9 84.8 27.4 85.8"/><path id="e1jpemtt300541" fill="#383944" stroke="none" stroke-width="1" d="M951.8 760s-7.9-2.2-14.4-3.5a28.1 28.1 0 10-5 12.8l1 .4 18.4-9.7z"/><circle id="e1jpemtt300542" r="20.8" fill="url(#e1jpemtt300542-fill)" stroke="none" stroke-width="1" transform="translate(916.3 757.9)"/><circle id="e1jpemtt300543" r="3.8" fill="#383944" stroke="none" stroke-width="1" transform="translate(911.7 757)"/><path id="e1jpemtt300544" fill="#383944" stroke="none" stroke-width="1" d="M933.4 769.7c-6.8-.3-8.1-8.7-3.4-13.4 4.7-4.7 2.2-17.7-12.7-19.2l4.8-4.6c5 3 9.2 7 12.5 11.6 3.1 4.5 2.1 11 2.9 13.5 1 3.5 4.7 7.4 4.7 7.4l-8.8 4.7zm-55.3 114.5h29.7a10 10 0 0110.1 10.1h-29.7a10 10 0 01-10.1-10.1zm160.5-125h29.7a10 10 0 0110.1 10.1h-39.9l.1-10.1z"/><path id="e1jpemtt300545" fill="#B8C4C2" stroke="none" stroke-width="1" d="M1029.1 659.8s29.6-7.8 36.2-4.3l35.4 18.3s-42.6 12.9-71.6-14z"/><path id="e1jpemtt300546" fill="url(#e1jpemtt300546-fill)" stroke="none" stroke-width="1" d="M1082 703.3c-7.3-25.2-19.3-23.7-21.3-63.7l-52.4-7.6c1 12.1-16.1 60-18.3 94-2.2 34 19 45.4 48.3 46.1 28.9.7 57.1-28.4 43.7-68.8z"/><path id="e1jpemtt300547" fill="#383944" stroke="none" stroke-width="1" d="M1078.5 630.4s-8-1.6-14.6-2.5a28.2 28.2 0 00-33.5-29.1 28.2 28.2 0 00-22.2 33 28.2 28.2 0 0051.6 9.2l1 .3 17.7-10.9z"/><path id="e1jpemtt300548" fill="#B8C4C2" stroke="none" stroke-width="1" d="M1005.2 654.8s-24.8 25.4-28.4 37.6c-3.6 12.2-2.6 31-2.6 31s23.9-22 29-43.3a74.8 74.8 0 002-25.3z"/><circle id="e1jpemtt300549" r="20.8" fill="url(#e1jpemtt300549-fill)" stroke="none" stroke-width="1" transform="translate(1043 630.8)"/><circle id="e1jpemtt300550" r="3.8" fill="#383944" stroke="none" stroke-width="1" transform="translate(1038.2 630.2)"/><path id="e1jpemtt300551" fill="#383944" stroke="none" stroke-width="1" d="M1060.8 641.4c-6.8.2-8.8-8-4.3-13.1 4.5-5.1.9-17.8-14.1-18.3l4.5-4.9c5.1 2.6 9.7 6.2 13.3 10.7 3.4 4.3 2.9 10.8 3.8 13.3 1.3 3.5 5.2 7 5.2 7l-8.4 5.3z"/><path id="e1jpemtt300552" fill="none" stroke="#9FA1A2" stroke-linecap="round" stroke-linejoin="round" stroke-width="1" d="M1017.3 655.7c-1.5 6.9-3.5 13.8-5.8 20.5-17.5 51-14.9 83.9 20.3 87.7"/><path id="e1jpemtt300553" fill="#383944" stroke="none" stroke-width="1" d="M1002.3 761.1h29.7a10 10 0 0110.1 10.1h-29.7a10 10 0 01-10.1-10.1z"/><path id="e1jpemtt300554" fill="#13AA52" stroke="none" stroke-width="1" d="M1730.2 758.2s142.7 103.7 240.6 120.1c0 0-256.2 92.9-240.6-120.1z"/><path id="e1jpemtt300555" fill="#136149" stroke="none" stroke-width="1" d="M1733.2 709.3s-62.9 135.7-214.5 184.8c89.4 42.8 246.6.1 214.5-184.8z"/><path id="e1jpemtt300556" fill="#0AD05B" stroke="none" stroke-width="1" d="M1715 665.4l-99.4 159.9s136.2 33 99.4-159.9zm20-47.8s88.1 99.2 205.3 113.8c-103 62.2-170.8 14.2-196.9-37.6-18.4-36.7-8.4-76.2-8.4-76.2z"/><path id="e1jpemtt300557" fill="#09804C" stroke="none" stroke-width="1" d="M1850.7 295.1l-106-93.1s-14.8 105.6 106 93.1z"/><path id="e1jpemtt300558" fill="#13AA52" stroke="none" stroke-width="1" d="M1747 190l-118.9 108.8s91.5 24.1 116.4-107.4c1.1-5.7 5.6-6.2 2.5-1.4zm-16.7 181.6s70 120.6 188.8 205.3c-182.2 24.1-188.8-205.3-188.8-205.3z"/><path id="e1jpemtt300559" fill="#136149" stroke="none" stroke-width="1" d="M1737.6 393.9S1628 510.4 1538.7 552c112.4 25.9 204-33.2 198.9-158.1z"/><path id="e1jpemtt300560" fill="#A49437" stroke="none" stroke-width="1" d="M1765.2 1027.8h-48.9l-5.1-192.5 5.9-135.3-6.2-71.6 4.5-138 6.7-78.1-2.7-89.3 3.7-128.6h31.9l3.5 162.6 1.5 68.6-5 43.8V660l3 57.2-3 106.7V883l10.2 144.8z"/><path id="e1jpemtt300561" fill="#86681D" stroke="none" stroke-width="1" d="M1737.4 1027.8h-21.2l-5.1-192.5L1717 700l-6.2-71.6 4.5-138 6.7-78.2-2.7-89.3 3.7-128.6h4.2l3.5 162.6 1.5 68.6-5 43.8v190.6l3 57.2-3 106.7v59.1l10.2 144.9z"/><path id="e1jpemtt300562" fill="#FFDD49" stroke="none" stroke-width="1" d="M1746.3 248.6l5.5 110.1-5.5 176L1735 708l16.8 125.2-9.8 185.5" opacity=".4"/><path id="e1jpemtt300563" fill="#0AD05B" stroke="none" stroke-width="1" d="M1762.4 182.5l103 77.7s-79.7 39.4-103-77.7z"/><path id="e1jpemtt300564" fill="#136149" stroke="none" stroke-width="1" d="M1727.4 163.6l-131.8 109.6s73 37.2 141.9-101.6c3.1-6.3-4.6-12.5-10.1-8z"/><path id="e1jpemtt300565" fill="#13AA52" stroke="none" stroke-width="1" d="M1733.1 44.1l43.7 85.8 84 100.1s-102 41.2-127.6-127.1c-2-19.5-2-39.2-.1-58.8z"/><path id="e1jpemtt300566" fill="#0AD05B" stroke="none" stroke-width="1" d="M1733 44.1l-22.1 58.5-92.4 114.6s120.3 37.5 114.5-173.1z"/><path id="e1jpemtt300567" fill="#13AA52" stroke="none" stroke-width="1" d="M1753.8 283.8l174.5 97.2s-158.6 29.9-174.5-97.2z"/><path id="e1jpemtt300568" fill="#09804C" stroke="none" stroke-width="1" d="M1746.6 320.8l177.1 134.4s-148.8 17.8-177.1-134.4z"/><path id="e1jpemtt300569" fill="#136149" stroke="none" stroke-width="1" d="M1746.5 320.8l150.7 197.4c-.1 0-195-55.5-150.7-197.4z"/><path id="e1jpemtt300570" fill="#0AD05B" stroke="none" stroke-width="1" d="M1739.1 318.8l-170.9 164.9s173.6 33.9 170.9-164.9z"/><path id="e1jpemtt300571" fill="#13AA52" stroke="none" stroke-width="1" d="M1554.4 417.5l141-84.3 46.5-21.4c-.1 0-19.8 137.6-187.5 105.7z"/><path id="e1jpemtt300572" fill="#0AD05B" stroke="none" stroke-width="1" d="M1753.8 283.8s71.1 91.8 133.5 116.3c-85.1 42.8-147.7 2.1-133.5-116.3zm-22.7 281.4s-54.4 87.6-174.2 128.4c0 0 202.4 76.6 174.2-128.4z"/><path id="e1jpemtt300573" fill="#13AA52" stroke="none" stroke-width="1" d="M1820.9 686.2l-94.2-105c.1 0-27.1 103 94.2 105z"/><path id="e1jpemtt300574" fill="#09804C" stroke="none" stroke-width="1" d="M1733.5 84.9L1653 248.6s123 39.7 80.5-163.7z"/><path id="e1jpemtt300575" fill="#136149" stroke="none" stroke-width="1" d="M1733.2 77.9l86.1 156.5c-.1 0-128.3 28.4-86.1-156.5zm-12.4 206.7L1582 374.4c-.1 0 80.6 54 138.8-89.8z"/><path id="e1jpemtt300576" fill="#09804C" stroke="none" stroke-width="1" d="M1736.6 552.9l101 108.4s-138.6 6-101-108.4z"/><path id="e1jpemtt300577" fill="#136149" stroke="none" stroke-width="1" d="M1736.6 552.9L1635.2 640s87.5 80.5 101.4-87.1z"/><path id="e1jpemtt300578" fill="#09804C" stroke="none" stroke-width="1" d="M1720.8 284.6l-25.3 48.5-48.8 101.2c-.1.1 95.9 30.5 74.1-149.7z"/><path id="e1jpemtt300579" fill="#136149" stroke="none" stroke-width="1" d="M1735.1 691s115.9 138.7 153.2 143.2c-74.9 46.2-133.5-24-146.9-68.1-13.4-44.1-6.3-75.1-6.3-75.1z"/><path id="e1jpemtt300580" fill="#09804C" stroke="none" stroke-width="1" d="M1846.7 777.1L1735 691s-8 106.3 111.7 86.1zm-119.2-117.2s-78 72.9-208.8 120.6c0 .1 164 91.3 208.8-120.6z"/><path id="e1jpemtt300581" fill="#13AA52" stroke="none" stroke-width="1" d="M1602.7 729.3l85.2-45.4 39.6-24s1 93.3-124.8 69.4z"/><path id="e1jpemtt300582" fill="#136149" stroke="none" stroke-width="1" d="M1737.1 162.2c0-11-2.3-21.8-6.7-31.9V179c-4 8-8.7 15.5-14.3 22.4.5-12.5-1.8-25-6.7-36.4v44.3a167 167 0 01-21.1 19.2c1.8-10.4 1.6-21-.7-31.3l-7.2 37.1c-9 6.2-18.3 11.7-28 16.6-.1-4.8-.7-9.6-1.8-14.2l-3.3 16.8a366 366 0 01-51.6 19.8l142.7-170.7c-.1 0 9.1 26.2-1.3 59.6zm-1.2 454.1a80 80 0 016.7-31.9v48.7c4 8 8.7 15.5 14.3 22.4-.5-12.5 1.8-25 6.7-36.4v44.3a167 167 0 0021.1 19.2 80.5 80.5 0 01.7-31.3l7.3 37.1c8.9 6.2 18.3 11.7 28 16.6.1-4.8.7-9.6 1.8-14.2l3.3 16.8a366 366 0 0051.6 19.8l-142.6-170.7a102 102 0 001.1 59.6zm-17.3 198.8a80.7 80.7 0 00-1.1-32.5l-8.3 48a128.2 128.2 0 01-17.9 19.6 85.4 85.4 0 00-.4-37l-7.6 43.6c-7.5 5.8-15.6 11-24 15.3 3.5-10 5.1-20.4 4.7-30.9l-13.5 35.3c-9.9 4.5-20.1 8.4-30.5 11.5.7-4.8.9-9.6.6-14.4l-6.1 16a371 371 0 01-54.2 10.7L1730 756.6s4.5 27.3-11.4 58.5z" opacity=".4"/><path id="e1jpemtt300583" fill="#B5E6C9" stroke="none" stroke-width="1" d="M1746.8 112.7c-1-15-.5-30.5 3-44.2l5.8 66.5a197 197 0 0017.3 29.4 151 151 0 012.5-50.4l5.3 60.5a196 196 0 0023.9 24.3c-3-14-4-28.5-3-42.8l11.9 50c9.1 7.1 36.2 23.1 36.2 23.1-12-17.2-60.1-92.6-60.1-92.6l-56.4-92.6c-.1.2-1 24 13.6 68.8z" opacity=".3"/><path id="e1jpemtt300584" fill="#136149" stroke="none" stroke-width="1" d="M1728.8 415.3c0-14-3-27.7-8.9-40.3v61.6A163 163 0 011701 465a103 103 0 00-8.9-46v56c-8.6 8.9-18 17-28 24.2 2.1-13 2.3-26.7-.9-39.5l-9.6 46.9a323 323 0 01-37.2 21c-.1-6.1-1-12.1-2.4-18l-4.3 21.2a491 491 0 01-68.4 25l189.2-215.9c-.2-.1 12 33-1.7 75.4zm30.8-87.6a48 48 0 014.1-24.7l3.9 36.7c4.7 5.7 10 10.9 15.9 15.4a51.8 51.8 0 013.7-28.2l3.5 33.4c7.1 4.7 14.6 8.8 22.3 12.3a47.6 47.6 0 01-1.8-23.7l10.1 27.2c9.5 3.8 19.2 7 29 9.6-.3-3.7 0-7.3.7-11l4.6 12.3c17.3 4.3 34.8 7.5 52.4 9.6l-154.3-113.9c0 .1-7 20.8 5.9 45z" opacity=".4"/><path id="e1jpemtt300585" fill="#B5E6C9" stroke="none" stroke-width="1" d="M1763.4 359.7c-1-15-.5-30.5 3-44.2l5.8 66.5a197 197 0 0017.3 29.4 151 151 0 012.5-50.4l5.3 60.5a196 196 0 0023.9 24.3c-3-14-4-28.5-3-42.8l11.9 50a250 250 0 0030.7 20.2c-.5-6.5-.4-13.1.2-19.6l5.4 22.6a311.4 311.4 0 0055.2 22.4l-166.4-220.5c-.1.1-6.3 36.8 8.2 81.6zm-62.8 321.2c3.6-14.6 5.7-30 4.5-44l-17 64.6a188 188 0 01-22 26c4.4-16.4 7.4-34.1 6.1-50.1l-15.5 58.8c-8.7 7.4-18 14-27.7 19.9 5.1-13.2 9.1-27.5 10.2-41.7l-20.2 47.3a252.6 252.6 0 01-33.7 14.7c1.6-6.4 2.6-12.8 3.2-19.4l-9.1 21.4c-18.9 6-38.4 10.3-58.2 12.8L1722.7 602s-.1 37.2-22.1 78.9zm50.4 125.9c-4-14.3-5.9-29-5.4-43.9l18.3 64.2c6.7 9.2 14.3 17.7 22.5 25.5-5.2-16.1-7.6-33-7.1-49.9l16.6 58.4a199 199 0 0028 19.3 149 149 0 01-11.1-41.5l21.1 46.9c11 5.5 22.3 10.2 33.9 14-1.7-6.3-2.9-12.8-3.6-19.3l9.6 21.2a323 323 0 0058.4 11.6l-205.1-185c.2.1 1 37.2 23.9 78.5zm-49.5-495.1c3.9-8 6.5-16.4 7.8-25.2l-17.6 35.8c-4.9 4.7-10.3 8.9-15.9 12.6 4.5-9 8.3-19.1 9.4-28.6l-16 32.5c-5.9 3.3-12.1 6.1-18.5 8.4a91 91 0 0010.9-23.2l-17.4 25.3c-7 2.1-14.2 3.6-21.4 4.6 1.7-3.6 3.1-7.2 4.1-11l-7.9 11.4a191.4 191.4 0 01-35.5.6l140-86.8c.2 0-4.3 21.8-22 43.6z" opacity=".3"/><path id="e1jpemtt300586" fill="#C5E4F2" stroke="none" stroke-width="1" d="M1568.2 1084.9l117.1-82.3 30.2-3.4 13.9 12.5 34.7 1.5 26.6 5.4 97.5 66.2h-320z"/><path id="e1jpemtt300587" fill="#FEF7E3" stroke="none" stroke-width="1" d="M1764.2 1013.3l26.6 5.4 97.5 66.2h-62.1l-62-71.6zm-76.1 71.6l22.9-42.8 28.2 31.3 14.7-9.9 18.2 21.4h-84z"/><path id="e1jpemtt300588" fill="#383944" stroke="none" stroke-width="1" d="M1452 833.1l82.6 176.1s25.7-31.4 10.3-89c-12.7-47.3-92.9-87.1-92.9-87.1zm-22.9 229.2h45.8c10 0 18.2 8.1 18.2 18.2h-64v-18.2z"/><path id="e1jpemtt300589" fill="url(#e1jpemtt300589-fill)" stroke="none" stroke-width="1" d="M1511.4 981.8c-6.6 56.6-54.5 98.7-85.8 98.7h-70v-51.6c62-.1 36.2-107.8 36.2-107.8s4.3-36.5 6.5-64.5c1.3-17.4-4.7-31.9-6.8-32.7a20.6 20.6 0 01-12-10.6c2.8-6.1 5-21.4 6.3-25.4 1.5-4.6 3.5-9.1 5.9-13.3a20.7 20.7 0 0127.2 19.6v.3s43.9 36.7 42 38.7c49.6 38.6 50.5 148.6 50.5 148.6z"/><path id="e1jpemtt300590" fill="#383944" stroke="none" stroke-width="1" d="M1355.6 1054.7v25.8h-45.2l45.2-25.8z"/><path id="e1jpemtt300591" fill="#FFDD49" stroke="none" stroke-width="1" d="M1447.2 820.6a38 38 0 01-39.2 37.1c-3.3 0-25.9-39.4-28.3-44.4 2.8-6.1 5-21.4 6.3-25.4 1.5-4.6 3.5-9.1 5.9-13.3a20.7 20.7 0 0127.1 19.6v.2l28.2 26.2z"/><path id="e1jpemtt300592" fill="#383944" stroke="none" stroke-width="1" d="M1407 997.6c-12.9 17.7-29.9 31.3-51.4 31.3V876.4c0-9 2.1-17.8 6.3-25.8v-.1c6.3-13.2 12.8-26.5 17.7-37.1 2.4 5 30.8 32 40.4 53.4a130.7 130.7 0 01-13 130.8zm112.8-238.3c-26.3 11.5-60.5 54.1-58.5 74.3l-18.2-6.7c-18.5-7.5-22.9-11.2-24-32.5a20.7 20.7 0 00-27.1-19.7 52 52 0 0144.9-28.4c22.5 0 34.8 16 37.6 23.3l44.6-12.3c1.2-.5 1.6 1.4.7 2z"/><circle id="e1jpemtt300593" r="3.9" fill="#FFF" stroke="none" stroke-width="1" transform="translate(1431.8 781.6)"/><path id="e1jpemtt300594" fill="#383944" stroke="none" stroke-width="1" d="M1358.1 941.2l33.7-191.6s-39.1 10.9-59.6 66.8c-16.8 46.2 25.9 124.8 25.9 124.8z"/><path id="e1jpemtt300595" fill="#F97216" stroke="none" stroke-width="1" d="M1506.4 764.3s-13.9 8.3-19.3 13.3a664.9 664.9 0 01-14.8 13.7s2.7-6.9 13.4-16.3 20.7-10.7 20.7-10.7z"/><path id="e1jpemtt300596" fill="#383944" stroke="none" stroke-width="1" d="M1167.4 731.6l-155.8 76.2s4.2-39 50-66c48.4-28.7 105.8-10.2 105.8-10.2zm-4.5 202.1h-57c0-9 7.3-16.2 16.2-16.2h40.8v16.2z"/><path id="e1jpemtt300597" fill="url(#e1jpemtt300597-fill)" stroke="none" stroke-width="1" d="M1089.5 845.7c5.9 50.5 48.6 88 76.5 88h62.4v-46c-55.3-.1-32.3-96.1-32.3-96.1s-3.9-32.5-5.8-57.5c-1.2-15.5 4.2-28.5 6-29.1 4.7-1.6 8.5-5 10.7-9.4-2.5-5.4-4.5-19.1-5.7-22.6a74 74 0 00-5.2-11.9 18.4 18.4 0 00-24.1 17.6v.2s-39.1 32.7-37.4 34.5c-44.2 34.3-45.1 132.3-45.1 132.3z"/><path id="e1jpemtt300598" fill="#383944" stroke="none" stroke-width="1" d="M1228.4 910.7v23h40.3l-40.3-23z"/><path id="e1jpemtt300599" fill="#FFDD49" stroke="none" stroke-width="1" d="M1146.8 702a33.9 33.9 0 0034.9 33.1c3 0 23.1-35.1 25.3-39.5-2.5-5.4-4.5-19.1-5.7-22.6a74 74 0 00-5.2-11.9 18.4 18.4 0 00-24.1 17.5v.2l-25.2 23.2z"/><path id="e1jpemtt3005100" fill="#383944" stroke="none" stroke-width="1" d="M1182.6 859.8c11.5 15.8 26.6 27.9 45.8 27.9v-136c0-8-1.9-15.9-5.6-23v-.1c-5.6-11.8-11.5-23.6-15.8-33.1-2.1 4.4-27.4 28.5-36 47.6a117 117 0 0011.6 116.7zm-100.5-212.5c23.4 10.2 53.9 48.3 52.2 66.2l16.3-6c16.5-6.7 20.4-10 21.4-29a18.4 18.4 0 0124.1-17.5 46.5 46.5 0 00-40-25.3 36.5 36.5 0 00-33.6 20.8l-39.7-11c-1.2-.4-1.6 1.3-.7 1.8z"/><circle id="e1jpemtt3005101" r="3.5" fill="#FFF" stroke="none" stroke-width="1" transform="translate(1160.6 667.2)"/><path id="e1jpemtt3005102" fill="#383944" stroke="none" stroke-width="1" d="M1287.7 878.4l-82-152.8s36.2-1.7 69.1 40c27.2 34.2 12.9 112.8 12.9 112.8z"/><path id="e1jpemtt3005103" fill="#F97216" stroke="none" stroke-width="1" d="M1094.1 651.8s12.4 7.4 17.2 11.9l13.2 12.2s-2.4-6.1-11.9-14.5-18.6-9.6-18.5-9.6z"/><path id="e1jpemtt3005104" fill="none" stroke="#9FA1A2" stroke-linecap="round" stroke-linejoin="round" stroke-width="1" d="M1208.6 714.5c-8.6 9.8-17 19.8-22.2 31.4a116.5 116.5 0 0011.6 116.6 80.4 80.4 0 0020 19.9m146.9 127.5c9.3-9.1 18.5-18.4 24.6-29.6 22.7-41.2 18.4-92-10.9-128.9"/><g transform="translate(476 436)" style="animation:e1jpemtt3005106_to__to 3000ms linear infinite normal forwards" id="e1jpemtt3005105"><path id="e1jpemtt3005106" fill="#7DC5DB" stroke="none" stroke-width="1" d="M402.4 463.1v15.7h-28.7v-15.7h-56.6v-18.9l50.8-51.7h34.5v50.3h15v20.3h-15zm-28.7-47.6l-27.1 27.4h27.1v-27.4zm103.1 65.9c-25.6 0-51.2-10.2-51.2-45 0-28.5 15-45.9 53.7-45.9 32.8 0 48.4 16.8 48.4 45.6-.1 29.6-18.7 45.3-50.9 45.3zm.2-72c-16.7 0-20.3 15.2-20.3 25.6 0 7.8 1 26.6 19.8 26.6 15.4 0 20-12.9 20-26.8 0-8.5-2-25.4-19.5-25.4zm143 53.7v15.7h-28.7v-15.7h-56.6v-18.9l50.8-51.7H620v50.3h15v20.3h-15zm-28.7-47.6l-27.1 27.4h27.1v-27.4z" transform="translate(-476 -436)"/></g><clipPath id="e1jpemtt3005107"><use id="e1jpemtt3005108" width="1943.9" height="1106.1" fill="#000" stroke="none" stroke-width="1" xlink:href="#e1jpemtt30052"/></clipPath></g></svg>