<svg xmlns="http://www.w3.org/2000/svg" xmlns:xlink="http://www.w3.org/1999/xlink" id="Layer_1" x="0" y="0" version="1.1" viewBox="0 0 1920 1080" xml:space="preserve"><style>.st3,.st5,.st7{clip-path:url(#SVGID_2_);fill:#e1f2f6}.st5,.st7{fill:#c5e4f2}.st7{opacity:.45;fill:#7dc5db;enable-background:new}.st8{fill:none;stroke:#fff;stroke-linecap:round;stroke-linejoin:round}.st15,.st8{clip-path:url(#SVGID_2_)}.st16{fill:#fff}.st17,.st19{clip-path:url(#SVGID_2_);fill:#fef7e3}.st19{fill:#383944}.st20{fill:#b8c4c2}.st20,.st22,.st26{clip-path:url(#SVGID_2_)}.st22{stroke:#9fa1a2;stroke-linecap:round;stroke-linejoin:round;fill:none}.st26{fill:#13aa52}.st27,.st28,.st29,.st33,.st34{clip-path:url(#SVGID_2_);fill:#136149}.st28,.st29,.st33,.st34{fill:#0ad05b}.st29,.st33,.st34{fill:#09804c}.st33,.st34{opacity:.4;fill:#136149;enable-background:new}.st34{opacity:.35;fill:#b5e6c9}.st36,.st37,.st38{clip-path:url(#SVGID_2_);fill:#ffdd49}.st37,.st38{fill:#fff}.st38{fill:#f97216}.st40{fill:#7dc5db}</style><defs><path id="SVGID_1_" d="M-11.5-7.7h1943.9v1106.1H-11.5z"/></defs><clipPath id="SVGID_2_"><use overflow="visible" xlink:href="#SVGID_1_"/></clipPath><linearGradient id="SVGID_3_" x1="780.4" x2="1971.7" y1="888.8" y2="888.8" gradientTransform="matrix(1 0 0 -1 0 1080)" gradientUnits="userSpaceOnUse"><stop offset="0" stop-color="#fcebe2"/><stop offset=".2" stop-color="#fbf1eb"/><stop offset=".6" stop-color="#f9f8f6"/><stop offset="1" stop-color="#f9fbfa"/></linearGradient><path fill="url(#SVGID_3_)" d="M1969.8-7.7H971.2a30.5 30.5 0 100 61h314.5a30.5 30.5 0 0130.5 30.5v8.3a30.5 30.5 0 01-30.5 30.5H830.3a50 50 0 000 99.8h698.4a30.5 30.5 0 0130.5 30.5v1.3a30.5 30.5 0 01-30.5 30.5H1144a52.6 52.6 0 000 105.1h827.7" clip-path="url(#SVGID_2_)" opacity=".5"/><linearGradient id="SVGID_4_" x1="2014.9" x2="3206.1" y1="492.2" y2="492.2" gradientTransform="matrix(-1 0 0 1 3005.1 -195.3)" gradientUnits="userSpaceOnUse"><stop offset="0" stop-color="#fcebe2"/><stop offset=".2" stop-color="#fbf1eb"/><stop offset=".6" stop-color="#f9f8f6"/><stop offset="1" stop-color="#f9fbfa"/></linearGradient><path fill="url(#SVGID_4_)" d="M-199.1 495.8h998.6a30.5 30.5 0 100-61H485a30.5 30.5 0 01-30.5-30.5V396a30.5 30.5 0 0130.5-30.5h455.3a49.8 49.8 0 100-99.8H242a30.5 30.5 0 01-30.6-30.5v-1.3a30.6 30.6 0 0130.5-30.6h384.7a52.6 52.6 0 000-105.2H-201" clip-path="url(#SVGID_2_)" opacity=".5"/><linearGradient id="SVGID_5_" x1="1366.9" x2="1366.9" y1="519.4" y2="811.3" gradientTransform="matrix(1 0 0 -1 0 1080)" gradientUnits="userSpaceOnUse"><stop offset="0" stop-color="#7dc5db"/><stop offset=".2" stop-color="#9fd4e4"/><stop offset=".4" stop-color="#bce1ec"/><stop offset=".6" stop-color="#d0ebf2"/><stop offset=".8" stop-color="#ddf0f5"/><stop offset="1" stop-color="#e1f2f6"/></linearGradient><path fill="url(#SVGID_5_)" d="M1967.8 559.6l-800 .7-341.8.3h-63.5c16.6-58.4 36.7-92.3 59.9-111.2 36.5-29.8 81-22.3 132.5-13.8 71.1 11.7 155.8 25.1 251.8-55.3 185.4-155.4 313.4 29 486.5-66.4 162.1-89.4 231.2-31.8 259.6 50 2.1 6 3.9 12.1 5.6 18.3 21.8 81.5 9.4 177.4 9.4 177.4z" clip-path="url(#SVGID_2_)"/><path d="M-29.7 529.6H1952v578.5H-29.7V529.6z" class="st3"/><linearGradient id="SVGID_6_" x1="1315.9" x2="1372.2" y1="75.4" y2="611.3" gradientTransform="matrix(1 0 0 -1 0 1080)" gradientUnits="userSpaceOnUse"><stop offset="0" stop-color="#e1f2f6" stop-opacity="0"/><stop offset=".6" stop-color="#e1f2f6" stop-opacity="0"/><stop offset=".6" stop-color="#e4f0f5" stop-opacity=".1"/><stop offset=".6" stop-color="#ebecf2" stop-opacity=".2"/><stop offset=".7" stop-color="#f6e6ed" stop-opacity=".4"/><stop offset=".7" stop-color="#ffe1ea" stop-opacity=".6"/><stop offset=".8" stop-color="#f8dfe9" stop-opacity=".6"/><stop offset=".8" stop-color="#e1d7e5" stop-opacity=".6"/><stop offset=".9" stop-color="#bacbde" stop-opacity=".7"/><stop offset=".9" stop-color="#84bad4" stop-opacity=".8"/><stop offset="1" stop-color="#3ea4c8"/><stop offset="1" stop-color="#2f9fc5"/></linearGradient><path fill="url(#SVGID_6_)" d="M1952 529.6v541.8L695.3 789.9l243.3-238.3 22.5-22H1952z" clip-path="url(#SVGID_2_)"/><path d="M1231.6 1094.1a86.3 86.3 0 01-85.3 87.3H-42.3V529.6h971.5a54.8 54.8 0 0154.8 54.8c0 42.5-34.5 77-77 77.1h-23.4a173.7 173.7 0 000 347.3h260.6a87.1 87.1 0 0187.4 85.3z" class="st5"/><linearGradient id="SVGID_7_" x1="141.1" x2="374.7" y1="375.6" y2="780.3" gradientTransform="matrix(1 0 0 -1 0 1080)" gradientUnits="userSpaceOnUse"><stop offset="0" stop-color="#2f9fc5"/><stop offset="0" stop-color="#33a1c6"/><stop offset=".1" stop-color="#53b1cf"/><stop offset=".2" stop-color="#6abcd6"/><stop offset=".2" stop-color="#78c3da"/><stop offset=".3" stop-color="#7dc5db"/><stop offset=".4" stop-color="#99cbde"/><stop offset=".5" stop-color="#bed3e2"/><stop offset=".6" stop-color="#dad9e6"/><stop offset=".8" stop-color="#efdde8"/><stop offset=".9" stop-color="#fbe0ea"/><stop offset="1" stop-color="#ffe1ea"/></linearGradient><path fill="url(#SVGID_7_)" d="M671.2 529.5c-76.8-171.6-253.1-173.4-385.6-114.8-142.2 62.9-217.9-274.3-404.1.1-91.4 134.8-29.8 114.7-29.8 114.7h819.5z" clip-path="url(#SVGID_2_)"/><path d="M41.1 555.6h617.1a70.8 70.8 0 010 141.6H41.1a70.9 70.9 0 010-141.6zM241 1035.3h617.1a70.8 70.8 0 010 141.6H241a70.7 70.7 0 110-141.6z" class="st7"/><path d="M1967.2 561.6s-940.5-42.9-928.7 85.5c15.6 168.6 1080.5-210.4 658.6 134.5" class="st8"/><path d="M983.5 712c-161.8-7.4-255.6 222.5-53.3 253s345.6-264.3 502.5-236.6-154.2 371.4 76.9 210.2c305-212.7 453.3-97.2 478.4 70.7" class="st8"/><linearGradient id="SVGID_8_" x1="-5793.3" x2="-5793.3" y1="-1652.6" y2="-1861" gradientTransform="matrix(-1 0 0 1 -5220.7 1849.8)" gradientUnits="userSpaceOnUse"><stop offset="0" stop-color="#c5e4f2" stop-opacity="0"/><stop offset=".2" stop-color="#c5e4f2" stop-opacity=".3"/><stop offset=".5" stop-color="#c5e4f2" stop-opacity=".6"/><stop offset=".7" stop-color="#c5e4f2" stop-opacity=".8"/><stop offset=".9" stop-color="#c5e4f2" stop-opacity=".9"/><stop offset="1" stop-color="#c5e4f2"/></linearGradient><path fill="url(#SVGID_8_)" d="M243.4 197.1h658.5A86.8 86.8 0 00800 112.6a120.8 120.8 0 00-152.9-70 167.9 167.9 0 00-282.7 61.5 96.2 96.2 0 00-121 92.8v.2z" clip-path="url(#SVGID_2_)"/><linearGradient id="SVGID_9_" x1="-328.8" x2="-328.8" y1="-1583.5" y2="-1729.7" gradientTransform="translate(440.6 1849.8)" gradientUnits="userSpaceOnUse"><stop offset="0" stop-color="#c5e4f2" stop-opacity="0"/><stop offset=".2" stop-color="#c5e4f2" stop-opacity=".3"/><stop offset=".5" stop-color="#c5e4f2" stop-opacity=".6"/><stop offset=".7" stop-color="#c5e4f2" stop-opacity=".8"/><stop offset=".9" stop-color="#c5e4f2" stop-opacity=".9"/><stop offset="1" stop-color="#c5e4f2"/></linearGradient><path fill="url(#SVGID_9_)" d="M302.4 263.6a61 61 0 00-91-53A107.2 107.2 0 00.7 204.7a63.4 63.4 0 00-77.4 45.1 65.3 65.3 0 00-2.1 16.4" clip-path="url(#SVGID_2_)"/><linearGradient id="SVGID_10_" x1="-6883.5" x2="-6883.5" y1="-1647.9" y2="-1811.6" gradientTransform="matrix(-1 0 0 1 -5220.7 1849.8)" gradientUnits="userSpaceOnUse"><stop offset="0" stop-color="#c5e4f2" stop-opacity="0"/><stop offset=".2" stop-color="#c5e4f2" stop-opacity=".3"/><stop offset=".5" stop-color="#c5e4f2" stop-opacity=".6"/><stop offset=".7" stop-color="#c5e4f2" stop-opacity=".8"/><stop offset=".9" stop-color="#c5e4f2" stop-opacity=".9"/><stop offset="1" stop-color="#c5e4f2"/></linearGradient><path fill="url(#SVGID_10_)" d="M1404 201.8h517.6a68.2 68.2 0 00-80-66.5 95.2 95.2 0 00-120.4-54.9 132 132 0 00-222.2 48.3 75.8 75.8 0 00-95 73.1z" clip-path="url(#SVGID_2_)"/><linearGradient id="SVGID_11_" x1="762" x2="762" y1="-1585.1" y2="-1718.2" gradientTransform="translate(440.6 1849.8)" gradientUnits="userSpaceOnUse"><stop offset="0" stop-color="#c5e4f2" stop-opacity="0"/><stop offset=".2" stop-color="#c5e4f2" stop-opacity=".3"/><stop offset=".5" stop-color="#c5e4f2" stop-opacity=".6"/><stop offset=".7" stop-color="#c5e4f2" stop-opacity=".8"/><stop offset=".9" stop-color="#c5e4f2" stop-opacity=".9"/><stop offset="1" stop-color="#c5e4f2"/></linearGradient><path fill="url(#SVGID_11_)" d="M1376 262.2a55.4 55.4 0 00-82.8-48.2 97.6 97.6 0 00-191.8-5.3 57.6 57.6 0 00-72.3 56" clip-path="url(#SVGID_2_)"/><linearGradient id="SVGID_12_" x1="204.5" x2="355.2" y1="474.1" y2="735" gradientTransform="matrix(1 0 0 -1 0 1080)" gradientUnits="userSpaceOnUse"><stop offset="0" stop-color="#2f9fc5"/><stop offset="0" stop-color="#33a1c6"/><stop offset=".1" stop-color="#53b1cf"/><stop offset=".2" stop-color="#6abcd6"/><stop offset=".2" stop-color="#78c3da"/><stop offset=".3" stop-color="#7dc5db"/><stop offset=".4" stop-color="#98cbde"/><stop offset=".6" stop-color="#c4d4e3"/><stop offset=".8" stop-color="#e4dbe7"/><stop offset=".9" stop-color="#f8dfe9"/><stop offset="1" stop-color="#ffe1ea"/></linearGradient><path fill="url(#SVGID_12_)" d="M645.5 550.4c-102.6-86.1-249.5-75-366.9-23.1C138 589.5 53.4 314.7-102.2 428.9 64.7 223.3 139.8 525 275 465.2c124.5-55 287.5-56.8 370.5 85.2z" clip-path="url(#SVGID_2_)" opacity=".7"/><linearGradient id="SVGID_13_" x1="1410.4" x2="1410.4" y1="549.3" y2="746.5" gradientTransform="matrix(1 0 0 -1 0 1080)" gradientUnits="userSpaceOnUse"><stop offset="0" stop-color="#e1f2f6"/><stop offset=".2" stop-color="#ddf0f5"/><stop offset=".4" stop-color="#d0ebf2"/><stop offset=".6" stop-color="#bce1ec"/><stop offset=".8" stop-color="#9fd4e4"/><stop offset="1" stop-color="#7dc5db"/></linearGradient><path fill="url(#SVGID_13_)" d="M1967.2 380.3c-2.9.5-5.9 1.1-8.8 1.8-35.2 7.7-76 23.6-123.3 49.6-212.4 117.1-369.4-109.2-596.9 81.5-24.1 20.2-38 17.4-70.4 17.4l-312.5-1.4s-6.7-4.7 6.1-15.1c36.5-29.8 81-22.3 132.5-13.8 71.1 11.6 155.8 25.1 251.8-55.4 185.4-155.4 313.4 29 486.5-66.4 112.5-62 180.2-53.3 220.6-14.8 5.2 5.2 10.1 10.7 14.4 16.6z" clip-path="url(#SVGID_2_)" opacity=".7"/><g class="st15"><path d="M1848.8 656.9c6.4 0 6.4-10 0-10s-6.5 10 0 10zM1705.6 582.4c6.4 0 6.4-10 0-10s-6.4 10 0 10zM1648.3 676c6.4 0 6.4-10 0-10s-6.4 10 0 10zM1289.4 626.3c6.4 0 6.4-10 0-10s-6.4 10 0 10zM1186.3 561.4c6.4 0 6.4-10 0-10s-6.4 10 0 10zM1003.9 784.8c6.4 0 6.4-10 0-10s-6.4 10 0 10zM833.1 870.7c6.4 0 6.4-10 0-10s-6.4 10 0 10zM749.1 838.3c6.4 0 6.5-10 0-10s-6.4 10 0 10zM770.1 777.2c6.4 0 6.5-10 0-10s-6.4 10 0 10zM960 872.6c6.4 0 6.4-10 0-10s-6.5 10 0 10zM806.8 938.7c6.4 0 6.4-10 0-10s-6.5 10 0 10zM1022 926.1c6.4 0 6.4-10 0-10s-6.5 10 0 10zM1193.9 1002.4c6.4 0 6.4-10 0-10s-6.4 10 0 10zM1308.5 1006.3c6.4 0 6.4-10 0-10s-6.4 10 0 10zM1337.1 970c6.4 0 6.4-10 0-10s-6.4 10 0 10zM1179.6 920.3c6.4 0 6.4-10 0-10s-6.5 10 0 10zM1287.5 842.1c6.4 0 6.4-10 0-10s-6.4 10 0 10zM1524.2 937.5c6.4 0 6.4-10 0-10s-6.4 10 0 10zM1604.4 1040.6c6.4 0 6.4-10 0-10s-6.4 10 0 10zM1867.9 971.9c6.4 0 6.4-10 0-10s-6.5 10 0 10zM1885.1 796.3c6.4 0 6.4-10 0-10s-6.5 10 0 10zM1843.1 719.9c6.4 0 6.4-10 0-10s-6.5 10 0 10zM1812.5 782.9c6.4 0 6.4-10 0-10s-6.4 10 0 10zM1612 624.4c6.4 0 6.4-10 0-10s-6.4 10 0 10zM1337.1 593.9c6.4 0 6.4-10 0-10s-6.4 10 0 10zM1862.1 599.6c6.4 0 6.4-10 0-10s-6.4 10 0 10zM1743.8 676c6.4 0 6.4-10 0-10s-6.5 10 0 10zM1228.3 937.5c6.4 0 6.4-10 0-10s-6.4 10 0 10zM967.7 742.8c6.4 0 6.5-10 0-10s-6.5 10 0 10zM1232.1 609.2c6.4 0 6.4-10 0-10s-6.4 10 0 10zM781.6 818.4c6.4 0 6.4-10 0-10s-6.5 10 0 10zM1119.5 952.8c6.4 0 6.4-10 0-10s-6.5 10 0 10zM1404 933.7c6.4 0 6.4-10 0-10s-6.4 10 0 10z" class="st16"/><path d="M1890.8 802c6.4 0 6.4-10 0-10s-6.5 10 0 10zM1785.8 599.6c6.4 0 6.4-10 0-10s-6.5 10 0 10zM1869.8 905.1c6.4 0 6.4-10 0-10s-6.5 10 0 10zM1812.5 1019.6c6.4 0 6.4-10 0-10s-6.4 10 0 10zM1522.3 996.7c6.4 0 6.4-10 0-10s-6.4 10 0 10zM1251.2 1044.4c6.4 0 6.4-10 0-10s-6.4 10 0 10zM930.1 992.8c6.4 0 6.4-10 0-10s-6.4 10 0 10zM889.8 971.9c6.4 0 6.5-10 0-10s-6.5 10 0 10zM1042.1 760c6.4 0 6.4-10 0-10s-6.4 10 0 10zM1228.3 555.7c6.4 0 6.4-10 0-10s-6.4 10 0 10z" class="st16"/></g><path d="M142.1 70.7c6.4 0 6.4-10 0-10s-6.5 10 0 10zM111.6 276.9c6.4 0 6.4-10 0-10s-6.5 10 0 10zM226.1 84.1c6.4 0 6.4-10 0-10s-6.4 10 0 10zM229.9 305.6c6.4 0 6.4-10 0-10s-6.4 10 0 10zM449.5 225.4c6.4 0 6.4-10 0-10s-6.5 10 0 10zM648 339.9c6.4 0 6.4-10 0-10s-6.5 10 0 10zM722.5 276.9c6.4 0 6.5-10 0-10s-6.5 10 0 10zM1022.2 170c6.4 0 6.4-10 0-10s-6.4 10 0 10zM852.3 45.9c6.4 0 6.5-10 0-10s-6.5 10 0 10zM728.2 101.3c6.4 0 6.5-10 0-10s-6.4 10 0 10zM512.5 135.6c6.4 0 6.4-10 0-10s-6.5 10 0 10zM476.2 63.1c6.4 0 6.5-10 0-10s-6.4 10 0 10zM317.7 40.2c6.4 0 6.4-10 0-10s-6.4 10 0 10zM71.5 189.1c6.4 0 6.4-10 0-10s-6.5 10 0 10zM1308.6 284.6c6.4 0 6.4-10 0-10s-6.5 10 0 10zM1121.5 355.2c6.4 0 6.4-10 0-10s-6.5 10 0 10zM1052.8 402.9c6.4 0 6.4-10 0-10s-6.5 10 0 10zM917.2 349.5c6.4 0 6.4-10 0-10s-6.4 10 0 10zM800.8 429.7c6.4 0 6.4-10 0-10s-6.5 10 0 10zM1077.6 141.4c6.4 0 6.4-10 0-10s-6.5 10 0 10zM1153.9 51.7c6.4 0 6.4-10 0-10s-6.4 10 0 10zM1386.8 55.5c6.4 0 6.4-10 0-10s-6.4 10 0 10zM1335.3 114.7c6.4 0 6.4-10 0-10s-6.4 10 0 10zM1383 158.6c6.4 0 6.4-10 0-10s-6.4 10 0 10zM1472.8 250.2c6.4 0 6.4-10 0-10s-6.5 10 0 10zM1621.7 110.8c6.4 0 6.4-10 0-10s-6.5 10 0 10zM1606.4 299.8c6.4 0 6.4-10 0-10s-6.4 10 0 10zM1701.9 154.7c6.4 0 6.4-10 0-10s-6.5 10 0 10zM1854.6 97.5c6.4 0 6.4-10 0-10s-6.4 10 0 10zM1841.2 45.9c6.4 0 6.4-10 0-10s-6.4 10 0 10zM1728.6 49.7c6.4 0 6.4-10 0-10s-6.5 10 0 10zM1623.6 59.3c6.4 0 6.4-10 0-10s-6.5 10 0 10zM1894.7 212c6.4 0 6.4-10 0-10s-6.5 10 0 10zM1900.4 286.5c6.4 0 6.4-10 0-10s-6.4 10 0 10zM1864.1 311.3c6.4 0 6.4-10 0-10s-6.4 10 0 10zM1509 116.6c6.4 0 6.4-10 0-10s-6.4 10 0 10zM1499.5 51.7c6.4 0 6.4-10 0-10s-6.4 10 0 10zM61.9 55.5c6.4 0 6.5-10 0-10s-6.4 10 0 10zM65.7 162.4c6.4 0 6.4-10 0-10s-6.4 10 0 10zM317.7 145.2c6.4 0 6.4-10 0-10s-6.4 10 0 10zM554.5 66.9c6.4 0 6.4-10 0-10s-6.5 10 0 10zM201.3 376.2c6.4 0 6.4-10 0-10s-6.5 10 0 10z" class="st3"/><path d="M-58.7 602h172.5M53.2 626.5h116.9M682.4 594.6h87.7M739.5 617.6h59.2M525.9 956.7H659M630.6 973.2h91.8" class="st8"/><path d="M318.5 997h31.7c5.7 0 10.4 4.7 10.4 10.4v3.6c0 5.7-4.7 10.4-10.4 10.4h-31.7c-5.7 0-10.4-4.7-10.4-10.4v-3.6c0-5.7 4.7-10.4 10.4-10.4zM827.4 1036.9h31.7c5.7 0 10.4 4.7 10.4 10.4v3.6c0 5.7-4.7 10.4-10.4 10.4h-31.7c-5.7 0-10.4-4.7-10.4-10.4v-3.6c0-5.8 4.7-10.4 10.4-10.4zM707.8 1022.2H771c5.7 0 10.4 4.7 10.4 10.4v3.6c0 5.7-4.7 10.4-10.4 10.4h-63.2c-5.7 0-10.4-4.7-10.4-10.4v-3.6c0-5.7 4.7-10.4 10.4-10.4zM261.2 961.1L213.4 890l-74.2-40.4-57.1-55.2-42.8 55.2-40-12.4-45.7-82.8h-40l-37.1 54.2-53.8 28.5-36.4 99.2-72.4 4.7-90.3 112.5-53.9 13.3-102.2 55.6 862.8-.7-69.1-160.6z" class="st17"/><path d="M82.1 794.4l22.3 94.8-22.3-12.7-25.9 7.6-16.9-34.5 42.8-55.2zM285.9 1122.6l-35.1-80.5-45.1-28.8-38.1-59.1-63.2 7.6-40.7-38.2-24.4 14.9H10.1l-34.2-40.1-110.7 21.3-54.7 61.1-73.9-11.5-45.2 153.2h594.5z" class="st3"/><path d="M104.4 1080l-59.2-90.2H-.6l-50.2 9.5-50.1-26.1-40.7 54.5-23.6 52.2h269.6z" class="st17"/><path d="M243.1 956.7l-50.9-52.2-61.6 8.9 79.2 42 33.3 1.3zM79 1080l-51.4-61.3 25.7 63.8L79 1080zM143.1 868.8l-38.7 31.3 54.5-15.7-15.8-15.6zM5.1 855.5l34.2 43-24 14.9-10.2-57.9z" class="st3"/><path d="M365.6 1098.4l14-52.8 23.7-5.9 16.8-27.2 21.8-25h26.5l22.5-14.7 19 24.7 50.3 5.6 6.8 24.1 40.6 16.1 23 55-265 .1z" class="st17"/><path d="M405.9 1098.4l29.6-49.6 34.7-33.4 28 27.6 44.8 5.8 32.6 49.6H405.9zM510 997.6l-5.5 30.8 55.7-25.2-50.2-5.6zM591 1098.4l-7.6-37.3 30.7 37.3H591z" class="st3"/><linearGradient id="SVGID_14_" x1="611.9" x2="707" y1="629.2" y2="765" gradientTransform="matrix(1 0 0 -1 0 1080)" gradientUnits="userSpaceOnUse"><stop offset="0" stop-color="#fef7e3"/><stop offset=".5" stop-color="#fef7e1"/><stop offset=".8" stop-color="#fef5d9"/><stop offset="1" stop-color="#fef3cc"/><stop offset="1" stop-color="#fef2c8"/></linearGradient><path fill="url(#SVGID_14_)" d="M876.8 566.4h-94.2l-76.8-158.7h-23.3L652 360l-19 15-28-36.8-65.5-18.7-44.8 17.9-12.5-17.9-53.3 3.1-19.6-76.1 64.8-42.3 54.7 71.3 145 16.2 19.6 69.5 117.2 46.6 66.2 158.6z" clip-path="url(#SVGID_2_)"/><path d="M782.6 566.4H112.2l40.3-152.2 68.5-17 48.6-78.4 63-72.2h76.6l19.6 76.1 53.3-3.1 12.5 17.9 44.8-17.9 65.5 18.7 28 36.8 19-15 30.6 47.7h23.3l76.8 158.6zM673.7 291.7L652 322.6l41.3 38.6-19.6-69.5zM501.1 280.7l27.6-5.2-54.7-71.3 27.1 76.5zM818.6 564.4L798.7 495l66.7 71.3-46.8-1.9z" class="st3"/><path d="M322.5 326.5l34-46.4 52.6 101.4 92.1 26.3 72 159.7H156.7L221 397.1l32.4-46.3 69.1-24.3z" class="st17"/><path d="M491.6 566.4l-44.2-108.2-70.2-26.7-22.9-38-54.5 46.8-61.2 32-17.1 94.2 270.1-.1z" class="st3"/><path d="M79.7 553.8H263c5.7 0 10.4 4.7 10.4 10.4v6.4c0 5.7-4.7 10.4-10.4 10.4H79.7c-5.7 0-10.4-4.7-10.4-10.4v-6.4a10.3 10.3 0 0110.4-10.4zM829 553.8h72.7c5.7 0 10.4 4.7 10.4 10.4v6.4c0 5.7-4.7 10.4-10.4 10.4H829c-5.7 0-10.4-4.7-10.4-10.4v-6.4c0-5.8 4.6-10.4 10.4-10.4zM324.8 553.8h41c6.3 0 11.4 5.1 11.4 11.4v7c0 6.3-5.1 11.4-11.4 11.4h-41c-6.3 0-11.4-5.1-11.4-11.4v-7c0-6.3 5.1-11.4 11.4-11.4z" class="st17"/><path d="M911.7 884.2h29.7a10 10 0 0110.1 10.1h-39.8v-10.1z" class="st19"/><path d="M908 807.8s18.3-24.5 25.6-25.9l39.1-7.7s-25.2 36.7-64.7 33.6z" class="st20"/><linearGradient id="SVGID_15_" x1="847.6" x2="928.2" y1="213.2" y2="213.2" gradientTransform="scale(1 -1) rotate(-4.1 -13495 -637.8)" gradientUnits="userSpaceOnUse"><stop offset="0" stop-color="#b8c4c2"/><stop offset=".1" stop-color="#bfcac8"/><stop offset=".3" stop-color="#dce4e2"/><stop offset=".5" stop-color="#e7eeec"/><stop offset=".6" stop-color="#e4ebe9"/><stop offset=".8" stop-color="#d9e2e0"/><stop offset=".9" stop-color="#c8d2d0"/><stop offset="1" stop-color="#b8c4c2"/></linearGradient><path fill="url(#SVGID_15_)" d="M950.5 847.7c-.3-24.6-18-39.7-17.1-79.7l-51.7-11.4c.1 12.2 1.2 27.4-5.3 53-13.2 52.2-7.9 84.8 27.4 85.8 35.7.9 47-24.6 46.7-47.7z" clip-path="url(#SVGID_2_)"/><path d="M881.4 787.3s-26.2 24.1-30.4 36-4.2 30.8-4.2 30.8 25-20.7 31.2-41.7c4.2-14.3 3.4-25.1 3.4-25.1z" class="st20"/><path d="M893.1 787.3c-1 7-2.3 14-4.1 20.9-13.2 52.2-7.9 84.8 27.4 85.8" class="st22"/><path d="M951.8 760s-7.9-2.2-14.4-3.5a28.1 28.1 0 10-5 12.8l1 .4 18.4-9.7z" class="st19"/><linearGradient id="SVGID_16_" x1="866.6" x2="908.2" y1="282.8" y2="282.8" gradientTransform="scale(1 -1) rotate(-4.1 -13495 -637.8)" gradientUnits="userSpaceOnUse"><stop offset="0" stop-color="#fef7e3"/><stop offset=".5" stop-color="#fef5e4"/><stop offset=".8" stop-color="#feede6"/><stop offset="1" stop-color="#ffe1ea"/></linearGradient><circle cx="916.3" cy="757.9" r="20.8" fill="url(#SVGID_16_)" clip-path="url(#SVGID_2_)"/><circle cx="911.7" cy="757" r="3.8" class="st19"/><path d="M933.4 769.7c-6.8-.3-8.1-8.7-3.4-13.4s2.2-17.7-12.7-19.2l4.8-4.6a42 42 0 0112.5 11.6c3.1 4.5 2.1 11 2.9 13.5 1 3.5 4.7 7.4 4.7 7.4l-8.8 4.7zM878.1 884.2h29.7a10 10 0 0110.1 10.1h-29.7a10 10 0 01-10.1-10.1zM1038.6 759.2h29.7a10 10 0 0110.1 10.1h-39.9l.1-10.1z" class="st19"/><path d="M1029.1 659.8s29.6-7.8 36.2-4.3l35.4 18.3s-42.6 12.9-71.6-14z" class="st20"/><linearGradient id="SVGID_17_" x1="972.4" x2="1068" y1="346.2" y2="346.2" gradientTransform="scale(1 -1) rotate(-4.1 -13495 -637.8)" gradientUnits="userSpaceOnUse"><stop offset="0" stop-color="#b8c4c2"/><stop offset=".1" stop-color="#bfcac8"/><stop offset=".3" stop-color="#dce4e2"/><stop offset=".5" stop-color="#e7eeec"/><stop offset=".6" stop-color="#e4ebe9"/><stop offset=".8" stop-color="#d9e2e0"/><stop offset=".9" stop-color="#c8d2d0"/><stop offset="1" stop-color="#b8c4c2"/></linearGradient><path fill="url(#SVGID_17_)" d="M1082 703.3c-7.3-25.2-19.3-23.7-21.3-63.7l-52.4-7.6c1 12.1-16.1 60-18.3 94s19 45.4 48.3 46.1c28.9.7 57.1-28.4 43.7-68.8z" clip-path="url(#SVGID_2_)"/><path d="M1078.5 630.4s-8-1.6-14.6-2.5a28.2 28.2 0 00-33.5-29.1 28.2 28.2 0 00-22.2 33 28.2 28.2 0 0033 22.2 27.8 27.8 0 0018.6-13l1 .3 17.7-10.9z" class="st19"/><path d="M1005.2 654.8s-24.8 25.4-28.4 37.6-2.6 31-2.6 31 23.9-22 29-43.3a74.8 74.8 0 002-25.3z" class="st20"/><linearGradient id="SVGID_18_" x1="1004.7" x2="1046.3" y1="418.7" y2="418.7" gradientTransform="scale(1 -1) rotate(-4.1 -13495 -637.8)" gradientUnits="userSpaceOnUse"><stop offset="0" stop-color="#fef7e3"/><stop offset=".5" stop-color="#fef5e4"/><stop offset=".8" stop-color="#feede6"/><stop offset="1" stop-color="#ffe1ea"/></linearGradient><circle cx="1043" cy="630.8" r="20.8" fill="url(#SVGID_18_)" clip-path="url(#SVGID_2_)"/><circle cx="1038.2" cy="630.2" r="3.8" class="st19"/><path d="M1060.8 641.4c-6.8.2-8.8-8-4.3-13.1s.9-17.8-14.1-18.3l4.5-4.9c5.1 2.6 9.7 6.2 13.3 10.7 3.4 4.3 2.9 10.8 3.8 13.3 1.3 3.5 5.2 7 5.2 7l-8.4 5.3z" class="st19"/><path d="M1017.3 655.7c-1.5 6.9-3.5 13.8-5.8 20.5-17.5 51-14.9 83.9 20.3 87.7" class="st22"/><path d="M1002.3 761.1h29.7a10 10 0 0110.1 10.1h-29.7a10 10 0 01-10.1-10.1z" class="st19"/><path d="M1730.2 758.2s142.7 103.7 240.6 120.1c0 0-256.2 92.9-240.6-120.1z" class="st26"/><path d="M1733.2 709.3s-62.9 135.7-214.5 184.8c89.4 42.8 246.6.1 214.5-184.8z" class="st27"/><path d="M1715 665.4l-99.4 159.9s136.2 33 99.4-159.9zM1735 617.6s88.1 99.2 205.3 113.8c-103 62.2-170.8 14.2-196.9-37.6-18.4-36.7-8.4-76.2-8.4-76.2z" class="st28"/><path d="M1850.7 295.1l-106-93.1s-14.8 105.6 106 93.1z" class="st29"/><path d="M1747 190l-118.9 108.8s91.5 24.1 116.4-107.4c1.1-5.7 5.6-6.2 2.5-1.4zM1730.3 371.6s70 120.6 188.8 205.3c-182.2 24.1-188.8-205.3-188.8-205.3z" class="st26"/><path d="M1737.6 393.9S1628 510.4 1538.7 552c112.4 25.9 204-33.2 198.9-158.1z" class="st27"/><path fill="#a49437" d="M1765.2 1027.8h-48.9l-5.1-192.5 5.9-135.3-6.2-71.6 4.5-138 6.7-78.1-2.7-89.3 3.7-128.6h31.9l3.5 162.6 1.5 68.6-5 43.8V660l3 57.2-3 106.7V883l10.2 144.8z" clip-path="url(#SVGID_2_)"/><path fill="#86681d" d="M1737.4 1027.8h-21.2l-5.1-192.5L1717 700l-6.2-71.6 4.5-138 6.7-78.2-2.7-89.3 3.7-128.6h4.2l3.5 162.6 1.5 68.6-5 43.8v190.6l3 57.2-3 106.7v59.1l10.2 144.9z" clip-path="url(#SVGID_2_)"/><path fill="#ffdd49" d="M1746.3 248.6l5.5 110.1-5.5 176L1735 708l16.8 125.2-9.8 185.5" clip-path="url(#SVGID_2_)" opacity=".4"/><path d="M1762.4 182.5l103 77.7s-79.7 39.4-103-77.7z" class="st28"/><path d="M1727.4 163.6l-131.8 109.6s73 37.2 141.9-101.6c3.1-6.3-4.6-12.5-10.1-8z" class="st27"/><path d="M1733.1 44.1l43.7 85.8 84 100.1s-102 41.2-127.6-127.1a288.4 288.4 0 01-.1-58.8z" class="st26"/><path d="M1733 44.1l-22.1 58.5-92.4 114.6s120.3 37.5 114.5-173.1z" class="st28"/><path d="M1753.8 283.8l174.5 97.2s-158.6 29.9-174.5-97.2z" class="st26"/><path d="M1746.6 320.8l177.1 134.4s-148.8 17.8-177.1-134.4z" class="st29"/><path d="M1746.5 320.8l150.7 197.4c-.1 0-195-55.5-150.7-197.4z" class="st27"/><path d="M1739.1 318.8l-170.9 164.9s173.6 33.9 170.9-164.9z" class="st28"/><path d="M1554.4 417.5l141-84.3 46.5-21.4c-.1 0-19.8 137.6-187.5 105.7z" class="st26"/><path d="M1753.8 283.8s71.1 91.8 133.5 116.3c-85.1 42.8-147.7 2.1-133.5-116.3zM1731.1 565.2s-54.4 87.6-174.2 128.4c0 0 202.4 76.6 174.2-128.4z" class="st28"/><path d="M1820.9 686.2l-94.2-105c.1 0-27.1 103 94.2 105z" class="st26"/><path d="M1733.5 84.9L1653 248.6s123 39.7 80.5-163.7z" class="st29"/><path d="M1733.2 77.9l86.1 156.5c-.1 0-128.3 28.4-86.1-156.5zM1720.8 284.6L1582 374.4c-.1 0 80.6 54 138.8-89.8z" class="st27"/><path d="M1736.6 552.9l101 108.4s-138.6 6-101-108.4z" class="st29"/><path d="M1736.6 552.9L1635.2 640s87.5 80.5 101.4-87.1z" class="st27"/><path d="M1720.8 284.6l-25.3 48.5-48.8 101.2c-.1.1 95.9 30.5 74.1-149.7z" class="st29"/><path d="M1735.1 691s115.9 138.7 153.2 143.2c-74.9 46.2-133.5-24-146.9-68.1s-6.3-75.1-6.3-75.1z" class="st27"/><path d="M1846.7 777.1L1735 691s-8 106.3 111.7 86.1zM1727.5 659.9s-78 72.9-208.8 120.6c0 .1 164 91.3 208.8-120.6z" class="st29"/><path d="M1602.7 729.3l85.2-45.4 39.6-24s1 93.3-124.8 69.4z" class="st26"/><path d="M1737.1 162.2a80.3 80.3 0 00-6.7-31.9V179c-4 8-8.7 15.5-14.3 22.4a84.6 84.6 0 00-6.7-36.4v44.3a167 167 0 01-21.1 19.2 80.5 80.5 0 00-.7-31.3l-7.2 37.1a231.7 231.7 0 01-28 16.6c-.1-4.8-.7-9.6-1.8-14.2l-3.3 16.8a366 366 0 01-51.6 19.8l142.7-170.7c-.1 0 9.1 26.2-1.3 59.6zM1735.9 616.3a80 80 0 016.7-31.9v48.7c4 8 8.7 15.5 14.3 22.4a84.6 84.6 0 016.7-36.4v44.3a167 167 0 0021.1 19.2 80.5 80.5 0 01.7-31.3l7.3 37.1c8.9 6.2 18.3 11.7 28 16.6.1-4.8.7-9.6 1.8-14.2l3.3 16.8a366 366 0 0051.6 19.8l-142.6-170.7a102 102 0 001.1 59.6zM1718.6 815.1a80.7 80.7 0 00-1.1-32.5l-8.3 48a128.2 128.2 0 01-17.9 19.6 85.4 85.4 0 00-.4-37l-7.6 43.6a162.6 162.6 0 01-24 15.3 83.3 83.3 0 004.7-30.9l-13.5 35.3c-9.9 4.5-20.1 8.4-30.5 11.5.7-4.8.9-9.6.6-14.4l-6.1 16a371 371 0 01-54.2 10.7L1730 756.6s4.5 27.3-11.4 58.5z" class="st33"/><path d="M1746.8 112.7c-1-15-.5-30.5 3-44.2l5.8 66.5a197 197 0 0017.3 29.4 151 151 0 012.5-50.4l5.3 60.5a196 196 0 0023.9 24.3 150 150 0 01-3-42.8l11.9 50c9.1 7.1 36.2 23.1 36.2 23.1-12-17.2-60.1-92.6-60.1-92.6l-56.4-92.6c-.1.2-1 24 13.6 68.8z" class="st34"/><path d="M1728.8 415.3a96.8 96.8 0 00-8.9-40.3v61.6A163 163 0 011701 465a103 103 0 00-8.9-46v56c-8.6 8.9-18 17-28 24.2 2.1-13 2.3-26.7-.9-39.5l-9.6 46.9a323 323 0 01-37.2 21c-.1-6.1-1-12.1-2.4-18l-4.3 21.2a491 491 0 01-68.4 25l189.2-215.9c-.2-.1 12 33-1.7 75.4zM1759.6 327.7a48 48 0 014.1-24.7l3.9 36.7c4.7 5.7 10 10.9 15.9 15.4a51.8 51.8 0 013.7-28.2l3.5 33.4c7.1 4.7 14.6 8.8 22.3 12.3a47.6 47.6 0 01-1.8-23.7l10.1 27.2c9.5 3.8 19.2 7 29 9.6-.3-3.7 0-7.3.7-11l4.6 12.3c17.3 4.3 34.8 7.5 52.4 9.6l-154.3-113.9c0 .1-7 20.8 5.9 45z" class="st33"/><path d="M1763.4 359.7c-1-15-.5-30.5 3-44.2l5.8 66.5a197 197 0 0017.3 29.4 151 151 0 012.5-50.4l5.3 60.5a196 196 0 0023.9 24.3 150 150 0 01-3-42.8l11.9 50a250 250 0 0030.7 20.2c-.5-6.5-.4-13.1.2-19.6l5.4 22.6a311.4 311.4 0 0055.2 22.4l-166.4-220.5c-.1.1-6.3 36.8 8.2 81.6zM1700.6 680.9c3.6-14.6 5.7-30 4.5-44l-17 64.6a188 188 0 01-22 26c4.4-16.4 7.4-34.1 6.1-50.1l-15.5 58.8a200.1 200.1 0 01-27.7 19.9c5.1-13.2 9.1-27.5 10.2-41.7l-20.2 47.3a252.6 252.6 0 01-33.7 14.7c1.6-6.4 2.6-12.8 3.2-19.4l-9.1 21.4c-18.9 6-38.4 10.3-58.2 12.8L1722.7 602s-.1 37.2-22.1 78.9zM1751 806.8a142.5 142.5 0 01-5.4-43.9l18.3 64.2c6.7 9.2 14.3 17.7 22.5 25.5a149.6 149.6 0 01-7.1-49.9l16.6 58.4a199 199 0 0028 19.3 149 149 0 01-11.1-41.5l21.1 46.9a244.2 244.2 0 0033.9 14c-1.7-6.3-2.9-12.8-3.6-19.3l9.6 21.2a323 323 0 0058.4 11.6l-205.1-185c.2.1 1 37.2 23.9 78.5zM1701.5 311.7a85.3 85.3 0 007.8-25.2l-17.6 35.8c-4.9 4.7-10.3 8.9-15.9 12.6 4.5-9 8.3-19.1 9.4-28.6l-16 32.5c-5.9 3.3-12.1 6.1-18.5 8.4a91 91 0 0010.9-23.2l-17.4 25.3c-7 2.1-14.2 3.6-21.4 4.6 1.7-3.6 3.1-7.2 4.1-11l-7.9 11.4a191.4 191.4 0 01-35.5.6l140-86.8c.2 0-4.3 21.8-22 43.6z" class="st34"/><path d="M1568.2 1084.9l117.1-82.3 30.2-3.4 13.9 12.5 34.7 1.5 26.6 5.4 97.5 66.2h-320z" class="st5"/><path d="M1764.2 1013.3l26.6 5.4 97.5 66.2h-62.1l-62-71.6zM1688.1 1084.9l22.9-42.8 28.2 31.3 14.7-9.9 18.2 21.4h-84z" class="st17"/><path d="M1452 833.1l82.6 176.1s25.7-31.4 10.3-89c-12.7-47.3-92.9-87.1-92.9-87.1zM1429.1 1062.3h45.8c10 0 18.2 8.1 18.2 18.2h-64v-18.2z" class="st19"/><linearGradient id="SVGID_19_" x1="1387.1" x2="1574.9" y1="185.8" y2="77.4" gradientTransform="matrix(1 0 0 -1 -64.3 1080)" gradientUnits="userSpaceOnUse"><stop offset="0" stop-color="#fef7e3"/><stop offset=".5" stop-color="#fef5e4"/><stop offset=".8" stop-color="#feede6"/><stop offset="1" stop-color="#ffe1ea"/></linearGradient><path fill="url(#SVGID_19_)" d="M1511.4 981.8c-6.6 56.6-54.5 98.7-85.8 98.7h-70v-51.6c62-.1 36.2-107.8 36.2-107.8s4.3-36.5 6.5-64.5c1.3-17.4-4.7-31.9-6.8-32.7a20.6 20.6 0 01-12-10.6c2.8-6.1 5-21.4 6.3-25.4 1.5-4.6 3.5-9.1 5.9-13.3a20.7 20.7 0 0127.2 19.6V794.5s43.9 36.7 42 38.7c49.6 38.6 50.5 148.6 50.5 148.6z" clip-path="url(#SVGID_2_)"/><path d="M1355.6 1054.7v25.8h-45.2l45.2-25.8z" class="st19"/><path d="M1447.2 820.6a38 38 0 01-39.2 37.1c-3.3 0-25.9-39.4-28.3-44.4 2.8-6.1 5-21.4 6.3-25.4 1.5-4.6 3.5-9.1 5.9-13.3a20.7 20.7 0 0127.1 19.6v.2l28.2 26.2z" class="st36"/><path d="M1407 997.6c-12.9 17.7-29.9 31.3-51.4 31.3V876.4c0-9 2.1-17.8 6.3-25.8v-.1c6.3-13.2 12.8-26.5 17.7-37.1 2.4 5 30.8 32 40.4 53.4a130.7 130.7 0 01-13 130.8zM1519.8 759.3c-26.3 11.5-60.5 54.1-58.5 74.3l-18.2-6.7c-18.5-7.5-22.9-11.2-24-32.5 0-11.4-9.3-20.7-20.7-20.7a20 20 0 00-6.4 1 52 52 0 0144.9-28.4c22.5 0 34.8 16 37.6 23.3l44.6-12.3c1.2-.5 1.6 1.4.7 2z" class="st19"/><circle cx="1431.8" cy="781.6" r="3.9" class="st37"/><path d="M1358.1 941.2l33.7-191.6s-39.1 10.9-59.6 66.8c-16.8 46.2 25.9 124.8 25.9 124.8z" class="st19"/><path d="M1506.4 764.3s-13.9 8.3-19.3 13.3c-11.8 11.1-14.8 13.7-14.8 13.7s2.7-6.9 13.4-16.3 20.7-10.7 20.7-10.7z" class="st38"/><path d="M1167.4 731.6l-155.8 76.2s4.2-39 50-66c48.4-28.7 105.8-10.2 105.8-10.2zM1162.9 933.7h-57c0-9 7.3-16.2 16.2-16.2h40.8v16.2z" class="st19"/><linearGradient id="SVGID_20_" x1="2449.7" x2="2617" y1="312.3" y2="215.7" gradientTransform="rotate(180 1853.7 540)" gradientUnits="userSpaceOnUse"><stop offset="0" stop-color="#fef7e3"/><stop offset=".5" stop-color="#fef5e4"/><stop offset=".8" stop-color="#feede6"/><stop offset="1" stop-color="#ffe1ea"/></linearGradient><path fill="url(#SVGID_20_)" d="M1089.5 845.7c5.9 50.5 48.6 88 76.5 88h62.4v-46c-55.3-.1-32.3-96.1-32.3-96.1s-3.9-32.5-5.8-57.5c-1.2-15.5 4.2-28.5 6-29.1 4.7-1.6 8.5-5 10.7-9.4-2.5-5.4-4.5-19.1-5.7-22.6a74 74 0 00-5.2-11.9 18.4 18.4 0 00-24.1 17.6v.2s-39.1 32.7-37.4 34.5c-44.2 34.3-45.1 132.3-45.1 132.3z" clip-path="url(#SVGID_2_)"/><path d="M1228.4 910.7v23h40.3l-40.3-23z" class="st19"/><path d="M1146.8 702a33.9 33.9 0 0034.9 33.1c3 0 23.1-35.1 25.3-39.5-2.5-5.4-4.5-19.1-5.7-22.6a74 74 0 00-5.2-11.9 18.4 18.4 0 00-24.1 17.5v.2l-25.2 23.2z" class="st36"/><path d="M1182.6 859.8c11.5 15.8 26.6 27.9 45.8 27.9v-136c0-8-1.9-15.9-5.6-23v-.1c-5.6-11.8-11.5-23.6-15.8-33.1-2.1 4.4-27.4 28.5-36 47.6a117 117 0 0011.6 116.7zM1082.1 647.3c23.4 10.2 53.9 48.3 52.2 66.2l16.3-6c16.5-6.7 20.4-10 21.4-29a18.4 18.4 0 0124.1-17.5 46.5 46.5 0 00-40-25.3 36.5 36.5 0 00-33.6 20.8l-39.7-11c-1.2-.4-1.6 1.3-.7 1.8z" class="st19"/><circle cx="1160.6" cy="667.2" r="3.5" class="st37"/><path d="M1287.7 878.4l-82-152.8s36.2-1.7 69.1 40c27.2 34.2 12.9 112.8 12.9 112.8z" class="st19"/><path d="M1094.1 651.8s12.4 7.4 17.2 11.9l13.2 12.2s-2.4-6.1-11.9-14.5-18.6-9.6-18.5-9.6z" class="st38"/><path d="M1208.6 714.5c-8.6 9.8-17 19.8-22.2 31.4a116.5 116.5 0 0011.6 116.6 80.4 80.4 0 0020 19.9M1364.9 1009.9c9.3-9.1 18.5-18.4 24.6-29.6a116.7 116.7 0 00-10.9-128.9" class="st22"/><g class="st15"><path d="M402.4 463.1v15.7h-28.7v-15.7h-56.6v-18.9l50.8-51.7h34.5v50.3h15v20.3h-15zm-28.7-47.6l-27.1 27.4h27.1v-27.4zM476.8 481.4c-25.6 0-51.2-10.2-51.2-45 0-28.5 15-45.9 53.7-45.9 32.8 0 48.4 16.8 48.4 45.6-.1 29.6-18.7 45.3-50.9 45.3zm.2-72c-16.7 0-20.3 15.2-20.3 25.6 0 7.8 1 26.6 19.8 26.6 15.4 0 20-12.9 20-26.8 0-8.5-2-25.4-19.5-25.4zM620 463.1v15.7h-28.7v-15.7h-56.6v-18.9l50.8-51.7H620v50.3h15v20.3h-15zm-28.7-47.6l-27.1 27.4h27.1v-27.4z" class="st40"/></g></svg>