<svg id="e8EwgAFkh5W1" xmlns="http://www.w3.org/2000/svg" xmlns:xlink="http://www.w3.org/1999/xlink" viewBox="0 0 936 451" shape-rendering="geometricPrecision" text-rendering="geometricPrecision"><style><![CDATA[#e8EwgAFkh5W2 {animation: e8EwgAFkh5W2_c_o 5000ms linear 1 normal forwards}@keyframes e8EwgAFkh5W2_c_o { 0% {opacity: 0} 33.333333% {opacity: 0} 66.666667% {opacity: 1} 100% {opacity: 1}} #e8EwgAFkh5W3 {animation: e8EwgAFkh5W3_c_o 5000ms linear 1 normal forwards}@keyframes e8EwgAFkh5W3_c_o { 0% {opacity: 0} 33.333333% {opacity: 1} 100% {opacity: 1}} #e8EwgAFkh5W4 {animation: e8EwgAFkh5W4_c_o 5000ms linear 1 normal forwards}@keyframes e8EwgAFkh5W4_c_o { 0% {opacity: 0} 33.333333% {opacity: 1} 100% {opacity: 1}} #e8EwgAFkh5W5 {animation: e8EwgAFkh5W5_c_o 5000ms linear 1 normal forwards}@keyframes e8EwgAFkh5W5_c_o { 0% {opacity: 0} 33.333333% {opacity: 0} 66.666667% {opacity: 1} 100% {opacity: 1}} #e8EwgAFkh5W6 {animation: e8EwgAFkh5W6_c_o 5000ms linear 1 normal forwards}@keyframes e8EwgAFkh5W6_c_o { 0% {opacity: 0} 66.666667% {opacity: 0} 100% {opacity: 1}} #e8EwgAFkh5W7_to {animation: e8EwgAFkh5W7_to__to 5000ms linear 1 normal forwards}@keyframes e8EwgAFkh5W7_to__to { 0% {transform: translate(-176.224832px,372.832px)} 100% {transform: translate(355.996px,356px)}} #e8EwgAFkh5W8_to {animation: e8EwgAFkh5W8_to__to 5000ms linear 1 normal forwards}@keyframes e8EwgAFkh5W8_to__to { 0% {transform: translate(-223.224832px,386.832px)} 100% {transform: translate(308.996px,370px)}} #e8EwgAFkh5W9_to {animation: e8EwgAFkh5W9_to__to 5000ms linear 1 normal forwards}@keyframes e8EwgAFkh5W9_to__to { 0% {transform: translate(-191.724832px,400.832px)} 100% {transform: translate(340.496px,384px)}} #e8EwgAFkh5W10_to {animation: e8EwgAFkh5W10_to__to 5000ms linear 1 normal forwards}@keyframes e8EwgAFkh5W10_to__to { 0% {transform: translate(-48.724832px,372.832px)} 100% {transform: translate(483.496px,356px)}} #e8EwgAFkh5W11_to {animation: e8EwgAFkh5W11_to__to 5000ms linear 1 normal forwards}@keyframes e8EwgAFkh5W11_to__to { 0% {transform: translate(-108.224832px,386.832px)} 100% {transform: translate(423.996px,370px)}} #e8EwgAFkh5W12_to {animation: e8EwgAFkh5W12_to__to 5000ms linear 1 normal forwards}@keyframes e8EwgAFkh5W12_to__to { 0% {transform: translate(1083.5px,367px)} 100% {transform: translate(574.5px,356px)}} #e8EwgAFkh5W13_to {animation: e8EwgAFkh5W13_to__to 5000ms linear 1 normal forwards}@keyframes e8EwgAFkh5W13_to__to { 0% {transform: translate(1082px,381px)} 100% {transform: translate(573px,370px)}} #e8EwgAFkh5W14_to {animation: e8EwgAFkh5W14_to__to 5000ms linear 1 normal forwards}@keyframes e8EwgAFkh5W14_to__to { 0% {transform: translate(1021px,395px)} 100% {transform: translate(512px,384px)}} #e8EwgAFkh5W15_to {animation: e8EwgAFkh5W15_to__to 5000ms linear 1 normal forwards}@keyframes e8EwgAFkh5W15_to__to { 0% {transform: translate(1175.5px,367px)} 100% {transform: translate(666.5px,356px)}} #e8EwgAFkh5W16_to {animation: e8EwgAFkh5W16_to__to 5000ms linear 1 normal forwards}@keyframes e8EwgAFkh5W16_to__to { 0% {transform: translate(1185.5px,381px)} 100% {transform: translate(676.5px,370px)}} #e8EwgAFkh5W17_to {animation: e8EwgAFkh5W17_to__to 5000ms linear 1 normal forwards}@keyframes e8EwgAFkh5W17_to__to { 0% {transform: translate(1161px,395px)} 100% {transform: translate(652px,384px)}} #e8EwgAFkh5W18 {animation: e8EwgAFkh5W18_c_o 5000ms linear 1 normal forwards}@keyframes e8EwgAFkh5W18_c_o { 0% {opacity: 0} 66.666667% {opacity: 0} 100% {opacity: 1}}]]></style><path id="e8EwgAFkh5W2" d="M407.024,174C392.349,227.381,377.675,281.81,363,335.191c12.997-1.574,25.157-3.14,38.783-5.233-3.372,21.357,0,1.506-3.372,23.042h18.274c-3.372-23.042,0,0-3.372-23.042c1.048,0,18.868,3.14,36.687,6.28-5.241-21.981-24.108-12.726-42.976-37.847c10.482,5.233,28.301,9.586,37.735,10.633-6.289-21.981-20.964-9.586-37.735-31.567c8.386,4.187,23.06,7.493,31.446,9.586-6.289-21.981-16.771-11.679-31.446-30.52c7.337,3.14,18.868,6.446,25.157,8.539-5.241-21.98-11.53-13.772-25.157-30.519c6.289,3.14,13.627,5.399,18.868,7.492-2.446-9.767-3.978-13.19-6.195-15.658-2.534-2.821-5.963-4.393-12.673-12.768c4.193,2.093,8.386,4.352,12.578,5.399-5.241-18.841-1.048-12.726-12.578-26.333c3.145,1.047,4.193,2.259,6.289,3.306L407.024,174Z" opacity="0" clip-rule="evenodd" fill="#71cc97" fill-rule="evenodd"/><path id="e8EwgAFkh5W3" d="M358.831,240c-9.277,33.699-18.554,68.059-27.831,101.757c8.216-.993,15.904-1.982,24.518-3.303-2.132,13.482,0,.951-2.132,14.546h11.553c-2.132-14.546,0,0-2.132-14.546.663,0,11.928,1.982,23.193,3.964-3.313-13.876-15.241-8.034-27.169-23.892c6.627,3.304,17.892,6.052,23.856,6.712-3.976-13.876-13.253-6.051-23.856-19.927c5.302,2.643,14.579,4.73,19.88,6.051-3.976-13.876-10.603-7.373-19.88-19.266c4.639,1.982,11.928,4.069,15.904,5.39-3.313-13.876-7.289-8.694-15.904-19.266c3.976,1.982,8.615,3.408,11.928,4.73-1.546-6.166-2.515-8.327-3.916-9.885-1.602-1.781-3.77-2.774-8.012-8.061c2.651,1.322,5.302,2.748,7.952,3.409-3.313-11.894-.663-8.034-7.952-16.624c1.988.661,2.651,1.426,3.976,2.087L358.831,240Z" opacity="0" clip-rule="evenodd" fill="#71cc97" fill-rule="evenodd"/><path id="e8EwgAFkh5W4" d="M606.831,243c-9.277,33.699-18.554,68.059-27.831,101.757c8.216-.993,15.904-1.982,24.518-3.303-2.132,13.482,0,.951-2.132,14.546h11.553c-2.132-14.546,0,0-2.132-14.546.663,0,11.928,1.982,23.193,3.964-3.313-13.876-15.241-8.034-27.169-23.892c6.627,3.304,17.892,6.052,23.856,6.712-3.976-13.876-13.253-6.051-23.856-19.927c5.302,2.643,14.579,4.73,19.88,6.051-3.976-13.876-10.603-7.373-19.88-19.266c4.639,1.982,11.928,4.069,15.904,5.39-3.313-13.876-7.289-8.694-15.904-19.266c3.976,1.982,8.615,3.408,11.928,4.73-1.546-6.166-2.515-8.327-3.916-9.885-1.602-1.781-3.77-2.774-8.012-8.061c2.651,1.322,5.302,2.748,7.952,3.409-3.313-11.894-.663-8.034-7.952-16.624c1.988.661,2.651,1.426,3.976,2.087L606.831,243Z" opacity="0" clip-rule="evenodd" fill="#71cc97" fill-rule="evenodd"/><path id="e8EwgAFkh5W5" d="M554.024,177C539.349,230.381,524.675,284.81,510,338.191c12.997-1.574,25.157-3.14,38.783-5.233-3.372,21.357,0,1.506-3.372,23.042h18.274c-3.372-23.042,0,0-3.372-23.042c1.048,0,18.868,3.14,36.687,6.28-5.241-21.981-24.108-12.726-42.976-37.847c10.482,5.233,28.301,9.586,37.735,10.633-6.289-21.981-20.964-9.586-37.735-31.567c8.386,4.187,23.06,7.493,31.446,9.586-6.289-21.981-16.771-11.679-31.446-30.52c7.337,3.14,18.868,6.446,25.157,8.539-5.241-21.98-11.53-13.772-25.157-30.519c6.289,3.14,13.627,5.399,18.868,7.492-2.446-9.767-3.978-13.19-6.195-15.658-2.534-2.821-5.963-4.393-12.673-12.768c4.193,2.093,8.386,4.352,12.578,5.399-5.241-18.841-1.048-12.726-12.578-26.333c3.145,1.047,4.193,2.259,6.289,3.306L554.024,177Z" opacity="0" clip-rule="evenodd" fill="#71cc97" fill-rule="evenodd"/><path id="e8EwgAFkh5W6" d="M487.723,106C467.482,179.66,447.241,254.765,427,328.426c17.927-2.172,34.699-4.333,53.494-7.222-4.651,29.47,0,2.079-4.651,31.796h25.206c-4.651-31.796,0,0-4.651-31.796c1.445,0,26.024,4.333,50.602,8.666-7.229-30.331-33.253-17.561-59.277-52.224c14.458,7.221,39.036,13.227,52.048,14.672-8.675-30.331-28.916-13.228-52.048-43.559c11.566,5.778,31.807,10.339,43.373,13.228-8.674-30.331-23.132-16.116-43.373-42.114c10.12,4.333,26.024,8.894,34.699,11.783-7.229-30.331-15.904-19.005-34.699-42.114c8.675,4.333,18.795,7.45,26.024,10.339-3.373-13.478-5.487-18.201-8.544-21.606-3.496-3.893-8.225-6.063-17.48-17.619c5.783,2.888,11.566,6.006,17.349,7.45-7.229-25.998-1.445-17.561-17.349-36.337c4.337,1.445,5.783,3.117,8.675,4.562L487.723,106Z" opacity="0" clip-rule="evenodd" fill="#71cc97" fill-rule="evenodd"/><g id="e8EwgAFkh5W7_to" transform="translate(-176.224832,372.832)"><rect width="171" height="6" rx="0" ry="0" transform="translate(-85.5,-3)" fill="#13aa52"/></g><g id="e8EwgAFkh5W8_to" transform="translate(-223.224832,386.832)"><rect width="77" height="6" rx="0" ry="0" transform="translate(-38.5,-3)" fill="#13aa52"/></g><g id="e8EwgAFkh5W9_to" transform="translate(-191.724832,400.832)"><rect width="140" height="6" rx="0" ry="0" transform="translate(-70,-3)" fill="#13aa52"/></g><g id="e8EwgAFkh5W10_to" transform="translate(-48.724832,372.832)"><rect width="58" height="6" rx="0" ry="0" transform="translate(-29,-3)" fill="#13aa52"/></g><g id="e8EwgAFkh5W11_to" transform="translate(-108.224832,386.832)"><rect width="123" height="6" rx="0" ry="0" transform="translate(-61.5,-3)" fill="#13aa52"/></g><g id="e8EwgAFkh5W12_to" transform="translate(1083.5,367)"><rect width="97" height="6" rx="0" ry="0" transform="translate(-48.5,-3)" fill="#13aa52"/></g><g id="e8EwgAFkh5W13_to" transform="translate(1082,381)"><rect width="142" height="6" rx="0" ry="0" transform="translate(-71,-3)" fill="#13aa52"/></g><g id="e8EwgAFkh5W14_to" transform="translate(1021,395)"><rect width="170" height="6" rx="0" ry="0" transform="translate(-85,-3)" fill="#13aa52"/></g><g id="e8EwgAFkh5W15_to" transform="translate(1175.5,367)"><rect width="61" height="6" rx="0" ry="0" transform="translate(-30.5,-3)" fill="#13aa52"/></g><g id="e8EwgAFkh5W16_to" transform="translate(1185.5,381)"><rect width="41" height="6" rx="0" ry="0" transform="translate(-20.5,-3)" fill="#13aa52"/></g><g id="e8EwgAFkh5W17_to" transform="translate(1161,395)"><rect width="90" height="6" rx="0" ry="0" transform="translate(-45,-3)" fill="#13aa52"/></g><path id="e8EwgAFkh5W18" d="M408.36,427v-3.808h-12.704v-6.048h10.912v-3.648h-10.912v-5.312h11.904v-3.776h-16.064v22.592h16.864Zm19.68-22.592h-4.352l-4.928,17.824-5.056-17.824h-4.448L415.912,427h5.696l6.432-22.592ZM447.673,427v-3.808h-12.704v-6.048h10.912v-3.648h-10.912v-5.312h11.904v-3.776h-16.064v22.592h16.864Zm4.575-22.592v22.592h4.192v-8.384h3.808L464.696,427h4.832l-5.024-9.216c3.584-1.184,4.448-4.032,4.448-6.208c0-4.256-3.008-7.168-7.456-7.168h-9.248Zm4.192,3.648h3.84c2.72,0,4.384,1.056,4.384,3.488c0,2.656-1.92,3.552-4.96,3.552h-3.264v-7.04ZM492.264,427v-12.352h-9.504v3.712h5.632c-.448,3.52-2.624,5.216-5.568,5.216-6.176,0-6.4-6.816-6.4-7.776c0-4.992,2.496-8.16,6.304-8.16c3.936,0,5.12,3.36,5.504,4.448l4.032-1.6c-1.344-3.584-4.672-6.656-9.504-6.656-7.648,0-10.944,6.784-10.944,12.096c0,7.68,5.184,11.648,10.592,11.648c2.528,0,4.384-.8,6.208-2.496v1.92h3.648Zm6.016-22.592v22.592h4.192v-8.384h3.808L510.728,427h4.832l-5.024-9.216c3.584-1.184,4.448-4.032,4.448-6.208c0-4.256-3.008-7.168-7.456-7.168h-9.248Zm4.192,3.648h3.84c2.72,0,4.384,1.056,4.384,3.488c0,2.656-1.92,3.552-4.96,3.552h-3.264v-7.04ZM537.079,427v-3.808h-12.704v-6.048h10.912v-3.648h-10.912v-5.312h11.904v-3.776h-16.064v22.592h16.864Zm21.344,0v-3.808h-12.704v-6.048h10.912v-3.648h-10.912v-5.312h11.904v-3.776h-16.064v22.592h16.864Zm22.079,0v-22.592h-4.16c.032.512.512,15.936.512,15.936l-10.016-15.936h-3.808v22.592h4.128c0-.416-.256-15.84-.256-15.84L576.79,427h3.712Z" opacity="0" fill="#116149"/></svg>